<svg xmlns="http://www.w3.org/2000/svg" xmlns:xlink="http://www.w3.org/1999/xlink" width="2130.22" height="1045.113" viewBox="0 0 2130.22 1045.113">
    <defs>
        <linearGradient id="linear-gradient" x1="-7.534" x2="41.83" y1="-3.243" y2="19.756" gradientUnits="objectBoundingBox">
            <stop offset="0" stop-color="#26b5a4"/>
            <stop offset="1" stop-color="#4161ad"/>
        </linearGradient>
        <linearGradient id="linear-gradient-2" x1="-.561" x2="3.179" y1=".006" y2="1.748" xlink:href="#linear-gradient"/>
        <linearGradient id="linear-gradient-3" x1="-12.964" x2="19.945" y1="-6.981" y2="11.419" xlink:href="#linear-gradient"/>
        <linearGradient id="linear-gradient-4" x1="-.863" x2="1.026" y1="-.135" y2=".745" xlink:href="#linear-gradient"/>
        <linearGradient id="linear-gradient-5" x1="-50.306" x2="-.943" y1="-23.172" y2="-.172" xlink:href="#linear-gradient"/>
        <linearGradient id="linear-gradient-6" x1=".208" x2=".779" y1=".141" y2=".844" gradientUnits="objectBoundingBox">
            <stop offset="0" stop-color="#28ed8b"/>
            <stop offset="1" stop-color="#27b06c"/>
        </linearGradient>
        <linearGradient id="linear-gradient-7" x1=".218" x2="1.166" y1=".109" y2="1.422" xlink:href="#linear-gradient"/>
        <linearGradient id="linear-gradient-8" x1=".496" x2=".51" y1="-.144" y2="1.396" xlink:href="#linear-gradient"/>
        <linearGradient id="linear-gradient-9" x1="-.28" x2="1.356" y1="-.879" y2="1.364" gradientUnits="objectBoundingBox">
            <stop offset=".005" stop-color="#8fd9d0"/>
            <stop offset="1" stop-color="#7e8cad"/>
        </linearGradient>
        <style>
            .cls-2{fill:#1ec1f5}.cls-3,.cls-6{fill:#5f9ef9}.cls-3{opacity:.23}.cls-4{opacity:.08}.cls-18{opacity:.21}.cls-12{opacity:.32}.cls-14{fill:#0b9f55}.cls-15{fill:#27b06c}.cls-16{fill:#ccddf9}.cls-17,.cls-18{fill:#fff}.cls-17{opacity:.38}.cls-19{opacity:.17}.cls-20{fill:#e8e2d3}.cls-23{fill:#939598}.cls-25{fill:#545456}.cls-27{fill:#7259c9}.cls-36{fill:#f6cdaf}.cls-37{fill:#414042;opacity:.31}.cls-38{fill:#97b9c9}.cls-39{fill:#81a7ba}.cls-42{fill:#38909e}
        </style>
    </defs>
    <g id="Group_22760" transform="translate(2 174.113)">
        <path id="Path_67857" fill="#d3ffeb" d="M0 790l2130.22-219.476V-255.11H0z" transform="translate(-2 80.997)"/>
        <g id="Group_21256" transform="translate(894.007 69.219)">
            <g id="Group_21172" transform="translate(567.861 651.593)">
                <g id="Group_21170">
                    <path id="Path_73135" d="M299.225 331.438L222.76 287.29l1.856-3.211 74.609 43.075 147.956-85.421 1.856 3.211z" class="cls-2" transform="translate(-222.76 -241.732)"/>
                </g>
                <g id="Group_21171" transform="translate(33.49 22.223)">
                    <path id="Path_73136" d="M276.105 281.751l-44.322-25.59 1.856-3.211 42.466 24.517 51.524-29.748 1.856 3.211z" class="cls-2" transform="translate(-231.783 -247.719)"/>
                </g>
            </g>
            <g id="Group_21173" transform="translate(121.177 270.115)">
                <path id="Path_73137" d="M263.575 329.541l-161.162-93.046 168.947-97.542 3.215 1.856-165.734 95.686 157.948 91.191z" class="cls-2" transform="translate(-102.413 -138.953)"/>
            </g>
            <g id="Group_21216" transform="translate(667.859 140.945)">
                <path id="Path_73138" d="M346.708 166.33l-31.761 18.337-31.76-18.337 31.761-18.337z" class="cls-3" transform="translate(-158.905 14.731)"/>
                <g id="Group_21215">
                    <path id="Path_73139" d="M659.051 209.9L426.479 344.172 249.7 242.11l232.573-134.276z" class="cls-4" transform="translate(-249.702 -94.163)"/>
                    <path id="Path_73140" fill="#00e7ff" d="M659.661 206.214L427.089 340.489 250.312 238.426l232.572-134.275z" opacity="0.21" transform="translate(-248.048 -104.151)"/>
                    <g id="Group_21214" transform="translate(46.455 24.923)">
                        <g id="Group_21174" transform="translate(5.378 116.676)">
                            <path id="Path_73141" d="M302.939 164.975a4.537 4.537 0 0 1-4.1 0l-34.321-19.816a1.247 1.247 0 0 1 0-2.364 4.506 4.506 0 0 1 4.1 0l34.325 19.816a1.249 1.249 0 0 1-.004 2.364z" class="cls-6" transform="translate(-263.667 -142.301)"/>
                        </g>
                        <g id="Group_21175" transform="translate(25.484 118.82)">
                            <path id="Path_73142" d="M310.019 166.515a4.529 4.529 0 0 1-4.1 0l-35.988-20.778a1.25 1.25 0 0 1 0-2.368 4.537 4.537 0 0 1 4.1 0l35.984 20.778a1.25 1.25 0 0 1 .004 2.368z" class="cls-6" transform="translate(-269.084 -142.879)"/>
                        </g>
                        <g id="Group_21176" transform="translate(0 104.107)">
                            <path id="Path_73143" d="M285.99 152.641a4.529 4.529 0 0 1-4.1 0l-18.826-10.871a1.248 1.248 0 0 1 0-2.364 4.529 4.529 0 0 1 4.1 0l18.825 10.868a1.25 1.25 0 0 1 .001 2.367z" class="cls-6" transform="translate(-262.218 -138.915)"/>
                        </g>
                        <g id="Group_21177" transform="translate(17.419 104.697)">
                            <path id="Path_73144" d="M329.232 175.058a4.529 4.529 0 0 1-4.1 0l-57.372-33.126a1.25 1.25 0 0 1 0-2.368 4.529 4.529 0 0 1 4.1 0l57.374 33.126a1.25 1.25 0 0 1-.002 2.368z" class="cls-6" transform="translate(-266.911 -139.074)"/>
                        </g>
                        <g id="Group_21178" transform="translate(3.073 96.417)">
                            <path id="Path_73145" d="M275.676 144.136a4.529 4.529 0 0 1-4.1 0L263.9 139.7a1.25 1.25 0 0 1 0-2.368 4.529 4.529 0 0 1 4.1 0l7.683 4.435a1.25 1.25 0 0 1-.007 2.369z" class="cls-6" transform="translate(-263.046 -136.843)"/>
                        </g>
                        <g id="Group_21179" transform="translate(66.597 123.627)">
                            <path id="Path_73146" d="M293.816 152.057a4.529 4.529 0 0 1-4.1 0l-8.711-5.026a1.251 1.251 0 0 1 0-2.368 4.536 4.536 0 0 1 4.1 0l8.707 5.029a1.248 1.248 0 0 1 .004 2.365z" class="cls-6" transform="translate(-280.161 -144.174)"/>
                        </g>
                        <g id="Group_21180" transform="translate(18.955 96.12)">
                            <path id="Path_73147" d="M313.189 163.245a4.529 4.529 0 0 1-4.1 0l-40.917-23.624a1.25 1.25 0 0 1 0-2.368 4.529 4.529 0 0 1 4.1 0l40.917 23.625a1.25 1.25 0 0 1 0 2.367z" class="cls-6" transform="translate(-267.325 -136.763)"/>
                        </g>
                        <g id="Group_21181" transform="translate(54.045 106.917)">
                            <path id="Path_73148" d="M295.815 150.662a4.536 4.536 0 0 1-4.1 0l-14.086-8.136a1.247 1.247 0 0 1 0-2.364 4.529 4.529 0 0 1 4.1 0l14.089 8.132a1.251 1.251 0 0 1-.003 2.368z" class="cls-6" transform="translate(-276.779 -139.672)"/>
                        </g>
                        <g id="Group_21182" transform="translate(42.519 100.262)">
                            <path id="Path_73149" d="M283.744 143.691a4.529 4.529 0 0 1-4.1 0l-5.126-2.954a1.251 1.251 0 0 1 0-2.368 4.537 4.537 0 0 1 4.1 0l5.122 2.958a1.248 1.248 0 0 1 .004 2.364z" class="cls-6" transform="translate(-273.674 -137.879)"/>
                        </g>
                        <g id="Group_21183" transform="translate(55.838 98.488)">
                            <path id="Path_73150" d="M297.579 149.13a4.529 4.529 0 0 1-4.1 0l-15.37-8.875a1.248 1.248 0 0 1 0-2.364 4.529 4.529 0 0 1 4.1 0l15.37 8.871a1.25 1.25 0 0 1 0 2.368z" class="cls-6" transform="translate(-277.262 -137.401)"/>
                        </g>
                        <g id="Group_21184" transform="translate(54.171 88.062)">
                            <path id="Path_73151" d="M330.044 165.324a4.528 4.528 0 0 1-4.1 0l-48.284-27.878a1.247 1.247 0 0 1 0-2.364 4.529 4.529 0 0 1 4.1 0l48.284 27.874a1.25 1.25 0 0 1 0 2.368z" class="cls-6" transform="translate(-276.813 -134.592)"/>
                        </g>
                        <g id="Group_21185" transform="translate(40.983 80.446)">
                            <path id="Path_73152" d="M285.248 139.462a4.529 4.529 0 0 1-4.1 0l-7.045-4.064a1.251 1.251 0 0 1 0-2.368 4.537 4.537 0 0 1 4.1 0l7.041 4.068a1.247 1.247 0 0 1 .004 2.364z" class="cls-6" transform="translate(-273.26 -132.54)"/>
                        </g>
                        <g id="Group_21186" transform="translate(102.456 106.472)">
                            <path id="Path_73153" d="M295.281 142.707a4.529 4.529 0 0 1-4.1 0l-.512-.3a1.25 1.25 0 0 1 0-2.368 4.528 4.528 0 0 1 4.1 0l.512.3a1.25 1.25 0 0 1 0 2.368z" class="cls-6" transform="translate(-289.822 -139.552)"/>
                        </g>
                        <g id="Group_21187" transform="translate(56.862 80.149)">
                            <path id="Path_73154" d="M321.461 157.822a4.53 4.53 0 0 1-4.1 0l-38.976-22.5a1.25 1.25 0 0 1 0-2.368 4.529 4.529 0 0 1 4.1 0l38.976 22.5a1.25 1.25 0 0 1 0 2.368z" class="cls-6" transform="translate(-277.538 -132.46)"/>
                        </g>
                        <g id="Group_21188" transform="translate(77.866 82.814)">
                            <path id="Path_73155" d="M308.636 147.865a4.552 4.552 0 0 1-4.1 0l-20.492-11.833a1.248 1.248 0 0 1 0-2.364 4.529 4.529 0 0 1 4.1 0l20.492 11.832a1.25 1.25 0 0 1 0 2.365z" class="cls-6" transform="translate(-283.197 -133.178)"/>
                        </g>
                        <g id="Group_21189" transform="translate(83.5 76.6)">
                            <path id="Path_73156" d="M315.276 149.149a4.528 4.528 0 0 1-4.1 0l-25.614-14.787a1.25 1.25 0 0 1 0-2.368 4.529 4.529 0 0 1 4.1 0l25.614 14.791a1.247 1.247 0 0 1 0 2.364z" class="cls-6" transform="translate(-284.715 -131.504)"/>
                        </g>
                        <g id="Group_21190" transform="translate(91.952 72.017)">
                            <path id="Path_73157" d="M330.105 155.159a4.529 4.529 0 0 1-4.1 0l-38.167-22.032a1.25 1.25 0 0 1 0-2.368 4.529 4.529 0 0 1 4.1 0l38.167 22.036a1.247 1.247 0 0 1 0 2.364z" class="cls-6" transform="translate(-286.992 -130.269)"/>
                        </g>
                        <g id="Group_21191" transform="translate(78.891 64.475)">
                            <path id="Path_73158" d="M295.249 135.037a4.529 4.529 0 0 1-4.1 0l-6.829-3.942a1.25 1.25 0 0 1 0-2.368 4.529 4.529 0 0 1 4.1 0l6.829 3.942a1.25 1.25 0 0 1 0 2.368z" class="cls-6" transform="translate(-283.473 -128.237)"/>
                        </g>
                        <g id="Group_21192" transform="translate(89.647 61.223)">
                            <path id="Path_73159" d="M337.424 156.835a4.529 4.529 0 0 1-4.1 0l-46.106-26.62a1.248 1.248 0 0 1 0-2.364 4.529 4.529 0 0 1 4.1 0l46.106 26.616a1.25 1.25 0 0 1 0 2.368z" class="cls-6" transform="translate(-286.371 -127.361)"/>
                        </g>
                        <g id="Group_21193" transform="translate(120.256 69.43)">
                            <path id="Path_73160" d="M315.317 141.523a4.529 4.529 0 0 1-4.1 0l-15.752-9.1a1.247 1.247 0 0 1 0-2.364 4.529 4.529 0 0 1 4.1 0l15.752 9.093a1.25 1.25 0 0 1 0 2.371z" class="cls-6" transform="translate(-294.618 -129.572)"/>
                        </g>
                        <g id="Group_21194" transform="translate(105.273 60.778)">
                            <path id="Path_73161" d="M304.024 135a4.537 4.537 0 0 1-4.1 0l-8.492-4.9a1.25 1.25 0 0 1 0-2.368 4.529 4.529 0 0 1 4.1 0l8.5 4.9a1.251 1.251 0 0 1-.008 2.368z" class="cls-6" transform="translate(-290.581 -127.241)"/>
                        </g>
                        <g id="Group_21195" transform="translate(117.631 58.448)">
                            <path id="Path_73162" d="M328.247 146.44a4.529 4.529 0 0 1-4.1 0l-29.392-16.97a1.249 1.249 0 0 1 0-2.364 4.513 4.513 0 0 1 4.1 0l29.389 16.97a1.247 1.247 0 0 1 .003 2.364z" class="cls-6" transform="translate(-293.911 -126.613)"/>
                        </g>
                        <g id="Group_21196" transform="translate(111.163 54.716)">
                            <path id="Path_73163" d="M297.371 128.611a4.529 4.529 0 0 1-4.1 0l-.256-.148a1.25 1.25 0 0 1 0-2.368 4.552 4.552 0 0 1 4.1 0l.256.148a1.25 1.25 0 0 1 0 2.368z" class="cls-6" transform="translate(-292.168 -125.608)"/>
                        </g>
                        <g id="Group_21197" transform="translate(153.553 69.727)">
                            <path id="Path_73164" d="M315.325 136.426a4.529 4.529 0 0 1-4.1 0l-6.789-3.919a1.247 1.247 0 0 1 0-2.364 4.529 4.529 0 0 1 4.1 0l6.789 3.916a1.25 1.25 0 0 1 0 2.367z" class="cls-6" transform="translate(-303.589 -129.652)"/>
                        </g>
                        <g id="Group_21198" transform="translate(114.236 47.026)">
                            <path id="Path_73165" d="M330.728 145.32a4.529 4.529 0 0 1-4.1 0l-32.783-18.93a1.248 1.248 0 0 1 0-2.364 4.529 4.529 0 0 1 4.1 0l32.785 18.929a1.247 1.247 0 0 1-.002 2.365z" class="cls-6" transform="translate(-292.996 -123.536)"/>
                        </g>
                        <g id="Group_21199" transform="translate(132.679 48.207)">
                            <path id="Path_73166" d="M328.526 141.5a4.529 4.529 0 0 1-4.1 0l-25.614-14.787a1.25 1.25 0 0 1 0-2.368 4.529 4.529 0 0 1 4.1 0l25.614 14.791a1.248 1.248 0 0 1 0 2.364z" class="cls-6" transform="translate(-297.965 -123.854)"/>
                        </g>
                        <g id="Group_21200" transform="translate(136.521 40.961)">
                            <path id="Path_73167" d="M338.268 144.576a4.529 4.529 0 0 1-4.1 0l-34.319-19.816a1.25 1.25 0 0 1 0-2.368 4.529 4.529 0 0 1 4.1 0l34.321 19.816a1.25 1.25 0 0 1-.002 2.368z" class="cls-6" transform="translate(-299 -121.902)"/>
                        </g>
                        <g id="Group_21201" transform="translate(140.192 33.616)">
                            <path id="Path_73168" d="M362.481 156a4.529 4.529 0 0 1-4.1 0l-57.545-33.223a1.25 1.25 0 0 1 0-2.368 4.529 4.529 0 0 1 4.1 0l57.545 33.226a1.247 1.247 0 0 1 0 2.365z" class="cls-6" transform="translate(-299.989 -119.923)"/>
                        </g>
                        <g id="Group_21202" transform="translate(126.02 25.436)">
                            <path id="Path_73169" d="M308.8 125.009a4.529 4.529 0 0 1-4.1 0l-7.687-4.435a1.249 1.249 0 0 1 0-2.364 4.537 4.537 0 0 1 4.1 0l7.683 4.435a1.247 1.247 0 0 1 .004 2.364z" class="cls-6" transform="translate(-296.171 -117.719)"/>
                        </g>
                        <g id="Group_21203" transform="translate(193.127 54.716)">
                            <path id="Path_73170" d="M324.32 131.421a4.529 4.529 0 0 1-4.1 0l-5.122-2.958a1.25 1.25 0 0 1 0-2.368 4.552 4.552 0 0 1 4.1 0l5.122 2.958a1.25 1.25 0 0 1 0 2.368z" class="cls-6" transform="translate(-314.251 -125.608)"/>
                        </g>
                        <g id="Group_21204" transform="translate(141.899 25.139)">
                            <path id="Path_73171" d="M349.835 146.152a4.529 4.529 0 0 1-4.1 0L301.3 120.493a1.247 1.247 0 0 1 0-2.364 4.529 4.529 0 0 1 4.1 0l44.439 25.658a1.247 1.247 0 0 1-.004 2.365z" class="cls-6" transform="translate(-300.449 -117.639)"/>
                        </g>
                        <g id="Group_21205" transform="translate(173.147 33.716)">
                            <path id="Path_73172" d="M324.063 128.721a4.529 4.529 0 0 1-4.1 0l-10.246-5.921a1.247 1.247 0 0 1 0-2.364 4.529 4.529 0 0 1 4.1 0l10.248 5.916a1.248 1.248 0 0 1-.002 2.369z" class="cls-6" transform="translate(-308.868 -119.95)"/>
                        </g>
                        <g id="Group_21206" transform="translate(176.22 26.026)">
                            <path id="Path_73173" d="M335.135 132.565a4.528 4.528 0 0 1-4.1 0l-20.492-11.829a1.25 1.25 0 0 1 0-2.368 4.529 4.529 0 0 1 4.1 0l20.492 11.832a1.247 1.247 0 0 1 0 2.365z" class="cls-6" transform="translate(-309.696 -117.878)"/>
                        </g>
                        <g id="Group_21207" transform="translate(216.521 39.829)">
                            <path id="Path_73174" d="M339.5 132.535a4.529 4.529 0 0 1-4.1 0l-14-8.084a1.247 1.247 0 0 1 0-2.364 4.529 4.529 0 0 1 4.1 0l14 8.084a1.247 1.247 0 0 1 0 2.364z" class="cls-6" transform="translate(-320.554 -121.597)"/>
                        </g>
                        <g id="Group_21208" transform="translate(158.805 6.506)">
                            <path id="Path_73175" d="M361.349 145.148a4.529 4.529 0 0 1-4.1 0l-51.4-29.674a1.247 1.247 0 0 1 0-2.364 4.529 4.529 0 0 1 4.1 0l51.4 29.674a1.247 1.247 0 0 1 0 2.364z" class="cls-6" transform="translate(-305.004 -112.619)"/>
                        </g>
                        <g id="Group_21209" transform="translate(181.688 10.252)">
                            <path id="Path_73176" d="M365.462 144.976a4.529 4.529 0 0 1-4.1 0l-49.346-28.49a1.25 1.25 0 0 1 0-2.368 4.529 4.529 0 0 1 4.1 0l49.346 28.494a1.248 1.248 0 0 1 0 2.364z" class="cls-6" transform="translate(-311.169 -113.628)"/>
                        </g>
                        <g id="Group_21210" transform="translate(174.684 6.21)">
                            <path id="Path_73177" d="M314.656 115.642a4.529 4.529 0 0 1-4.1 0l-.427-.245a1.25 1.25 0 0 1 0-2.368 4.529 4.529 0 0 1 4.1 0l.427.249a1.248 1.248 0 0 1 0 2.364z" class="cls-6" transform="translate(-309.282 -112.539)"/>
                        </g>
                        <g id="Group_21211" transform="translate(221.643 23.858)">
                            <path id="Path_73178" d="M347.031 131.784a4.552 4.552 0 0 1-4.1 0l-20.151-11.636a1.248 1.248 0 0 1 0-2.364 4.529 4.529 0 0 1 4.1 0l20.15 11.632a1.25 1.25 0 0 1 .001 2.368z" class="cls-6" transform="translate(-321.934 -117.294)"/>
                        </g>
                        <g id="Group_21212" transform="translate(180.321)">
                            <path id="Path_73179" d="M350.668 133.882a4.529 4.529 0 0 1-4.1 0l-34.921-20.162a1.249 1.249 0 0 1 0-2.364 4.537 4.537 0 0 1 4.1 0l34.919 20.162a1.248 1.248 0 0 1 .002 2.364z" class="cls-6" transform="translate(-310.801 -110.866)"/>
                        </g>
                        <g id="Group_21213" transform="translate(206.444 5.619)">
                            <path id="Path_73180" d="M348.4 130.025a4.529 4.529 0 0 1-4.1 0l-25.614-14.791a1.247 1.247 0 0 1 0-2.364 4.536 4.536 0 0 1 4.1 0l25.61 14.787a1.25 1.25 0 0 1 .004 2.368z" class="cls-6" transform="translate(-317.839 -112.38)"/>
                        </g>
                    </g>
                    <path id="Path_73181" d="M359.544 158.919l-31.761 18.337-31.761-18.337 31.761-18.337z" class="cls-3" transform="translate(-124.099 -5.364)"/>
                    <path id="Path_73182" d="M372.38 151.509l-31.761 18.337-31.761-18.337 31.761-18.337z" class="cls-3" transform="translate(-89.294 -25.459)"/>
                    <path id="Path_73183" d="M385.216 144.1l-31.761 18.337-31.761-18.337 31.761-18.337z" class="cls-3" transform="translate(-54.488 -45.554)"/>
                    <path id="Path_73184" d="M370.56 146.029l-57.375 33.125-6.147-3.549 57.375-33.125z" class="cls-3" transform="translate(-94.229 -.218)"/>
                    <path id="Path_73185" d="M424.824 139.814l-108.6 62.7-6.147-3.549 108.6-62.7z" class="cls-3" transform="translate(-85.995 -17.072)"/>
                    <path id="Path_73186" d="M376.632 149.535l-57.374 33.125-6.147-3.549 57.374-33.125z" class="cls-3" transform="translate(-77.761 9.289)"/>
                    <path id="Path_73187" d="M392.844 137.582l-51.227 29.576-6.148-3.549 51.231-29.576z" class="cls-3" transform="translate(-17.133 -23.122)"/>
                </g>
            </g>
            <g id="Group_21222" transform="translate(282.582 99.59)">
                <g id="Group_21217" transform="translate(0 57.18)">
                    <path id="Path_73188" fill="url(#linear-gradient)" d="M149.114 112.126l-3.214-1.856 3.214-1.856 3.214 1.856z" transform="translate(-145.899 -108.415)"/>
                </g>
                <g id="Group_21218" transform="translate(9.497 6.41)">
                    <path id="Path_73189" fill="url(#linear-gradient-2)" d="M151.672 143.737l-3.214-1.856 6.28-3.626 3.214 1.856zm12.56-7.253l-3.214-1.856L167.3 131l3.214 1.856zm12.564-7.256l-3.214-1.856 6.28-3.626 3.214 1.856zm12.56-7.253l-3.214-1.856 6.284-3.626 3.214 1.856zm12.564-7.252l-3.214-1.856 6.28-3.626 3.214 1.859zm12.56-7.253l-3.214-1.856 6.284-3.626 3.214 1.856zm12.564-7.253l-3.214-1.856 6.28-3.626 3.214 1.856z" transform="translate(-148.458 -94.736)"/>
                </g>
                <g id="Group_21219" transform="translate(97.431)">
                    <path id="Path_73190" fill="url(#linear-gradient-3)" d="M175.364 97.649l-3.215-1.856 4.822-2.784 4.821 2.784-3.214 1.856-1.607-.928z" transform="translate(-172.15 -93.009)"/>
                </g>
                <g id="Group_21220" transform="translate(110.453 6.588)">
                    <path id="Path_73191" fill="url(#linear-gradient-4)" d="M340.469 191.795l-6.592-3.8 3.214-1.856 6.592 3.8zm-13.184-7.613l-6.6-3.8 3.214-1.856 6.6 3.8zM314.1 176.57l-6.592-3.8 3.214-1.856 6.592 3.8zm-13.184-7.613l-6.592-3.8 3.214-1.856 6.592 3.8zm-13.184-7.609l-6.6-3.808 3.214-1.856 6.6 3.808zm-13.187-7.613l-6.592-3.808 3.214-1.856 6.592 3.808zm-13.184-7.616l-6.592-3.8 3.214-1.856 6.592 3.8zm-13.184-7.609l-6.6-3.808 3.214-1.856 6.6 3.808zm-13.189-7.61l-6.588-3.81 3.214-1.856 6.592 3.808zm-13.188-7.614l-6.592-3.808 3.214-1.856 6.592 3.808zm-13.184-7.612l-6.6-3.808 3.214-1.856 6.6 3.808zm-13.187-7.613l-6.592-3.8 3.214-1.856 6.592 3.8zm-13.184-7.613l-6.592-3.808 3.214-1.856 6.592 3.808z" transform="translate(-175.658 -94.784)"/>
                </g>
                <g id="Group_21221" transform="translate(281.857 105.55)">
                    <path id="Path_73192" fill="url(#linear-gradient-5)" d="M225.053 125.158l-3.214-1.856 3.214-1.856 3.214 1.856z" transform="translate(-221.838 -121.447)"/>
                </g>
            </g>
            <g id="Group_21230" transform="translate(131.694 90.582)">
                <path id="Path_73193" d="M105.856 169.773l104.457-60.308 104.457 60.308-104.456 60.308z" class="cls-12" transform="translate(-103.593 -39.38)"/>
                <g id="Group_21229">
                    <path id="Path_73194" fill="#1cd378" d="M211.967 216.84l-106.721-61.615L211.967 93.61l106.721 61.616z" transform="translate(-105.246 -82.373)"/>
                    <path id="Path_73195" d="M211.967 171.826v34.746l-106.721-61.616V110.21z" class="cls-14" transform="translate(-105.246 -37.358)"/>
                    <path id="Path_73196" d="M134 171.826v34.746l106.721-61.616V110.21z" class="cls-15" transform="translate(-27.279 -37.358)"/>
                    <g id="Group_21226" transform="translate(19.618 103.853)">
                        <g id="Group_21223" transform="translate(20.402 11.78)">
                            <path id="Path_73197" d="M163.111 150.732l-47.083-27.183v-1.812l47.083 27.183z" class="cls-16" transform="translate(-116.029 -121.737)"/>
                        </g>
                        <g id="Group_21224" transform="translate(9.416 5.437)">
                            <path id="Path_73198" d="M119.347 125.464l-6.278-3.624v-1.812l6.278 3.624z" class="cls-16" transform="translate(-113.069 -120.028)"/>
                        </g>
                        <g id="Group_21225">
                            <path id="Path_73199" d="M115.24 123.093l-4.708-2.718v-1.812l4.708 2.718z" class="cls-16" transform="translate(-110.532 -118.563)"/>
                        </g>
                    </g>
                    <path id="Path_73200" d="M166.136 119.2l-5.689 3.284v-6.569l5.689-3.284z" class="cls-16" transform="translate(44.436 -30.804)"/>
                    <g id="Group_21228">
                        <path id="Path_73201" d="M240.72 107.183v3.032L134 171.831V168.8z" class="cls-17" transform="translate(-27.279 -45.567)"/>
                        <g id="Group_21227">
                            <path id="Path_73202" d="M211.967 213.813L105.246 152.2l106.72-61.615L318.688 152.2z" class="cls-18" transform="translate(-105.246 -90.582)"/>
                            <path id="Path_73203" d="M211.967 214.63l-106.721-61.616L211.967 91.4l106.721 61.616z" class="cls-18" transform="translate(-105.246 -88.367)"/>
                            <path id="Path_73204" d="M105.246 107.183v3.032l106.721 61.616V168.8z" class="cls-17" transform="translate(-105.246 -45.568)"/>
                        </g>
                    </g>
                </g>
            </g>
            <path id="Path_73205" d="M570.2 328.4L391.42 431.622 151.979 293.38l178.776-103.217z" class="cls-12" transform="translate(153.168 270.026)"/>
            <path id="Path_73206" d="M341.894 177.6h.1l10.719-.809a13.6 13.6 0 0 1 .557-2.479 15.583 15.583 0 0 1 1.028-2.431l-9.3-2.925a9.1 9.1 0 0 0-2.572-3.3l.022-.052 1.982-6.135c-1.321-.312-2.632-.668-3.912-1.073s-2.513-.846-3.689-1.314l-7.683 4.2a29.777 29.777 0 0 0-6.224.4l-.085-.03-9.494-2.984c-.924.627-1.915 1.236-2.977 1.815s-2.168 1.117-3.307 1.618l4.547 5.523a6.622 6.622 0 0 0-1.273 3.541l-.07.033-7.85 4.291a23.01 23.01 0 0 1 2.075 2.2 19.764 19.764 0 0 1 1.633 2.311l10.5-.791a21.072 21.072 0 0 0 2.62 1.054 26.149 26.149 0 0 0 2.817.739l.037.052 4.643 5.634c1.388-.193 2.81-.349 4.257-.457s2.9-.171 4.324-.189l1.941-6a17.66 17.66 0 0 0 4.634-2.442z" class="cls-19" transform="translate(561.07 180.319)"/>
            <path id="Path_73207" d="M349.387 198.177c.679-.39 1.314-.8 1.923-1.21l10.6.969a20.167 20.167 0 0 1 1.752-2.286 24.512 24.512 0 0 1 2.179-2.164l-7.527-4.346a12.384 12.384 0 0 0 .969-3.444l9.565-2.813a15.192 15.192 0 0 1-.913-2.446 14.054 14.054 0 0 1-.438-2.487l-10.508-.961a18.911 18.911 0 0 0-2.724-3.122l4.87-5.519c-1.113-.516-2.194-1.069-3.229-1.666s-1.993-1.221-2.888-1.863l-9.483 2.787a46.567 46.567 0 0 0-5.38-1.606l-1.678-6.113c-1.425-.037-2.865-.119-4.309-.252s-2.854-.312-4.235-.527l-4.836 5.478a59.08 59.08 0 0 0-5.98.52l-7.583-4.376c-1.2.453-2.442.876-3.745 1.258s-2.628.716-3.964 1.013l1.666 6.068c-.816.39-1.611.8-2.372 1.243-.679.393-1.31.8-1.919 1.214l-10.6-.969a20.511 20.511 0 0 1-1.752 2.286 24.463 24.463 0 0 1-2.179 2.164l7.527 4.346a12.33 12.33 0 0 0-.969 3.441l-9.565 2.817a15.288 15.288 0 0 1 .913 2.442 13.757 13.757 0 0 1 .438 2.491l10.508.961a19.042 19.042 0 0 0 2.724 3.118l-4.87 5.519c1.113.52 2.193 1.073 3.229 1.67s1.993 1.221 2.888 1.863l9.483-2.791a46.6 46.6 0 0 0 5.378 1.611l1.678 6.109c1.425.041 2.865.122 4.309.256s2.854.308 4.235.527l4.836-5.478a57.968 57.968 0 0 0 5.98-.523l7.583 4.376q1.793-.679 3.745-1.258c1.3-.382 2.628-.716 3.964-1.01l-1.666-6.069c.815-.394 1.609-.806 2.37-1.248zm-26.267-12.7a1.3 1.3 0 0 1 0-2.461 4.7 4.7 0 0 1 4.268 0 1.3 1.3 0 0 1 0 2.461 4.725 4.725 0 0 1-4.268-.001z" class="cls-19" transform="translate(504.817 185.808)"/>
            <path id="Path_73208" d="M851.472 447.76l-.1.115c0-5.1-3.459-10.341-10.474-14.386L352.986 151.906c-13.343-7.7-34.158-8.173-46.492-1.047l-170.289 98.37c-5.579 3.225-8.325 7.457-8.578 11.833l-.16-.074v27.6l.13.074c-.16 5.2 3.27 10.582 10.441 14.72l487.916 281.582c13.34 7.694 34.158 8.173 46.5 1.047l170.285-98.369c5.879-3.4 8.678-7.913 8.644-12.538l.089-.052z" class="cls-12" transform="translate(86.704 149.751)"/>
            <g id="Group_21231" transform="translate(214.17 235.427)">
                <path id="Path_73209" d="M127.468 160.639v27.6l24.244 13.332s-1.069-30.242-1.529-30.547-22.715-10.385-22.715-10.385z" class="cls-20" transform="translate(-127.466 -45.459)"/>
                <path id="Path_73210" d="M355.863 210.96v27.292l-45.623 25.414z" class="cls-20" transform="translate(368.144 90.992)"/>
                <path id="Path_73211" d="M625.955 548.808c13.339 7.7 34.158 8.177 46.5 1.05L842.74 451.49c12.334-7.126 11.5-19.152-1.837-26.846L352.988 143.061c-13.343-7.7-34.158-8.169-46.492-1.047l-170.289 98.37c-12.337 7.126-11.51 19.145 1.833 26.842z" class="cls-20" transform="translate(-127.467 -109.656)"/>
                <path id="Path_73212" fill="#fafffd" d="M625.955 541.453c13.339 7.7 34.158 8.177 46.5 1.05L842.74 444.13c12.334-7.123 11.5-19.148-1.837-26.846L352.988 135.7c-13.343-7.7-34.158-8.169-46.492-1.043l-170.289 98.371c-12.337 7.126-11.51 19.141 1.833 26.843z" transform="translate(-127.467 -129.607)"/>
                <path id="Path_73213" fill="url(#linear-gradient-6)" d="M550.563 497.65L765.51 373.482 358.361 138.511 142.71 263.085z" transform="translate(-86.135 -105.461)"/>
                <path id="Path_73214" d="M157.192 178.324c3.389 1.956 8.529 2.168 11.458.475l44-25.413c2.928-1.692 2.561-4.662-.828-6.618-3.385-1.952-8.529-2.164-11.458-.475l-44 25.417c-2.928 1.692-2.557 4.662.828 6.614z" class="cls-23" transform="translate(-54.467 -87.452)"/>
                <path id="Path_73215" fill="url(#linear-gradient-7)" d="M150.509 161.167c3.582 2.067 8.986 2.294 12.078.5s2.7-4.907-.88-6.974-8.978-2.29-12.074-.5-2.702 4.907.876 6.974z" transform="translate(-73.019 -66.201)"/>
                <path id="Path_73216" d="M155.4 163.991c-3.574-2.064-3.964-5.185-.872-6.97s8.5-1.563 12.078.5 3.968 5.185.876 6.97-8.502 1.564-12.082-.5z" class="cls-23" transform="translate(-59.751 -58.544)"/>
                <path id="Path_73217" d="M171.374 195.841a.874.874 0 0 1-1.31.757l-21.928-12.66a.875.875 0 0 1-.438-.757v-4.357a.874.874 0 0 1 1.31-.757l21.928 12.66a.875.875 0 0 1 .438.757z" class="cls-25" transform="translate(-72.61 1.48)"/>
                <path id="Path_73218" d="M182.372 202.224a.874.874 0 0 1-1.31.757l-21.932-12.66a.871.871 0 0 1-.434-.757v-4.358a.872.872 0 0 1 1.31-.757l21.928 12.66a.875.875 0 0 1 .438.757z" class="cls-25" transform="translate(-42.787 18.788)"/>
            </g>
            <ellipse id="Ellipse_2877" cx="21.73" cy="12.547" class="cls-20" rx="21.73" ry="12.547" transform="translate(796.651 567.915)"/>
            <path id="Path_73219" d="M326.219 133.514L142.71 239.521l407.853 234.564 182.805-105.6z" opacity="0.05" transform="translate(128.035 116.414)"/>
            <path id="Path_73220" d="M337.693 234.059l-44.662 25.788c-.983.564-1.778-.037-1.778-1.344v-3.923a4.252 4.252 0 0 1 1.778-3.4l44.662-25.78c.98-.568 1.774.033 1.774 1.344v3.923a4.252 4.252 0 0 1-1.774 3.392z" class="cls-23" transform="translate(530.827 364.993)"/>
            <path id="Path_73221" d="M341.894 169.574h.1l10.719-.805a13.605 13.605 0 0 1 .557-2.479 15.585 15.585 0 0 1 1.028-2.431l-9.3-2.925a9.111 9.111 0 0 0-2.572-3.3l.022-.048 1.982-6.135c-1.321-.315-2.632-.668-3.912-1.073s-2.513-.846-3.689-1.318l-7.683 4.2a30.032 30.032 0 0 0-6.224.4l-.085-.03-9.494-2.984q-1.387.946-2.977 1.819c-1.062.579-2.168 1.117-3.307 1.615l4.541 5.52a6.622 6.622 0 0 0-1.273 3.541l-.07.033-7.85 4.294a23.425 23.425 0 0 1 2.075 2.193 19.8 19.8 0 0 1 1.641 2.316l10.5-.791a20.506 20.506 0 0 0 2.62 1.05 25.327 25.327 0 0 0 2.817.742l.037.052 4.643 5.634q2.082-.3 4.257-.46c1.451-.108 2.9-.167 4.324-.186l1.941-6.005a17.551 17.551 0 0 0 4.632-2.439z" class="cls-27" transform="translate(561.07 158.559)"/>
            <path id="Path_73222" d="M349.387 190.153c.679-.39 1.314-.8 1.923-1.214l10.6.972a20.536 20.536 0 0 1 1.752-2.29 24.52 24.52 0 0 1 2.179-2.164l-7.527-4.343a12.385 12.385 0 0 0 .969-3.444l9.565-2.817a15.287 15.287 0 0 1-.913-2.442 14.1 14.1 0 0 1-.438-2.491l-10.508-.961a19.043 19.043 0 0 0-2.724-3.118l4.87-5.519c-1.113-.52-2.194-1.073-3.229-1.67s-1.993-1.221-2.888-1.863l-9.483 2.791a45.853 45.853 0 0 0-5.378-1.607l-1.678-6.113c-1.425-.041-2.865-.123-4.309-.252s-2.854-.312-4.235-.527l-4.836 5.478a56.963 56.963 0 0 0-5.98.52l-7.583-4.376q-1.793.679-3.745 1.258c-1.3.382-2.628.716-3.964 1.01l1.666 6.072c-.816.39-1.611.8-2.372 1.243-.679.39-1.31.8-1.919 1.21l-10.6-.969a20.531 20.531 0 0 1-1.752 2.29 24.956 24.956 0 0 1-2.179 2.16l7.527 4.346a12.389 12.389 0 0 0-.969 3.444l-9.565 2.813a15.333 15.333 0 0 1 .913 2.446 13.7 13.7 0 0 1 .438 2.49l10.508.961a19.042 19.042 0 0 0 2.724 3.118l-4.87 5.519c1.113.516 2.193 1.073 3.229 1.667a34.229 34.229 0 0 1 2.888 1.867l9.483-2.791a46.593 46.593 0 0 0 5.378 1.607l1.678 6.113c1.425.037 2.865.119 4.309.252s2.854.312 4.235.527l4.836-5.478a57.967 57.967 0 0 0 5.98-.52l7.583 4.376c1.2-.453 2.442-.876 3.745-1.258s2.628-.716 3.964-1.01l-1.666-6.072c.813-.387 1.607-.799 2.368-1.241zm-26.267-12.7a1.3 1.3 0 0 1 0-2.465 4.725 4.725 0 0 1 4.268 0 1.3 1.3 0 0 1 0 2.465 4.725 4.725 0 0 1-4.268-.001z" class="cls-27" transform="translate(504.817 164.05)"/>
            <g id="Group_21232" transform="translate(889.42 377.679)">
                <path id="Path_73223" fill="url(#linear-gradient-8)" d="M317.966 261.96l-3.214-1.856 5.356-3.092 3.214 1.856zm11.784-6.8l-3.214-1.856 6.428-3.712 3.214 1.856zm12.857-7.423l-3.214-1.856 6.428-3.712 3.214 1.856zm12.857-7.423l-3.214-1.856 6.429-3.712 3.214 1.856zm12.857-7.423l-3.214-1.856 6.428-3.712 3.214 1.856zm12.857-7.423l-3.214-1.856 6.428-3.712 3.214 1.856zm10.722-8.048l-5.356-3.092 3.214-1.856 6.963 4.02-2.68 1.548-1.607-.928zm-11.784-6.8l-6.429-3.712 3.214-1.856 6.428 3.712zm-12.857-7.423l-6.429-3.712 3.214-1.856 6.428 3.712zM354.4 195.77l-6.429-3.712 3.214-1.856 6.429 3.712zm-12.857-7.423l-6.429-3.712 3.214-1.856 6.428 3.712zm-12.861-7.423l-6.429-3.712 3.214-1.856 6.428 3.712zm-12.857-7.424l-6.428-3.712 3.214-1.856 6.428 3.712z" transform="translate(-309.396 -167.933)"/>
            </g>
            <g id="Group_21233" transform="translate(95.493 409.884)">
                <path id="Path_73224" fill="#f5a66b" d="M140.7 224.258l-41.268-23.824L140.7 176.61l41.265 23.824z" transform="translate(-84.814 -176.61)"/>
                <path id="Path_73225" d="M151.376 256.587l-55.883-32.266 55.882-32.261 55.883 32.265z" class="cls-12" transform="translate(-95.493 -134.714)"/>
                <path id="Path_73226" fill="#dd6d1b" d="M99.432 183.029v45.54l41.268 23.824v-45.54z" transform="translate(-84.814 -159.205)"/>
                <path id="Path_73227" fill="#e87e30" d="M151.813 183.029v45.54l-41.264 23.823v-45.54z" transform="translate(-54.667 -159.205)"/>
            </g>
            <path id="Path_73228" d="M550.563 477.65L765.51 353.482l-407.149-234.97L142.71 243.085z" class="cls-18" transform="translate(128.035 75.733)"/>
            <g id="Group_21234" transform="translate(460.337 198.22)">
                <path id="Path_73229" d="M231.881 140.382l-38.09 21.992 191.1 110.333 38.13-22.014z" class="cls-4" transform="translate(-193.791 -63.182)"/>
                <path id="Path_73230" d="M530.984 229.916l-146.09 84.346-191.1-110.333 146.09-84.345z" class="cls-18" transform="translate(-193.791 -119.583)"/>
                <path id="Path_73231" d="M329.6 143.661l-82.537 47.653-31.364-18.108 82.537-47.652z" class="cls-15" transform="translate(-134.396 -103.394)"/>
                <path id="Path_73232" d="M343.05 151.428l-82.537 47.652-31.364-18.108 82.537-47.653z" class="cls-15" transform="translate(-97.914 -82.331)"/>
                <path id="Path_73233" d="M356.5 159.2l-82.537 47.653L242.6 188.74l82.537-47.653z" class="cls-15" transform="translate(-61.433 -61.269)"/>
            </g>
            <g id="Group_21245" transform="translate(305.146 419.362)">
                <path id="Path_73234" d="M174.881 237.333L437.8 389.068l.177-27.154 70.115-40.481-239.438-138.24z" class="cls-12" transform="translate(-89.877 -168.238)"/>
                <path id="Path_73235" fill="#fff" d="M570.2 317.4L391.42 420.622 151.979 282.38l178.776-103.217z" transform="translate(-151.979 -179.163)"/>
                <path id="Path_73236" d="M406.757 223.043L227.981 326.26l-76-43.88 178.774-103.217z" class="cls-2" transform="translate(-151.979 -179.163)"/>
                <path id="Path_73237" d="M247.263 217.456l-56.878 32.838-9.069-5.236 56.878-32.839z" class="cls-16" transform="translate(-72.426 -89.525)"/>
                <path id="Path_73238" d="M303.24 211.8l-108.7 62.756-9.069-5.236 108.7-62.756z" class="cls-16" transform="translate(-61.151 -104.873)"/>
                <path id="Path_73239" d="M255.579 222.258L198.7 255.1l-9.068-5.236 56.878-32.839z" class="cls-16" transform="translate(-49.875 -76.505)"/>
                <path id="Path_73240" d="M285.647 220.628l-82.788 47.8-9.069-5.236 82.788-47.8z" class="cls-16" transform="translate(-38.6 -80.924)"/>
                <path id="Path_73241" d="M263.9 227.059L207.017 259.9l-9.068-5.236 56.878-32.839z" class="cls-16" transform="translate(-27.325 -63.486)"/>
                <path id="Path_73242" d="M345.783 217.369l-134.608 77.715-9.068-5.236 134.607-77.715z" class="cls-16" transform="translate(-16.049 -89.762)"/>
                <g id="Group_21244" transform="translate(36.019 78.581)">
                    <ellipse id="Ellipse_2878" cx="42.469" cy="24.519" fill="#f2f2f2" rx="42.469" ry="24.519" transform="translate(.621 .358)"/>
                    <path id="Path_73243" fill="#4d4d4d" d="M235.266 242.807c-16.8 9.706-44.153 9.71-60.967.011s-16.821-25.491-.019-35.2 44.153-9.71 60.967-.007 16.821 25.489.019 35.196zm-60.08-34.667c-16.305 9.42-16.294 24.742.019 34.154s42.851 9.409 59.156-.011 16.3-24.742-.019-34.154-42.851-9.409-59.156.011z" transform="translate(-161.683 -200.335)"/>
                    <g id="Group_21243" transform="translate(13.738 8.654)">
                        <path id="Path_73244" fill="#719daf" d="M173.459 214.674s.2-1.158 5.623-4.291 7.427-3.251 7.427-3.251l2.75 1.589-11.74 6.343-1.607.909z" transform="translate(-143.489 -190.559)"/>
                        <g id="Group_21235" transform="translate(27.882 15.37)">
                            <path id="Path_73245" d="M184.141 206.808l-5.622 3.248-5.619 3.244 12.924 7.967 6.063-3.5 6.063-3.5z" class="cls-36" transform="translate(-172.896 -206.808)"/>
                            <path id="Path_73246" d="M184.141 206.808l-5.622 3.248-5.619 3.244.647.4 19.112-2.3z" class="cls-37" transform="translate(-172.896 -206.808)"/>
                        </g>
                        <path id="Path_73247" d="M207.132 226.573c8.648-5 12.7-11.651 12.174-18.2l-3.533-1.592c-9.2-2.81-23.9 4.4-23.9 4.4l-2.357 2.086-2.264 1.837-3.34 1.247-3.456 1.425s-12.475 8.492-7.6 13.8l2.754 2.038c11.349.301 22.874-2.045 31.522-7.041z" class="cls-38" transform="translate(-148.193 -193.279)"/>
                        <g id="Group_21237" transform="translate(2.241 .574)">
                            <path id="Path_73248" d="M195.7 208.294c7.753 4.469 9.509 10.712 3.923 13.937s-16.394 2.216-24.144-2.257-14.754-7.683-3.923-13.937 16.389-2.215 24.144 2.257z" class="cls-36" transform="translate(-165.988 -202.822)"/>
                            <g id="Group_21236" transform="translate(5.801 3.343)">
                                <path id="Path_73249" d="M169.51 207.222s-2.219-.338-1.934.59 4.239 1.915 6.425 1.789z" class="cls-36" transform="translate(-167.551 -194.395)"/>
                                <path id="Path_73250" d="M173.606 204.857s-.579-1.284 1.024-1.121 3.322 2.446 3.107 3.708z" class="cls-36" transform="translate(-151.408 -203.722)"/>
                            </g>
                        </g>
                        <path id="Path_73251" d="M177.707 209.949l-2.9 1.2s-.345.238-.895.65l.475.445a11.435 11.435 0 0 0 9.851-.022l-2.253-3.667s-1.995.752-4.278 1.394z" class="cls-37" transform="translate(-142.266 -186.714)"/>
                        <g id="Group_21238" transform="translate(39.056 16.573)">
                            <path id="Path_73252" d="M182.471 213.179c4.339-3.114.033-5.686.033-5.686l-.657-.234c-1.191.509-1.9.854-1.9.854l-1.266 1.121a26.584 26.584 0 0 1-2.565 2.646z" class="cls-37" transform="translate(-175.329 -206.788)"/>
                            <path id="Path_73253" d="M175.907 212.38s3.919-3.448 3.964-5.248l2.42.861s4.305 2.576-.033 5.686z" class="cls-39" transform="translate(-175.907 -207.132)"/>
                        </g>
                        <path id="Path_73254" fill="#815844" d="M177.064 203.736c-5.193 2.186-11.547 5.619-8.845 6.989h.007c-3.585 1.151-3.819 3.841-.468 6.005a16.882 16.882 0 0 0 8.433 2.361c-7.872-4.042-6.388-8.741-6.388-8.741a17.271 17.271 0 0 1 11.673-.527c1.154.386 1.061-3.214 12.341-1.722 0 0 1.54-1.277-.843-2.992s-10.317-3.726-15.91-1.373z" transform="translate(-165.384 -202.667)"/>
                        <path id="Path_73255" fill="#231f20" d="M187.371 204.1a22.554 22.554 0 0 0-6.44 3.4c-1.778 1.5-2.91 2.268-2.91 2.268s-1.336.657-3.931 1.681a19 19 0 0 0-5.883 3.723 4.573 4.573 0 0 1-.5.661l1.128.382s.119-.293.984-.071 4.536 2.2 8.711.345 1.834-4.395.215-5.668c-.156-.1-.026-.126.431-.39s.5-.338.672-.249c2.208.935 6.6 2.286 9.817-.126s-.219-4.532-.605-5.029.123-.568.123-.568l-.657-.653s-.654.204-1.155.294zM179 215.672c-4.933 2.784-8.359-.226-8.359-.226-1.54-1.2 5.853-5.126 7.546-4.294s2.989 3.262.813 4.52zm9.242-5.341c-2.179 1.258-6.388.512-7.832-.464s5.352-5.248 7.434-4.361c-.002 0 5.22 1.979.395 4.825z" transform="translate(-159.097 -199.567)"/>
                        <g id="Group_21239" transform="translate(39.056 21.822)">
                            <path id="Path_73256" d="M175.907 208.546l1.744 2.837 2.862-.18.309-1.652z" class="cls-42" transform="translate(-175.907 -208.546)"/>
                            <path id="Path_73257" d="M182.274 210.387l-3.927-1.347-.152.824-1.433.089 2.338 2.268 5.326 3.418 6.781 4.246c.772-.386 1.533-.783 2.264-1.206s1.418-.861 2.086-1.306l-7.356-3.916z" class="cls-42" transform="translate(-173.589 -207.207)"/>
                            <path id="Path_73258" d="M176.762 209.956l1.754.158.68-.782-.849-.292-.154.826z" class="cls-37" transform="translate(-173.588 -207.208)"/>
                        </g>
                        <g id="Group_21240" transform="translate(29.97 21.821)">
                            <path id="Path_73259" d="M182.545 208.546s-5.972 2.268-9.086 2.294l1.488 1.4a11.435 11.435 0 0 0 9.851-.022z" class="cls-39" transform="translate(-173.459 -208.546)"/>
                            <path id="Path_73260" d="M177.651 211.383l.26-.016-2-2.821z" class="cls-37" transform="translate(-166.821 -208.546)"/>
                        </g>
                        <g id="Group_21242" transform="translate(56.43 19.828)">
                            <path id="Path_73261" d="M180.588 212.459l4.855 2.8 4.888-1.626 2.817-2.825-4.851-2.8zm12.163-1.622l-2.654 2.658-4.6 1.537-3.173-1.83 7.256-4.194z" class="cls-39" transform="translate(-180.588 -208.009)"/>
                            <g id="Group_21241" transform="translate(3.92 2.262)">
                                <path id="Path_73262" d="M182.82 208.735a.3.3 0 0 1 0 .56 1.07 1.07 0 0 1-.972 0c-.271-.152-.271-.4 0-.56a1.07 1.07 0 0 1 .972 0z" class="cls-38" transform="translate(-181.644 -208.618)"/>
                                <path id="Path_73263" d="M181.893 208.833a.26.26 0 0 0 .245 0c.071-.037.071-.1 0-.141a.283.283 0 0 0-.245 0c-.067.041-.067.108 0 .141z" class="cls-39" transform="translate(-181.107 -208.494)"/>
                                <path id="Path_73264" d="M182.019 208.763c.067.037.067.1 0 .141a.261.261 0 0 1-.245 0c-.067-.041-.067-.1 0-.141a.26.26 0 0 1 .245 0z" class="cls-39" transform="translate(-181.429 -208.309)"/>
                                <path id="Path_73265" d="M181.893 208.763c-.067.037-.067.1 0 .141a.272.272 0 0 0 .245 0c.071-.041.071-.1 0-.141a.26.26 0 0 0-.245 0z" class="cls-39" transform="translate(-181.107 -208.309)"/>
                                <path id="Path_73266" d="M182.019 208.833a.26.26 0 0 1-.245 0c-.067-.037-.067-.1 0-.141a.284.284 0 0 1 .245 0c.066.041.066.108 0 .141z" class="cls-39" transform="translate(-181.429 -208.494)"/>
                            </g>
                        </g>
                    </g>
                </g>
                <path id="Path_73267" d="M239.757 196.619l-49.123 28.361-8.316-4.8 49.123-28.361z" class="cls-16" transform="translate(-69.709 -144.849)"/>
                <path id="Path_73268" d="M227.1 192.179l-21.277 12.284-8.316-4.8 21.277-12.284z" class="cls-16" transform="translate(-28.509 -156.89)"/>
                <path id="Path_73269" fill="#d4d4d4" d="M151.979 206.972v4.758L391.42 349.972v-4.758z" transform="translate(-151.979 -103.756)"/>
                <path id="Path_73270" fill="#ebebeb" d="M395.266 216.409v4.758L216.49 324.384v-4.758z" transform="translate(22.951 -78.167)"/>
            </g>
            <path id="Path_73271" d="M286.271 200.938c7.03 4.057 7.03 10.637 0 14.694s-18.421 4.057-25.447 0-7.03-10.637 0-14.694 18.421-4.057 25.447 0z" class="cls-16" transform="translate(434.018 290.992)"/>
            <path id="Path_73272" d="M296.521 195.02c7.026 4.061 7.026 10.638 0 14.694s-18.421 4.057-25.451 0-7.026-10.637 0-14.694 18.422-4.057 25.451 0z" class="cls-16" transform="translate(461.811 274.945)"/>
            <path id="Path_73273" d="M306.77 189.1c7.03 4.057 7.03 10.638 0 14.694s-18.421 4.057-25.447 0-7.03-10.637 0-14.694 18.421-4.054 25.447 0z" class="cls-16" transform="translate(489.603 258.9)"/>
            <path id="Path_73274" d="M317.022 183.185c7.026 4.06 7.026 10.638 0 14.694s-18.424 4.057-25.451 0-7.03-10.634 0-14.694 18.422-4.057 25.451 0z" class="cls-16" transform="translate(517.395 242.853)"/>
            <g id="Group_21246" transform="translate(172.843 458.77)">
                <path id="Path_73275" fill="url(#linear-gradient-9)" d="M184.82 238.6l-4.2-2.427 1.856-3.211 2.342 1.351 2.231-1.284 1.856 3.211zm10.515-6.072l-1.856-3.21 6.429-3.712 1.856 3.211zm-21.141-.067l-6.428-3.712 1.856-3.211 6.428 3.712zm34-7.356l-1.856-3.211 6.432-3.712 1.856 3.211zm-46.856-.067l-6.428-3.712 1.856-3.211 6.429 3.712zm59.713-7.356l-1.856-3.211 6.429-3.712 1.856 3.211zm-72.57-.067l-6.429-3.712 1.856-3.211 6.429 3.712zm85.427-7.356l-1.856-3.211 6.429-3.712 1.856 3.21zm-98.284-.067l-6.432-3.712 1.856-3.211 6.432 3.712zm111.145-7.356l-1.856-3.211 6.425-3.712 1.856 3.21zm-124.005-.067l-6.429-3.712 1.856-3.211 6.429 3.712zm136.859-7.356l-1.856-3.21 4.194-2.424 1.853 3.221z" transform="translate(-116.333 -189.781)"/>
            </g>
            <path id="Path_73276" d="M253.81 138.413a16.582 16.582 0 0 1-15 0c-4.142-2.394-4.142-6.273 0-8.663a16.582 16.582 0 0 1 15 0c4.142 2.39 4.142 6.269 0 8.663z" class="cls-16" transform="translate(380.202 101.346)"/>
            <path id="Path_73277" d="M267.56 146.263a16.582 16.582 0 0 1-15 0c-4.142-2.39-4.142-6.269 0-8.659a16.559 16.559 0 0 1 15 0c4.14 2.39 4.14 6.269 0 8.659z" class="cls-16" transform="translate(417.486 122.636)"/>
            <g id="Group_21255" transform="translate(400.542 317.108)">
                <g id="Group_21247" transform="translate(0 31.515)">
                    <path id="Path_73278" d="M289.977 224.937a2.336 2.336 0 0 1-2.127 0l-109.73-63.354a.646.646 0 0 1 0-1.225 2.35 2.35 0 0 1 2.123 0l109.734 63.354a.646.646 0 0 1 0 1.225z" class="cls-16" transform="translate(-177.68 -160.105)"/>
                </g>
                <g id="Group_21248" transform="translate(18.194 21.009)">
                    <path id="Path_73279" d="M294.876 222.109a2.351 2.351 0 0 1-2.123 0l-109.73-63.354a.646.646 0 0 1 0-1.225 2.328 2.328 0 0 1 2.123 0l109.73 63.354a.645.645 0 0 1 0 1.225z" class="cls-16" transform="translate(-182.582 -157.274)"/>
                </g>
                <g id="Group_21249" transform="translate(36.389 10.504)">
                    <path id="Path_73280" d="M299.781 219.279a2.351 2.351 0 0 1-2.123 0l-109.734-63.353a.649.649 0 0 1 0-1.229 2.351 2.351 0 0 1 2.123 0l109.734 63.357a.646.646 0 0 1 0 1.225z" class="cls-16" transform="translate(-187.484 -154.444)"/>
                </g>
                <g id="Group_21250" transform="translate(54.583)">
                    <path id="Path_73281" d="M304.684 216.449a2.359 2.359 0 0 1-2.127 0L192.826 153.1a.649.649 0 0 1 0-1.229 2.351 2.351 0 0 1 2.123 0l109.734 63.357a.646.646 0 0 1 .001 1.221z" class="cls-16" transform="translate(-192.386 -151.614)"/>
                </g>
                <g id="Group_21251" transform="translate(29.476 48.531)">
                    <path id="Path_73282" d="M215.345 181.851a9.388 9.388 0 0 1-8.5 0l-19.467-11.239c-2.346-1.355-2.346-3.552 0-4.907a9.388 9.388 0 0 1 8.5 0l19.467 11.243c2.345 1.352 2.345 3.552 0 4.903z" class="cls-14" transform="translate(-185.622 -164.689)"/>
                </g>
                <g id="Group_21252" transform="translate(68.908 50.291)">
                    <path id="Path_73283" d="M225.969 182.325a9.411 9.411 0 0 1-8.5 0l-19.467-11.242c-2.346-1.355-2.346-3.548 0-4.9a9.388 9.388 0 0 1 8.5 0l19.467 11.239c2.345 1.351 2.345 3.548 0 4.903z" class="cls-14" transform="translate(-196.246 -165.163)"/>
                </g>
                <g id="Group_21253" transform="translate(44.627 15.26)">
                    <path id="Path_73284" d="M219.427 172.887a9.388 9.388 0 0 1-8.5 0l-19.468-11.242c-2.346-1.351-2.346-3.548 0-4.9a9.388 9.388 0 0 1 8.5 0l19.468 11.239c2.345 1.351 2.345 3.548 0 4.903z" class="cls-14" transform="translate(-189.704 -155.725)"/>
                </g>
                <g id="Group_21254" transform="translate(126.535 41.542)">
                    <path id="Path_73285" d="M241.5 179.968a9.388 9.388 0 0 1-8.5 0l-19.471-11.239c-2.346-1.355-2.346-3.552 0-4.907a9.388 9.388 0 0 1 8.5 0l19.471 11.243c2.344 1.351 2.344 3.548 0 4.903z" class="cls-14" transform="translate(-211.772 -162.806)"/>
                </g>
            </g>
        </g>
    </g>
</svg>
