<svg xmlns="http://www.w3.org/2000/svg" xmlns:xlink="http://www.w3.org/1999/xlink" width="685.475" height="428.494" viewBox="0 0 685.475 428.494">
    <defs>
        <linearGradient id="linear-gradient" x1=".651" x2=".144" y1="-.307" y2="2.381" gradientUnits="objectBoundingBox">
            <stop offset="0" stop-color="#fff"/>
            <stop offset="1" stop-color="#cfebf9"/>
        </linearGradient>
        <linearGradient id="linear-gradient-2" x1="76.568" x2="76.568" y1="-3.552" y2="7.285" gradientUnits="objectBoundingBox">
            <stop offset="0" stop-color="#0aeeea"/>
            <stop offset="1" stop-color="#4e78be"/>
        </linearGradient>
        <linearGradient id="linear-gradient-3" x1="79.465" x2="79.465" y1="-3.552" y2="7.285" xlink:href="#linear-gradient-2"/>
        <linearGradient id="linear-gradient-4" x1="82.354" x2="82.354" y1="-3.552" y2="7.285" xlink:href="#linear-gradient-2"/>
        <linearGradient id="linear-gradient-5" x1="-.207" x2="1.561" y2="1.206" gradientUnits="objectBoundingBox">
            <stop offset="0" stop-color="#0087ca"/>
            <stop offset="1" stop-color="#004465"/>
        </linearGradient>
        <linearGradient id="linear-gradient-6" x1=".084" x2=".5" y1="-.177" y2="1" gradientUnits="objectBoundingBox">
            <stop offset="0" stop-color="#134f6e"/>
            <stop offset="1" stop-color="#0a2837"/>
        </linearGradient>
        <linearGradient id="linear-gradient-7" x1=".5" x2="0" y2="1.038" gradientUnits="objectBoundingBox">
            <stop offset="0" stop-color="#155475"/>
            <stop offset="1" stop-color="#0b2a3b"/>
        </linearGradient>
        <linearGradient id="linear-gradient-8" x1=".5" x2="2.251" y1="0" y2="2.931" xlink:href="#linear-gradient-5"/>
        <linearGradient id="linear-gradient-10" x1=".5" x2=".5" y2="1" gradientUnits="objectBoundingBox">
            <stop offset="0" stop-color="#ef6500"/>
            <stop offset="1" stop-color="#783300"/>
        </linearGradient>
        <linearGradient id="linear-gradient-11" x2=".46" xlink:href="#linear-gradient-10"/>
        <style>
            .cls-6{fill:#9984f0}.cls-11{fill:#b0bfde}.cls-13{fill:#dda999}.cls-14{fill:#fec4ae}.cls-20{fill:#fff}.cls-23{fill:#bdc6cb}.cls-26{fill:#27b06c}.cls-27{isolation:isolate}.cls-28{fill:#bfbfbf}.cls-32{fill:#42495b}.cls-37{fill:#006190}.cls-42{fill:#073952}.cls-43{fill:#0087ca}
        </style>
    </defs>
    <g id="Group_21325" transform="translate(-610.601 -928.133)">
        <g id="Group_14620" transform="translate(610.601 998.645)">
            <g id="Group_14619">
                <path id="Path_68382" fill="#25a867" d="M1277.26 1281.021l61.531-257.613-6.2-3.948H958.805l-60.6 261.561z" transform="translate(-653.316 -1019.46)"/>
                <path id="Path_68383" fill="url(#linear-gradient)" d="M1269.8 1272.9l58.565-246.817h-364.19L906.459 1272.9z" transform="translate(-654.542 -1020.444)"/>
                <path id="Path_68384" fill="#0c8b4c" d="M837.334 1326.645a23.293 23.293 0 0 0 22.182 17.186h386.549a23.284 23.284 0 0 0 22.182-17.186z" transform="translate(-644.276 -1065.084)"/>
                <path id="Path_68385" fill="#35b977" d="M927.885 1326.645H610.6a23.272 23.272 0 0 0 22.159 17.176l316.455-.025a23.3 23.3 0 0 1-21.329-17.151z" transform="translate(-610.601 -1065.084)"/>
            </g>
        </g>
        <g id="Group_14621" transform="translate(840.957 1127.505)">
            <path id="Path_68386" fill="#e7deff" d="M881.137 1270.558l157.882.262c9.28-38.651 14.849-60.3 24.572-100.022H905.474c-9.356 39.202-14.732 60.727-24.337 99.76z" transform="translate(-881.137 -1170.798)"/>
            <path id="Path_68387" d="M905.589 1185.458l157.989.173c1.47-5.966 2.2-8.937 3.645-14.833H909.106c-1.389 5.819-2.094 8.755-3.517 14.66z" class="cls-6" transform="translate(-884.769 -1170.798)"/>
            <path id="Path_68388" d="M912.875 1206.72l96.475.2c.854-3.469 1.279-5.2 2.129-8.66l-96.51-.157c-.834 3.438-1.254 5.162-2.094 8.617z" class="cls-6" transform="translate(-885.851 -1174.853)"/>
            <path id="Path_68389" d="M1029.592 1226.268c38.59.078 29.377.2 33.124.2.854-3.469 6.149-24.749 7-28.208-5.389 0 5.445-.094-33.159-.157-.836 3.438-6.125 24.709-6.965 28.165z" class="cls-6" transform="translate(-903.186 -1174.853)"/>
            <path id="Path_68390" d="M909.447 1221.428l96.437.239 1.2-4.884-96.451-.224c-.472 1.946-.711 2.92-1.186 4.869z" class="cls-6" transform="translate(-885.342 -1177.595)"/>
            <path id="Path_68391" d="M907.241 1230.441c38.568.1 57.851.154 96.42.255.48-1.951.721-2.927 1.2-4.881l-96.43-.245-1.19 4.871z" class="cls-6" transform="translate(-885.014 -1178.933)"/>
            <path id="Path_68392" d="M905.032 1239.451l96.409.264 1.2-4.871-96.415-.259-1.194 4.866z" class="cls-6" transform="translate(-884.686 -1180.272)"/>
            <path id="Path_68393" d="M952.65 1248.578l53.98.148 1.194-4.854-53.979-.148-1.195 4.854z" class="cls-6" transform="translate(-891.758 -1181.629)"/>
            <path id="Path_68394" fill="url(#linear-gradient-2)" d="M1078.188 1179.324a2.172 2.172 0 0 0 2.2 2.834 3.889 3.889 0 0 0 3.589-2.829 2.169 2.169 0 0 0-2.2-2.829 3.881 3.881 0 0 0-3.589 2.824z" transform="translate(-910.391 -1171.645)"/>
            <path id="Path_68395" fill="url(#linear-gradient-3)" d="M1068.109 1179.318a2.174 2.174 0 0 0 2.2 2.834 3.887 3.887 0 0 0 3.588-2.829 2.168 2.168 0 0 0-2.2-2.825 3.876 3.876 0 0 0-3.588 2.82z" transform="translate(-908.894 -1171.645)"/>
            <path id="Path_68396" fill="url(#linear-gradient-4)" d="M1058.033 1179.312a2.173 2.173 0 0 0 2.2 2.831 3.883 3.883 0 0 0 3.586-2.827 2.17 2.17 0 0 0-2.2-2.824 3.876 3.876 0 0 0-3.586 2.82z" transform="translate(-907.398 -1171.644)"/>
        </g>
        <g id="Group_14625" transform="translate(939.308 1023.278)">
            <g id="Group_14624">
                <path id="Path_68397" fill="#319869" d="M996.777 1157.546q12.072-52.057 24.7-103.968c.706-2.869 3.232-5.188 5.639-5.188h175.016c2.408 0 3.8 2.445 3.1 5.427q-12.241 51.791-24.651 103.541c-.634 2.709-3.1 4.907-5.506 4.907H1000.06c-2.408 0-3.883-2.098-3.283-4.719z" transform="translate(-996.643 -1048.39)"/>
                <g id="Group_14622" transform="translate(39.323 11.681)">
                    <path id="Path_68398" d="M1103.437 1173.932c19.131-19.392 22.742-45.309 22.742-45.309-.294-4.491-19.609 3.4-28.376 25.2a45.425 45.425 0 0 1-7.852 12.662c-2.441 2.814-3.294 5.371-3.09 7.443z" class="cls-11" transform="translate(-1049.361 -1071.808)"/>
                    <path id="Path_68399" d="M1088.891 1177.94a4.868 4.868 0 0 0-1.889-1.647c-17.191-5.154-30.012-21.893-30.012-21.893l-5.569 1.906c1.144 9.406 4.22 16.313 8.331 21.635z" class="cls-11" transform="translate(-1044.102 -1075.816)"/>
                    <path id="Path_68400" fill="#d2dbea" d="M1168.654 1172.017c5.089-13.59 11.446-29.2 15.879-36.7.48-7.358.73-11.056 1.243-18.531 0 0-25.1-3.371-38.115-1.879s-26.59 13-28.435 15.114c-.945 1.082-2.033 21.89-2.171 42z" transform="translate(-1053.849 -1069.894)"/>
                    <path id="Path_68401" d="M1187.448 1166.031c-.278 2.932.439 5.008 1.685 6.383h10.882a13.43 13.43 0 0 0 5.644-8.556c5.3-26.21-9.971-46.363-9.971-46.363-3.444-2.794-16.836 14.875-9.737 35.016a31.736 31.736 0 0 1 1.497 13.52z" class="cls-11" transform="translate(-1063.779 -1070.292)"/>
                    <path id="Path_68402" d="M1159.568 1091c.136.261 3.872 21.574 3.872 21.574s1.351 4.737-5.241 7.2c-7.365 2.748-12.912 1.747-12.5-1.5s1.9-13.168 1.9-13.168c4.783-5.612 7.177-8.43 11.969-14.106z" class="cls-13" transform="translate(-1058.101 -1066.4)"/>
                    <path id="Path_68403" d="M1157.194 1073.448a15.923 15.923 0 0 0-12.495-2.479 7.745 7.745 0 0 0-5.129 2.866 8.2 8.2 0 0 0-1.086 3.313q-2.682 15.794-5.261 31.146a49.929 49.929 0 0 0 12.4-.908 5.93 5.93 0 0 0 2.894-1.189 6.4 6.4 0 0 0 1.317-1.894 176.882 176.882 0 0 0 8.757-19.507c1.011-2.676 1.968-5.588 1.232-7.966a6.866 6.866 0 0 0-2.629-3.382z" class="cls-14" transform="translate(-1056.251 -1063.376)"/>
                    <path id="Path_68404" fill="#1a1953" d="M1154.988 1087.048c.03.016.885-3.076.924-3.382a10.855 10.855 0 0 0-.173-3.857c-.437-1.855-.949-4.5-2.552-5.509-2.436-1.529-6.177-.153-9.332 1.385-5.1 2.488-8.836-1.647-7.061-6.766a11.82 11.82 0 0 1 6.991-6.81c-1.411 1.192-1.288 3.589.2 3.94 1.288.3 2.8-.7 4.229-1.119a4.553 4.553 0 0 1 3.512.3c.893.511 1.516 1.371 2.431 1.849 2.355 1.234 4.689-1.135 7.193-1.147a4.574 4.574 0 0 1 4.72 5.061 8.992 8.992 0 0 0-.1 2.057c.313 1.751 2.5 2.213 2.723 3.959a5.756 5.756 0 0 1-2.785 4.864c.82.214.972 1.35.468 2.21a4.152 4.152 0 0 1-2.379 1.71 19.4 19.4 0 0 1-2.754.466 3.531 3.531 0 0 0-1.35.438c-.8.5-1.024 1.584-1.792 1.8s-2.535-1.125-3.113-1.449z" transform="translate(-1056.715 -1062.109)"/>
                    <path id="Path_68405" d="M1165.014 1085.295c1.028.083 1.437 1.212 1.363 2.268a9.5 9.5 0 0 1-.664 2.612 11.412 11.412 0 0 1-2.152 3.771 5.207 5.207 0 0 1-3.758 1.859c-2.18-.288-1.511-2.439-.872-4.133a18.288 18.288 0 0 1 1.463-3.221c.935-1.518 2.872-3.299 4.62-3.156z" class="cls-14" transform="translate(-1059.977 -1065.551)"/>
                    <path id="Path_68406" d="M1187.054 1179.275h16.994a76.774 76.774 0 0 0 2.474-10.93c.111-.742-1.01-5.9-8.329-4.8-8.4 1.264-10.135 7.5-10.17 8.2a53.916 53.916 0 0 1-.969 7.53z" class="cls-11" transform="translate(-1064.246 -1077.152)"/>
                    <path id="Path_68407" d="M1047.547 1148.708l.195.312c1.043 1.677 1.866 4.87 4.41 4.955 2.21.074 4.246-2.292 5.19-4.128a14.307 14.307 0 0 0 1.357-3.915c.258-1.387.278-2.76.577-4.156a5.146 5.146 0 0 1 .886-1.731 6.773 6.773 0 0 0 1.046-1.662.338.338 0 0 0-.013-.286.289.289 0 0 0-.13-.093 2 2 0 0 0-1.419.191 5.651 5.651 0 0 0-2.631 2.312 7.7 7.7 0 0 0-.733 1.579 7.837 7.837 0 0 0-.225.811c-.026.117-.2.695-.129.764-3.437-3.122-6.137-5.563-9.562-8.724-1.258.7-3.066 1.007-3.12 1.369-.174 1.192.758 2.008 1.112 2.914.231.588.724.77.36 1.48a7.849 7.849 0 0 1-1.893 1.263q2.53 3.256 4.722 6.745z" class="cls-14" transform="translate(-1042.825 -1072.925)"/>
                </g>
                <g id="Group_14623" transform="translate(31.043 13.263)">
                    <path id="Path_68408" fill="#f4f2f3" d="M1063.277 1095.427h.023c0-.014 0-.022-.013-.036z" transform="translate(-1037.583 -1068.633)"/>
                    <path id="Path_68409" fill="#1fe582" d="M1063.317 1090.759l25.143.072c.086-.31.173-.62.248-.932 3.4-14.165-5.046-25.9-18.946-25.933h-.018c-2.606 10.755-3.9 16.123-6.456 26.757z" transform="translate(-1037.585 -1063.966)"/>
                    <path id="Path_68410" fill="#20d078" d="M1063.322 1095.433c5.55 6.837 8.333 10.235 13.92 16.961a33.861 33.861 0 0 0 11.223-16.889z" transform="translate(-1037.59 -1068.64)"/>
                    <path id="Path_68411" fill="#fff" d="M1058.8 1090.759l.009-.036c2.553-10.634 3.849-16 6.456-26.757-13.895-.026-27.992 11.568-31.41 25.785s5.188 25.546 19.1 25.546a31.721 31.721 0 0 0 19.8-7.576c-5.587-6.726-8.37-10.124-13.92-16.961z" opacity="0.68" transform="translate(-1033.101 -1063.966)"/>
                </g>
            </g>
        </g>
        <g id="Group_14630" transform="translate(1044.79 1095.678)">
            <g id="Group_14629">
                <path id="Path_68429" d="M1279.643 1243.252h-159.118c8.459-36.679 17.493-73.223 26.247-109.833h159.118c-8.673 36.629-17.29 73.272-26.247 109.833z" class="cls-20" transform="translate(-1120.525 -1133.419)"/>
                <path id="Path_68430" fill="#cacacb" d="M1273.326 1239.987l-139.267.429c5.851-25.109 9.407-39.55 16.116-67.317l139.156-.014c-6.474 27.309-9.676 40.863-16.005 66.902z" transform="translate(-1122.535 -1139.31)"/>
                <path id="Path_68431" d="M1239.454 1205.7c-2.164 9.04-11.2 16.271-20.213 16.319s-14.606-7.1-12.429-16.18 11.273-16.559 20.277-16.578 14.529 7.396 12.365 16.439z" class="cls-20" transform="translate(-1133.271 -1141.712)"/>
                <path id="Path_68432" fill="#95c11f" d="M1222.016 1199.947c4.384 2.963 6.579 4.438 10.972 7.373-5.81 2.978-8.714 4.465-14.519 7.428 1.406-5.874 2.118-8.841 3.547-14.801z" transform="translate(-1135.072 -1143.3)"/>
                <path id="Path_68433" d="M1174.841 1154.741c-1.112 4.633-5.687 8.406-10.209 8.4s-7.275-3.786-6.161-8.421 5.672-8.358 10.191-8.353 7.291 3.741 6.179 8.374z" class="cls-23" transform="translate(-1126.124 -1135.342)"/>
                <path id="Path_68434" d="M1285.833 1160.541l-99.649-.082 2.035-8.479 99.617.117-2.003 8.444z" class="cls-23" transform="translate(-1130.277 -1136.176)"/>
            </g>
        </g>
        <g id="Group_14641" transform="translate(1150.449 1033.902)">
            <g id="Group_14640" opacity="0.55">
                <path id="Path_68435" fill="#c7ffe3" d="M1341.258 1129.851h-96.644c6.212-26.141 10.007-41.81 16.408-68.984h96.644c-7.08 28.976-10.103 42.844-16.408 68.984z" transform="translate(-1244.614 -1060.867)"/>
                <path id="Path_68436" d="M1358.324 1068.687l-96.5-.388c.708-2.995 1.06-4.484 1.754-7.432h96.644c-.768 3.144-1.147 4.708-1.898 7.82z" class="cls-26" transform="translate(-1247.17 -1060.867)"/>
                <g id="Group_14633" class="cls-27" transform="translate(27.47 14.576)">
                    <g id="Group_14631">
                        <path id="Path_68437" d="M1289.13 1090.557l-12.255-.083c1.189-5 1.785-7.506 2.968-12.489l12.257.075-2.97 12.497zm-10.642-1.4l9.657.065 2.341-9.849-9.658-.061z" class="cls-26" transform="translate(-1276.875 -1077.985)"/>
                    </g>
                    <g id="Group_14632" transform="translate(4.243 3.087)">
                        <path id="Path_68438" d="M1283.942 1088.089l-2.084-3.294.589-.438c.679 1.073 1.018 1.61 1.7 2.684l5.279-5.432.427.4c-2.365 2.431-3.547 3.648-5.911 6.08z" class="cls-26" transform="translate(-1281.858 -1081.61)"/>
                    </g>
                    <path id="Path_68439" d="M1313.213 1082.439l-15.826-.106.453-1.9 15.826.1-.453 1.906z" class="cls-26" transform="translate(-1279.922 -1078.348)"/>
                    <path id="Path_68440" d="M1341.943 1086.8l-45.526-.314.354-1.49 45.527.312-.355 1.492z" class="cls-26" transform="translate(-1279.777 -1079.027)"/>
                    <path id="Path_68441" d="M1334.993 1090.748l-39.523-.272.354-1.49 39.522.273c-.146.596-.212.893-.353 1.489z" class="cls-26" transform="translate(-1279.637 -1079.619)"/>
                </g>
                <g id="Group_14636" class="cls-27" transform="translate(23.783 30.126)">
                    <g id="Group_14634">
                        <path id="Path_68442" d="M1284.813 1108.738l-12.268-.053 2.959-12.437 12.257.08-2.948 12.41zm-10.656-1.359l9.667.045 2.324-9.784-9.66-.061-2.331 9.801z" class="cls-26" transform="translate(-1272.545 -1096.248)"/>
                    </g>
                    <g id="Group_14635" transform="translate(4.235 3.084)">
                        <path id="Path_68443" d="M1279.609 1106.315c-.837-1.3-1.255-1.957-2.09-3.266l.588-.436 1.7 2.663c2.109-2.158 3.164-3.24 5.275-5.406l.427.4c-2.357 2.42-3.539 3.63-5.9 6.045z" class="cls-26" transform="translate(-1277.519 -1099.87)"/>
                    </g>
                    <path id="Path_68444" d="M1308.884 1100.681l-15.832-.094.45-1.895 15.83.1z" class="cls-26" transform="translate(-1275.591 -1096.611)"/>
                    <path id="Path_68445" d="M1337.649 1104.96l-45.56-.246.351-1.478 45.554.257c-.137.588-.207.881-.345 1.467z" class="cls-26" transform="translate(-1275.448 -1097.286)"/>
                    <path id="Path_68446" d="M1330.714 1108.847l-39.561-.186.349-1.473 39.556.2-.344 1.459z" class="cls-26" transform="translate(-1275.309 -1097.873)"/>
                </g>
                <g id="Group_14639" class="cls-27" transform="translate(20.161 45.587)">
                    <g id="Group_14637">
                        <path id="Path_68447" d="M1280.575 1126.6l-12.283-.014c1.146-4.812 1.729-7.256 2.9-12.182l12.272.044c-1.164 4.915-1.747 7.352-2.889 12.152zm-10.677-1.288l9.679.013c.9-3.8 1.36-5.715 2.279-9.58l-9.672-.032z" class="cls-26" transform="translate(-1268.292 -1114.406)"/>
                    </g>
                    <g id="Group_14638" transform="translate(4.205 3.007)">
                        <path id="Path_68448" d="M1275.342 1124.261c-.846-1.269-1.268-1.906-2.112-3.184l.588-.429c.687 1.042 1.03 1.563 1.719 2.6 2.1-2.114 3.151-3.177 5.254-5.309l.43.389c-2.353 2.382-3.529 3.572-5.879 5.933z" class="cls-26" transform="translate(-1273.23 -1117.938)"/>
                    </g>
                    <path id="Path_68449" d="M1304.623 1118.664l-15.852-.044.442-1.861c6.34.02 9.509.032 15.849.051z" class="cls-26" transform="translate(-1271.334 -1114.755)"/>
                    <path id="Path_68450" d="M1333.443 1122.759l-45.617-.094.344-1.447 45.612.108z" class="cls-26" transform="translate(-1271.193 -1115.418)"/>
                    <path id="Path_68451" d="M1326.518 1126.575l-39.608-.055.342-1.437 39.605.066-.339 1.426z" class="cls-26" transform="translate(-1271.057 -1115.992)"/>
                </g>
                <path id="Path_68452" d="M1359.529 1066.081l-1.9-.005.476-1.968h1.9l-.476 1.973z" class="cls-28" transform="translate(-1261.4 -1061.348)"/>
                <path id="Path_68453" d="M1363.347 1066.09l-1.9-.005.477-1.971h1.9l-.477 1.976z" class="cls-28" transform="translate(-1261.967 -1061.349)"/>
                <path id="Path_68454" d="M1367.165 1066.1l-1.9-.005.478-1.974h1.9l-.478 1.979z" class="cls-28" transform="translate(-1262.534 -1061.35)"/>
            </g>
        </g>
        <g id="Group_14644" transform="translate(1250.797 1217.051)">
            <path id="Path_68459" d="M1392.5 1275.966h-7.1l-.948 3.924a21.108 21.108 0 0 0-6.107 2.159c-.884-1.159-1.326-1.736-2.211-2.892-2.489 1.991-3.734 2.987-6.225 4.984.851 1.117 1.276 1.676 2.125 2.8a22.5 22.5 0 0 0-3.736 5.484l-4.111-.006-1.716 7.124 3.958.008a14.2 14.2 0 0 0 .82 5.627l-3.614 2.922c1.521 2.03 2.282 3.045 3.8 5.077l3.476-2.814a12.746 12.746 0 0 0 4.908 2.446l-1 4.151 7.1.017.964-4a20.915 20.915 0 0 0 6.117-2.182l2.2 2.943 6.243-5.058c-.849-1.132-1.273-1.7-2.123-2.828a22.754 22.754 0 0 0 3.741-5.529l4.115.008 1.713-7.138-3.96-.007a14 14 0 0 0-.828-5.6c1.442-1.162 2.164-1.743 3.607-2.9-1.526-2.008-2.29-3.01-3.817-5.008l-3.468 2.782a12.749 12.749 0 0 0-4.912-2.4c.389-1.648.589-2.46.989-4.094zm1.616 20.264c-1.406 5.856-7.278 10.611-13.1 10.6s-9.405-4.786-8-10.637 7.267-10.554 13.093-10.547 9.41 4.725 8.002 10.585z" class="cls-20" transform="translate(-1362.465 -1275.963)"/>
        </g>
        <g id="Group_14646" transform="translate(807.141 974.829)">
            <g id="Group_14645">
                <path id="Path_68461" fill="#e87e30" d="M908.433 1044.157l-63.217-.152a3.7 3.7 0 0 1-3.649-4.876c4.213-17.329 6.316-25.968 10.479-42.9a6.5 6.5 0 0 1 6-4.737l63.187.036a3.64 3.64 0 0 1 3.666 4.762c-4.151 17-6.246 25.664-10.451 43.013a6.549 6.549 0 0 1-6.015 4.854z" transform="translate(-841.423 -991.49)"/>
                <path id="Path_68462" fill="#f5a66b" d="M884.718 1021.4c-12.322-10.158-18.484-15.21-30.819-25.178a6.5 6.5 0 0 1 6-4.737l63.187.036a3.64 3.64 0 0 1 3.666 4.762c-16.802 9.989-25.209 15.017-42.034 25.117z" transform="translate(-843.276 -991.49)"/>
            </g>
        </g>
        <g id="Group_14656" transform="translate(646.583 950.043)">
            <path id="Path_68487" d="M828.048 1032.294c2.483-2.563-2.79-4.529-2.79-4.529-6.247 3.391-17.782 10.523-23.349 13.995a56.8 56.8 0 0 0-11.5 9.006c-3.548 2.655 2.519 6.2 3.344 10.408-.063-.283 3.915.024 8.035-3.271 1.426-1.149 18.357-17.409 26.26-25.609z" class="cls-14" transform="translate(-673.124 -972.092)"/>
            <path id="Union_11" fill="url(#linear-gradient-5)" stroke="rgba(0,0,0,0)" stroke-miterlimit="10" d="M36.521 49.467c-6.383-1.122-9.277-7.012-13.855-11.651C16.875 31.945 10.6 27.571 5.16 21.4 1.49 17.23-.919 8.667.335 6.362 2.1 3.111 8.785-1.181 10.275.3c5.635 5.615 17.187 17.331 23.311 25.167 1.481 1.895 3.124 3.653 4.639 5.471 4.3-2.649 8.581-4.97 8.92-5.123l10.184 12.363c-1.564 2.051-14 9.588-15.315 10.484a6.177 6.177 0 0 1-3.53 1.063 7.869 7.869 0 0 1-1.963-.258z" transform="translate(75.966 46.321)"/>
            <path id="Path_68482" d="M748.44 1323.856a1.083 1.083 0 0 0 .334.755h29.3a1.125 1.125 0 0 0 .141-.375 6.008 6.008 0 0 0-.027-2.346c-.334-.48-1.874-.416-2.442-.581a80.124 80.124 0 0 1-12.391-4.8c-1.308-.806-7.765-3.557-7.765-3.557-1.815-.082-.009.883-1.81.883-1.454 0-4.115-1.143-4.82.645-.493 1.253.055 3.823-.068 5.1a40.494 40.494 0 0 0-.452 4.276z" class="cls-32" transform="translate(-667.055 -1014.448)"/>
            <path id="Path_68483" d="M656.485 1307.051c1.517-2.387 5 .384 6.978 1.1.324 1.609 1.947 3.557 3.036 4.755a23.648 23.648 0 0 0 4.083 3.385c1.24.859 3.137 1.929 4.052 3.379a5.214 5.214 0 0 1 .032 3.018c-.859.764-5.267.8-6.886.8-2.415 0-6.2.168-8.569-1.673-1.481-1.144-4.847-4-6.154-5.308-1.146-1.148 3.08-8.921 3.428-9.456z" class="cls-32" transform="translate(-652.859 -1013.431)"/>
            <path id="Union_14" fill="url(#linear-gradient-6)" stroke="rgba(0,0,0,0)" stroke-miterlimit="10" d="M21.943 160.7a111.5 111.5 0 0 1-6.7-23.546A145.842 145.842 0 0 1 13.785 99.5c.268-3.175.168-6.561 1.194-9.577a6.289 6.289 0 0 1-.317-.692c-.8-2.108-1.366-4.35-2-6.5a356.267 356.267 0 0 1-9.085-37.5C.88 30.462-1.125 15.011.708 0c0 0 31 .048 32.893 0 0 0 .057 27.308.092 40.139.02 10.225-.364 20.7-.342 30.919.011 4.188-.171 9.385-.472 14.366a81.51 81.51 0 0 1 .283 8.764q.023 6.021.039 12.051.028 11.262.054 22.533.033 16.062.074 32.136c0 1.977 0 3.941.019 5.918l-7.448 1.955h-.02c-.648.003-3.732-7.591-3.937-8.081z" transform="translate(56.096 132.081)"/>
            <path id="Union_13" fill="url(#linear-gradient-7)" stroke="rgba(0,0,0,0)" stroke-miterlimit="10" d="M0 164.081c2.668-11.286 5.829-22.471 9.277-33.545 4.677-14.959 9.488-34.566 20.458-46.39q.448-.483.937-.956c.183-6.339 1.172-12.792 1.876-19.058a349.9 349.9 0 0 1 5.678-35.909c2.028-9.182 4.252-20.3 10.416-27.756.147-.182.313-.3.467-.467l32.042 2.81 4.29-.17c-.918 1.491-29.93 80.984-29.93 80.984l-.343.739a15.3 15.3 0 0 1-1.56 3.389c-.065.143-.13.283-.2.425a19.2 19.2 0 0 1-1.573 2.451c-.037.063-.074.123-.11.186-3.825 6.539-7.568 13.122-11.35 19.686q-13.115 22.765-26.242 45.517c-1.714 2.972-3.417 5.934-5.134 8.905z" transform="translate(2.702 129.914)"/>
            <path id="Path_68490" fill="url(#linear-gradient-8)" d="M749.646 1103.871l-41.959-.508c-2.282-3.155-16.7-84.263-10.286-85.717 11.165-2.543 46.914-1.847 46.914-1.847 10.885 13.913 5.331 85.277 5.331 88.072z" transform="translate(-659.233 -970.302)"/>
            <path id="Path_68491" d="M671.457 1144.51c.433-2.815 2.277-6.2 3.516-8.318.66-1.116 1.4-2.476 2.834-2.582.977-.082 2.1.729 2.873 1.241a15.2 15.2 0 0 1 2.8 1.985c1.839 1.848 2.728 4.437 3.74 6.789.823 1.943 1.217 4.268 3.421 5.046a1.9 1.9 0 0 1-1.549 1.086c-2.03.447-2.258-1.186-3.055-2.606-1.568-2.767-3.329-1.529-4.305.712-1.189 2.679-2.221 5.455-3.225 8.208-1.04 2.841-1.372 1.6-2.4-.5-.588-1.206-1.154-2.314-1.819-3.52-.979-1.787-2.764-3.9-2.909-6a6.64 6.64 0 0 1 .078-1.541z" class="cls-14" transform="translate(-655.607 -987.812)"/>
            <path id="Path_68492" d="M675.285 1130.059c.593 3.519 5.3.432 5.3.432.971-7.042 2.061-20.564 2.564-27.1a56.6 56.6 0 0 0-.448-14.609c-.032-4.429-6.492-1.646-10.358-3.471.261.117-2.345 3.14-2.133 8.409.083 1.843 3.149 25.114 5.075 36.339z" class="cls-14" transform="translate(-655.434 -980.64)"/>
            <path id="Union_12" fill="url(#linear-gradient-8)" stroke="rgba(0,0,0,0)" stroke-miterlimit="10" d="M.671 52.232A5.787 5.787 0 0 1 .837 50.8a11.137 11.137 0 0 1 .355-4.551c1.149-4.3 3.658-8.541 5.485-12.562 3.175-7.008 6.4-13.994 9.629-20.97 1.632-3.523 3.056-7.292 4.957-10.668 3.12-5.527 8.211 1.571 10.131 4.665 2.22 3.581 4.24 9.472 2.563 13.618-1.59 3.965-4.4 7.709-6.6 11.39-1.939 3.244-3.542 6.61-5.283 9.888a103.742 103.742 0 0 1-5.373 9.519c.407 5.643-.625 15.885-.726 16.42L.274 69.122c-.799-2.333.403-15.373.397-16.89z" transform="translate(13.284 47.602)"/>
            <path id="Path_68495" d="M720.54 1017.729l7.306-2.332 4.824 3.635 2.25-3.781-3.827-22.195-14.376 2.479z" class="cls-13" transform="translate(-662.343 -966.937)"/>
            <path id="Path_68496" d="M733.675 999.908c-.474 2.081-7.124 2.449-11 .828-5.768-2.407-8.049-3.714-9.909-13.246-1.136-5.8-2.383-12.368 2.949-16.247 3.308-2.414 16.186-4.4 20.007-2.24 2.45 1.387-.522 24.051-2.047 30.905z" class="cls-14" transform="translate(-661.609 -963.227)"/>
            <path id="Path_68497" d="M706.208 971.613c.524-3.8 5.749-8.6 9.613-6.139 3.648-4.937 10.241-3.012 14.822-.748 2.443 1.206 4.561 2.331 6.109 4.585 1.959 2.883 1.631 5.307 2.26 8.557-.825-1.813-3.378-2.121-5.125-2.422 1.477.47 4.868 1.917 3.924 3.964-2.3-1.649-18.338-5.673-18.338-5.673-1.212.848-1.654 4.333-1.586 6.291a41.121 41.121 0 0 1 .186 5.062l-1.449-.194c-.077-1.068-.038-2.758-.875-3.524-1.359-1.257-2.368.356-2.771 1.771a13.155 13.155 0 0 0-.215 6.458c-2.228-1.031-2.341-4.7-2.774-6.076-.5-1.591-1.872-6.416-2.565-8.2-.535-1.363-1.432-2.117-1.216-3.712z" class="cls-32" transform="translate(-660.778 -962.382)"/>
            <path id="Path_68498" d="M727.941 1016.778l-9.241-3.155-4.609 2.286c1.779.677 9.406 11.523 9.406 11.523l3.735-7.838 5.048 2.492z" class="cls-37" transform="translate(-661.953 -969.992)"/>
            <path id="Path_68499" d="M743.275 1015.7l-5.309-4.783-1.3.443.4 2.391-1.418 7.59 2.2-3.512 4.266 5.478z" class="cls-37" transform="translate(-665.156 -969.59)"/>
            <path id="Path_68500" d="M677.582 1151.01c-.719-1.469-2.233-4.94-2.888-5.1-1.179-.282-2.4.018-2.648.6-1.222 2.851 3.227 10.712 4.527 13.026a14.946 14.946 0 0 0 4.141.022c1.427-.185-2.242-6.722-3.132-8.548z" class="cls-14" transform="translate(-655.678 -989.624)"/>
            <path id="Path_68501" d="M832.071 1033.739a5.387 5.387 0 0 1-2.014-2.2c-.717-1.86.653-4.091 2.423-4.785a9.086 9.086 0 0 1 3.3-.421 61.744 61.744 0 0 1 9.789.586c1.573.239 7.818 1.071 9.324 1.375-.029.475-.046 1.059-.075 1.534-1.251.044-7.655.387-8.261.472-.45 1.231-1.159 5.082-1.409 5.672-.573 1.359-1.912 1.323-3.151 1.729a6.756 6.756 0 0 1-2.4.473 6.593 6.593 0 0 1-3.238-1.4q-2.172-1.469-4.288-3.035z" class="cls-14" transform="translate(-679.148 -971.88)"/>
        </g>
        <g id="Group_14657" transform="translate(1084.734 1100.937)">
            <path id="Path_68502" fill="url(#linear-gradient-10)" d="M1189.668 1196.78l-21.139 61.478a5.211 5.211 0 0 0 4.622 6.9l3.721.219a8.3 8.3 0 0 0 8.2-5.211l11.22-28.131z" transform="translate(-1167.555 -1148.088)"/>
            <path id="Path_68503" d="M1208.182 1147.259a9.49 9.49 0 0 0 .244 8.895 2.6 2.6 0 0 0-1.058 2.392 3.975 3.975 0 0 0-2.707 2.554 7.6 7.6 0 0 0 1.3 7.8 2.708 2.708 0 0 0-1.436 2.782 6.771 6.771 0 0 0-2.855 10.54 2.854 2.854 0 0 0-1.56 2.161 4.083 4.083 0 0 0 .577 2.662.985.985 0 0 0 .329.376 1.055 1.055 0 0 0 .571.087 21.5 21.5 0 0 0 5.088-.824 24.179 24.179 0 0 1 4.088-.663c2.662-.333 5.154-.945 7.815-.753 3.154.228 6.537-.358 9.7-.494q9.915-.424 19.843-.309c-.191-1.206-.655-2.692-1.866-2.84a10.224 10.224 0 0 0 .248-5.8c-.61-1.867-2.441-3.458-4.386-3.19a4.132 4.132 0 0 0 .073-1.9 1.418 1.418 0 0 0-1.374-1.108 2.642 2.642 0 0 0-1.525-3.059 10.208 10.208 0 0 0 1.627-8.172 6.231 6.231 0 0 0-1.442-2.905 3.556 3.556 0 0 0-2.942-1.16 2.068 2.068 0 0 0-.621-1.751 2.376 2.376 0 0 1-.552-.569 1.7 1.7 0 0 1-.1-.857c.152-4.092-3.605-7.673-7.608-7.9-.076 0-.774-1.2-.9-1.345a6.559 6.559 0 0 0-1.462-1.218 7.5 7.5 0 0 0-3.506-1.092 6.688 6.688 0 0 0-3.556.746c-1.2.648-1.948 1.8-3.073 2.463a8.031 8.031 0 0 1-2.327.525 8.868 8.868 0 0 0-4.647 3.926z" class="cls-32" transform="translate(-1172.282 -1139.595)"/>
            <path id="Path_68504" fill="url(#linear-gradient-11)" d="M1218 1182.594l-24.929 11.686-.584 31.162 8.18 17.334-9.414 45.964 59.192.195-7.32-47.717 12.854-41.874-1.948-6.037-27.656-13.438z" transform="translate(-1170.972 -1145.576)"/>
            <path id="Path_68505" fill="#efa78b" d="M1222.135 1180.893c.119-.03.008 1.006-.056 1.136q-3.462 1.673-6.9 3.4a8.452 8.452 0 0 0 4.124 5.094 13.53 13.53 0 0 0 11.038 1.657 9.922 9.922 0 0 0 6.931-8.345 1.951 1.951 0 0 0-.04-.553s-4.473-2.227-6.482-3.177c-.56-.265-.822-.914-1-1.023-1.115-.669-3.35.748-4.612 1.063z" transform="translate(-1174.527 -1145.432)"/>
            <path id="Path_68506" d="M1234.48 1163.454c-.358 3.3-1.048 6.676-2.933 9.439s-5.2 4.8-8.57 4.408a9.648 9.648 0 0 1-6.688-4.573 24.853 24.853 0 0 1-2.9-7.7c-1.058-4.307-1.951-8.755-1.328-13.142a25.32 25.32 0 0 1 19.014-4.681 3.215 3.215 0 0 1 3.326 3.417 56.381 56.381 0 0 1 .079 12.832z" class="cls-14" transform="translate(-1174.032 -1140.678)"/>
            <path id="Union_15" fill="url(#linear-gradient-10)" stroke="rgba(0,0,0,0)" stroke-miterlimit="10" d="M0 64.176q1.763-1.414 3.522-2.822 5.2-4.183 10.406-8.354 2.433-1.951 4.868-3.91a26.725 26.725 0 0 1 2.924-2.174l-7.549-20.428L21.182 0 32 32.237q1.651 4.934 3.308 9.863c1.081 3.218 3.226 7.815 2.275 11.477a5.264 5.264 0 0 1-.77 1.811c-.725 1.091-16.851 8.3-20.616 9.688l-13.42 4.943z" transform="translate(61.921 48.313)"/>
            <path id="Path_68508" d="M1257.031 1302.569l-.05-.111-13.823-30.719h-47.279l-16.449 30.646 40.482.1-2.892 15.869 22.957.31a11.733 11.733 0 0 0 9.451-4.567z" class="cls-42" transform="translate(-1169.217 -1159.221)"/>
            <path id="Path_68510" d="M1275.413 1371.333l1.242 20.085 15.045-8.545-12.124-14.242z" class="cls-43" transform="translate(-1183.472 -1173.611)"/>
            <path id="Path_68511" fill="#1d1d1b" d="M1224.056 1209.292l-12.929.788 1.378 24.415 11.813-2.494z" transform="translate(-1173.925 -1149.946)"/>
            <path id="Path_68512" d="M1214.673 1418.327l-9.4 17.79 17.294.545-2.929-18.473z" class="cls-43" transform="translate(-1173.055 -1180.972)"/>
            <path id="Path_68513" fill="#052a3c" d="M1179.431 1301.845l38.8-34.721 18.753 16.316-30.821 34.181-9.886-.1a9.764 9.764 0 0 1-7.616-3.778z" transform="translate(-1169.217 -1158.536)"/>
            <path id="Path_68514" d="M1214.609 1401.442h6.342l12.849-86.942s.983-6.632-3.562-10.193a10.916 10.916 0 0 0-10.817-1.957c-8.874 3.115-8.714 13.149-8.714 13.149z" class="cls-42" transform="translate(-1173.863 -1163.668)"/>
            <path id="Path_68515" d="M1266.626 1356.3l5.55-3.067-31.265-83.629s-8.474-11.176-17.814-1.969c-6.7 6.6-1.461 15.338-1.461 15.338z" class="cls-42" transform="translate(-1175.196 -1158.072)"/>
            <path id="Path_68516" d="M1209.521 1237.786l-.584-10.517 2.483-3.214.292 2.629 12.854-7.3.438 9.056-11.831 12.56z" class="cls-14" transform="translate(-1173.599 -1151.445)"/>
            <path id="Path_68517" fill="#ef6500" d="M1176.919 1254.656l26.634-14.632 4.09 3.7-21.74 23.931c-7.815 6.865-13.906 4.773-13.906 4.773a4.61 4.61 0 0 1-4.3-6.135s.311-6.452 9.222-11.637z" transform="translate(-1167.435 -1154.511)"/>
            <path id="Path_68518" d="M1217.653 1152.615c7.03 5.686 18.67 7.657 19.14 3.747a4.162 4.162 0 0 0-.251-1.65c-.57-1.928-1.147-4.693-2.218-6.393-2.739-4.348-7.862-4.237-12.562-3.311a26.457 26.457 0 0 0-7.45 3.068 8.924 8.924 0 0 0-3.455 7.4c.051.61.2 1.208.238 1.819a6.548 6.548 0 0 1-.184 1.895 3.063 3.063 0 0 0-.119 1.732c.73 1.978 8.048-4.373 6.861-8.307z" class="cls-32" transform="translate(-1173.862 -1140.322)"/>
            <path id="Path_68519" d="M1238.682 1160.583a1.172 1.172 0 0 1 .709.112 1.213 1.213 0 0 1 .48.647 4.918 4.918 0 0 1 .232 1.878 16.511 16.511 0 0 1-.134 1.7 2.72 2.72 0 0 1-.458 1.361 2.449 2.449 0 0 1-1.3.744 1.4 1.4 0 0 1-.544.069c-1.4-.175-1.315-2.7-1.331-3.716a2.723 2.723 0 0 1 .14-1.059 3.058 3.058 0 0 1 1.217-1.252c.282-.194.607-.517.989-.484z" class="cls-14" transform="translate(-1177.668 -1142.71)"/>
        </g>
        <g id="Group_14658" transform="translate(977.213 937.312)">
            <circle id="Ellipse_2847" cx="16.278" cy="16.278" r="16.278" class="cls-6" transform="rotate(-76.717 20.018 15.842)"/>
            <path id="Path_68520" d="M1242.652 900.47l12.719 7.344-12.719 7.344z" class="cls-20" transform="translate(-1227.756 -888.231)"/>
        </g>
        <g id="Group_14661" transform="translate(1068.722 928.133)">
            <circle id="Ellipse_2848" cx="28.287" cy="28.287" r="28.287" fill="#1cd378"/>
            <g id="Group_14660" transform="translate(10.757 13.578)">
                <path id="Path_68521" d="M1323.085 942a6.547 6.547 0 0 1-6.562 6.562h-10.412v-9.8a.683.683 0 0 0-.678-.677.691.691 0 0 0-.709.677v9.8H1293.7a11.61 11.61 0 0 1 4.745-17.928 6.024 6.024 0 0 1 3.235.924 8.2 8.2 0 0 1 15.371 3.913 6.55 6.55 0 0 1 6.034 6.529z" class="cls-20" transform="translate(-1287.537 -927.341)"/>
                <g id="Group_14659" transform="translate(13.449 21.224)">
                    <path id="Path_68522" d="M1309.11 952.267v7.948a.584.584 0 0 1-.062.247.67.67 0 0 1-.616.431.643.643 0 0 1-.616-.4.428.428 0 0 1-.093-.278v-7.948z" class="cls-20" transform="translate(-1303.984 -952.267)"/>
                    <path id="Path_68523" d="M1311.648 956.317a.692.692 0 0 1 .975-.1.692.692 0 0 1 .1.974l-3.745 4.57a.694.694 0 0 1-.975.1.694.694 0 0 1-.1-.975z" class="cls-20" transform="translate(-1303.987 -952.83)"/>
                    <path id="Path_68524" d="M1304.563 956.317a.692.692 0 0 0-.974-.1.693.693 0 0 0-.1.974l3.746 4.57a.693.693 0 0 0 .974.1.694.694 0 0 0 .1-.975z" class="cls-20" transform="translate(-1303.331 -952.83)"/>
                </g>
            </g>
        </g>
    </g>
</svg>
