<svg xmlns="http://www.w3.org/2000/svg" xmlns:xlink="http://www.w3.org/1999/xlink" id="csmart_logo_whitecloud" width="140.43" height="67.202" viewBox="0 0 140.43 67.202">
    <defs>
        <linearGradient id="linear-gradient" x2="1.001" y1=".295" y2=".295" gradientUnits="objectBoundingBox">
            <stop offset="0" stop-color="#637080"/>
            <stop offset="1" stop-color="#3d5166"/>
        </linearGradient>
        <linearGradient id="linear-gradient-2" x1="0" x2="1" y1=".296" y2=".296" xlink:href="#linear-gradient"/>
        <linearGradient id="linear-gradient-3" x1="0" x2="1" y1=".297" y2=".297" xlink:href="#linear-gradient"/>
        <linearGradient id="linear-gradient-5" x2="1" y1="3.742" y2="3.742" gradientUnits="objectBoundingBox">
            <stop offset="0" stop-color="#eb1f27"/>
            <stop offset=".222" stop-color="#e82028"/>
            <stop offset=".376" stop-color="#df222b"/>
            <stop offset=".509" stop-color="#d02731"/>
            <stop offset=".631" stop-color="#ba2d39"/>
            <stop offset=".744" stop-color="#9e3543"/>
            <stop offset=".851" stop-color="#7b3f4f"/>
            <stop offset=".952" stop-color="#534b5e"/>
            <stop offset="1" stop-color="#3d5166"/>
        </linearGradient>
        <linearGradient id="linear-gradient-6" x1="0" x2="1" y1="2.727" y2="2.727" xlink:href="#linear-gradient-5"/>
        <linearGradient id="linear-gradient-7" x2="1" y1=".494" y2=".494" gradientUnits="objectBoundingBox">
            <stop offset="0" stop-color="#eb1f27"/>
            <stop offset=".259" stop-color="#e82029"/>
            <stop offset=".437" stop-color="#df242e"/>
            <stop offset=".592" stop-color="#d02b36"/>
            <stop offset=".733" stop-color="#ba3442"/>
            <stop offset=".865" stop-color="#9e4151"/>
            <stop offset=".988" stop-color="#7c4f64"/>
            <stop offset="1" stop-color="#785166"/>
        </linearGradient>
        <linearGradient id="linear-gradient-8" x2="1" y1="2.434" y2="2.434" gradientUnits="objectBoundingBox">
            <stop offset="0" stop-color="#27a8e0"/>
            <stop offset=".348" stop-color="#26a5de"/>
            <stop offset=".588" stop-color="#249cd7"/>
            <stop offset=".795" stop-color="#208dcc"/>
            <stop offset=".984" stop-color="#1b77bd"/>
            <stop offset="1" stop-color="#1a75bb"/>
        </linearGradient>
        <linearGradient id="linear-gradient-9" x1=".003" x2="1" y1="10.098" y2="10.098" xlink:href="#linear-gradient-5"/>
        <style>
            .cls-4{fill:#eb1f27}.cls-5{fill:url(#linear-gradient-2)}.cls-9{fill:#0a85c7}
        </style>
    </defs>
    <path id="Path_8133" fill="#fff" d="M140.959 307.465l-5.949 6.649-15.032-4.58L99.88 309l-13.967 14L85 344.877l10.5 16.888 29.851 6.131 52.049-.015 24.754-5.964 12.172-13.389 3.347-14.91-6.849-15.218-12.6-8.87-12.75-1.476-10.848 1.476-12.975-5.23-13.221 1.324z" transform="translate(-80.131 -300.694)"/>
    <g id="Group_4250">
        <path id="Path_8134" fill="#0b86c8" d="M138.48 508.162a.671.671 0 0 1 .4-.106h7.014l1.841-3.956H140a5.159 5.159 0 0 0-1.385.182 5.99 5.99 0 0 0-1.2.472 6.9 6.9 0 0 0-1.05.685 10.7 10.7 0 0 0-.852.791 8.044 8.044 0 0 0-.669.837 5.869 5.869 0 0 0-.472.822l-1.521 3.256a4.119 4.119 0 0 0-.472 1.948 2.473 2.473 0 0 0 1.7 2.313 3.672 3.672 0 0 0 1.263.213h7.014l1.841-3.956h-7.486l1.445-3.1a1.5 1.5 0 0 1 .324-.401z" transform="translate(-120.299 -470.095)"/>
        <g id="Group_4241" transform="translate(23.993 28.076)">
            <path id="Path_8135" fill="url(#linear-gradient)" d="M226.964 482.61a8.336 8.336 0 0 0 1.369-.974 9.2 9.2 0 0 0 1.232-1.308 8.448 8.448 0 0 0 1.019-1.689 6.621 6.621 0 0 0 .563-1.75 3.89 3.89 0 0 0-.03-1.521 3.142 3.142 0 0 0-.578-1.248 3.4 3.4 0 0 0-.928-.822 3.568 3.568 0 0 0-1.111-.456 5.581 5.581 0 0 0-1.156-.152h-6.512a.628.628 0 0 1-.183-.015 2.048 2.048 0 0 1 .137-.426 2.186 2.186 0 0 1 .761-.928 1.535 1.535 0 0 1 .943-.319h10.224l2.191-4.7h-11.09a7.285 7.285 0 0 0-1.841.274 8.13 8.13 0 0 0-2.069.9 9.589 9.589 0 0 0-1.993 1.582 8.36 8.36 0 0 0-1.628 2.4 5.583 5.583 0 0 0-.639 2.586 3.31 3.31 0 0 0 .669 1.963 3.445 3.445 0 0 0 1.521 1.1 5.01 5.01 0 0 0 1.689.3h6.512a.623.623 0 0 1 .183.015v.03a.947.947 0 0 1-.137.411 2.223 2.223 0 0 1-.745.913 1.551 1.551 0 0 1-.943.3h-11.5l-2.191 4.7h12.369a7.148 7.148 0 0 0 1.2-.122 7.99 7.99 0 0 0 1.324-.38 14.169 14.169 0 0 0 1.368-.664z" transform="translate(-210.7 -466.122)"/>
            <g id="Group_4240" transform="translate(18.303)">
                <path id="Path_8136" d="M358.143 466.36a1.706 1.706 0 0 0-1.156-1.141 2.513 2.513 0 0 0-1.491.061 3.4 3.4 0 0 0-1.308.806l-10.288 9.875-1.019-9.311a1.709 1.709 0 0 0-.289-.791 1.669 1.669 0 0 0-.639-.532 1.847 1.847 0 0 0-.73-.183 2.7 2.7 0 0 0-.761.061 3.457 3.457 0 0 0-1.369.7 3.556 3.556 0 0 0-.943 1.2L331 482.838h4.732l3.1-6.771.563 5.447a1.62 1.62 0 0 0 .654 1.187 1.964 1.964 0 0 0 1.156.35 2.926 2.926 0 0 0 1.156-.244 3.365 3.365 0 0 0 1.034-.7l5.508-5.325-2.678 5.995h4.808l6.923-14.865a2.1 2.1 0 0 0 .187-1.552z" class="cls-4" transform="translate(-331 -465.133)"/>
            </g>
            <path id="Path_8137" d="M497.354 468.141a1.789 1.789 0 0 0-.2-.943 1.561 1.561 0 0 0-.715-.685 2.08 2.08 0 0 0-.928-.213h-6.375a11.55 11.55 0 0 0-3.682.624 14.542 14.542 0 0 0-3.439 1.719 15.156 15.156 0 0 0-2.967 2.632 14.194 14.194 0 0 0-2.191 3.362l-4.26 9.129h4.884l1.78-3.834h7.881l-1.78 3.834h4.884l6.862-14.712a2.337 2.337 0 0 0 .246-.913zm-6.025 2.845l-1.978 4.245h-7.881a7.032 7.032 0 0 1 1.05-1.613 7.806 7.806 0 0 1 1.339-1.247 7.1 7.1 0 0 1 1.339-.761 7.98 7.98 0 0 1 1.232-.426 5.379 5.379 0 0 1 .913-.167c.243-.015.411-.031.487-.031z" class="cls-5" transform="translate(-432.753 -466.122)"/>
            <path id="Path_8138" fill="url(#linear-gradient-3)" d="M622.4 466.717a3.316 3.316 0 0 0-1.978-.517h-10.744a2.844 2.844 0 0 0-.928.167 3.518 3.518 0 0 0-.822.426 4.276 4.276 0 0 0-.685.609 3.632 3.632 0 0 0-.517.776l-7.227 15.5h4.884l2.373-5.1h2.084l3.515 5.1H619l-3.667-5.295a9.987 9.987 0 0 0 1.217-.365 11.2 11.2 0 0 0 1.567-.745 10.3 10.3 0 0 0 1.552-1.1 9.9 9.9 0 0 0 2.556-3.393l.837-1.811a5.844 5.844 0 0 0 .426-1.354 3.122 3.122 0 0 0-.107-1.552 2.371 2.371 0 0 0-.981-1.346zm-4.154 4.184l-.5 1.08a3.429 3.429 0 0 1-.487.761 2.861 2.861 0 0 1-.654.563 3.67 3.67 0 0 1-.776.38 3.409 3.409 0 0 1-.776.167h-6.055l1.384-2.967h7.866z" transform="translate(-540.346 -466.038)"/>
            <path id="Path_8139" d="M762.191 466.3L760 470.986h6.238l-5.949 12.78h4.884l5.964-12.78h6.223l2.191-4.686z" class="cls-5" transform="translate(-676.427 -466.122)"/>
        </g>
        <path id="Path_8140" fill="url(#linear-gradient-5)" d="M443.061 297.2c3.286-7.029 9.829-10.422 18.242-10.422A21.068 21.068 0 0 1 472.547 290a32.069 32.069 0 0 1 6.071-3.3 27.465 27.465 0 0 0-17.314-6.1c-9.965 0-13.845 3.651-18.014 9.631-.715 1.035.167 2.389-.533 3.515 1.582 1.521-.957 1.566.304 3.454z" transform="translate(-383.405 -280.6)"/>
        <path id="Path_8141" fill="url(#linear-gradient-6)" d="M412.7 294.492a28.846 28.846 0 0 1 8.6-5.492l-7.151 15.732 2.221 2.51-10.87 2.784z" transform="translate(-351.869 -287.722)"/>
        <path id="Path_8142" d="M101.017 361.7H84.8a25.606 25.606 0 1 1 19.642-41.962 26.2 26.2 0 0 1 2.784-6.162A31.791 31.791 0 1 0 84.8 367.9h13.417z" class="cls-9" transform="translate(-53 -300.694)"/>
        <path id="Path_8143" fill="url(#linear-gradient-7)" d="M424.793 304.3a32.929 32.929 0 0 0-12.643 2.5 26.471 26.471 0 0 1 4.686 4.9 26.935 26.935 0 0 1 7.957-1.2c14.469 0 26.23 11.487 26.23 25.606s-11.776 25.594-26.23 25.594h-57.876l-2.617 6.177h61.512v-.031c17.5-.517 31.555-14.575 31.555-31.768 0-17.522-14.606-31.778-32.574-31.778z" transform="translate(-316.937 -300.694)"/>
        <path id="Path_8144" fill="url(#linear-gradient-8)" d="M351.891 349.045a24.418 24.418 0 0 0-4.26-3.545l-3.515 7.44-3.317.015 4.884 9.813 3.864-8.566z" transform="translate(-297.013 -335.626)"/>
        <path id="Path_8145" fill="url(#linear-gradient-9)" d="M638.806 324.062c.183.122.365.228.533.35a11.917 11.917 0 0 0 6.283 1.78 12.291 12.291 0 0 0 3.849-.624c-.411-.563-.852-1.1-1.308-1.613a.334.334 0 0 1-.046-.076c-.122-.137-.259-.274-.38-.4-.213-.228-.426-.472-.654-.685-.182-.2-.38-.38-.578-.563l-.685-.639c-.076-.076-.152-.152-.243-.228-.046-.046-.107-.076-.152-.122-.213-.183-.411-.365-.639-.548-.274.107-.532.228-.791.35a.74.74 0 0 0-.167.061c-.107.046-.213.107-.32.152-.289.137-.563.274-.837.411-.244.122-.5.243-.746.38-.274.152-.548.3-.806.456-.152.091-.32.167-.472.259a.212.212 0 0 0-.061.046c-.639.38-1.278.776-1.887 1.2a.119.119 0 0 1 .107.053z" transform="translate(-549.589 -314.599)"/>
        <g id="Group_4243" transform="translate(57.404 49.447)">
            <g id="Group_4242">
                <path id="Path_8146" d="M430.3 609.406l1.871-3.606h1.08l-.624 2.449 1.917-2.449h1.1l-1.871 3.606h-.673l1.476-2.83-2.191 2.83h-.7l.761-2.83-1.476 2.83z" class="cls-9" transform="translate(-430.3 -605.769)"/>
                <path id="Path_8147" d="M462.8 607.471a4.958 4.958 0 0 1 .639-.928 3.615 3.615 0 0 1 .593-.487 2.093 2.093 0 0 1 .639-.319 2.694 2.694 0 0 1 .852-.137 1.011 1.011 0 0 1 1.019.487 1.6 1.6 0 0 1-.228 1.369 3.735 3.735 0 0 1-1.187 1.369 2.617 2.617 0 0 1-1.521.487c-.533 0-.882-.167-1.019-.487a1.607 1.607 0 0 1 .213-1.354zm.761-.031a1.242 1.242 0 0 0-.2.928.512.512 0 0 0 .548.32 1.534 1.534 0 0 0 .882-.32 2.558 2.558 0 0 0 .761-.943 1.268 1.268 0 0 0 .213-.928c-.076-.2-.259-.3-.563-.3a1.547 1.547 0 0 0-.882.3 2.533 2.533 0 0 0-.755.944z" class="cls-9" transform="translate(-457.616 -605.6)"/>
                <path id="Path_8148" d="M486.4 609.406l1.871-3.606h.7l.228 2.4 1.248-2.4h.67l-1.872 3.606h-.73l-.228-2.343-1.217 2.343z" class="cls-9" transform="translate(-477.865 -605.769)"/>
                <path id="Path_8149" d="M511.6 609.406l1.871-3.606h2.663l-.319.609h-1.947l-.411.791h1.811l-.32.609h-1.81l-.5.974h2.008l-.32.608-2.723.015z" class="cls-9" transform="translate(-499.231 -605.769)"/>
                <path id="Path_8150" d="M540.4 609.406l1.552-3h-1.065l.319-.609h2.86l-.32.609h-1.065l-1.552 3z" class="cls-9" transform="translate(-523.649 -605.769)"/>
                <path id="Path_8151" d="M556.5 609.406l1.871-3.606h.73l-1.871 3.606z" class="cls-9" transform="translate(-537.299 -605.769)"/>
                <path id="Path_8152" d="M565.1 609.491l.335-.654 3.1-2.328h-1.674l.32-.609h2.632l-.289.563-3.224 2.437h2.054l-.319.609H565.1z" class="cls-9" transform="translate(-544.591 -605.854)"/>
                <path id="Path_8153" d="M588.8 609.406l1.871-3.606h2.663l-.319.609h-1.947l-.411.791h1.81l-.32.609h-1.8l-.5.974h2.008l-.319.608-2.739.015z" class="cls-9" transform="translate(-564.685 -605.769)"/>
            </g>
        </g>
        <g id="Group_4245" transform="translate(91.987 49.478)">
            <g id="Group_4244">
                <path id="Path_8154" d="M661.221 609.406h-.791l.106-.822h-1.445l-.715.822h-.776l3.271-3.606h.776zm-.593-1.415l.2-1.339-1.187 1.339z" class="cls-9" transform="translate(-657.6 -605.8)"/>
                <path id="Path_8155" d="M685.4 609.406l1.871-3.606h.7l.228 2.4 1.248-2.4h.669l-1.871 3.606h-.73l-.228-2.343-1.217 2.343z" class="cls-9" transform="translate(-681.17 -605.8)"/>
                <path id="Path_8156" d="M711.806 609.406h-.791l.107-.822h-1.43l-.715.822h-.777l3.271-3.606h.776zm-.593-1.415l.2-1.339-1.187 1.339z" class="cls-9" transform="translate(-700.501 -605.8)"/>
                <path id="Path_8157" d="M736 609.575l1.856-3.575h.73l-1.537 2.967h1.811l-.32.609z" class="cls-9" transform="translate(-724.072 -605.969)"/>
                <path id="Path_8158" d="M760.6 609.406l.791-1.522-.244-2.084H762l.107 1.43 1.567-1.43h.837l-2.4 2.084-.791 1.506-.715.015z" class="cls-9" transform="translate(-744.929 -605.8)"/>
                <path id="Path_8159" d="M775.8 609.491l.335-.654 3.1-2.328h-1.673l.319-.609h2.632l-.289.563L777 608.9h2.054l-.32.609H775.8z" class="cls-9" transform="translate(-757.816 -605.885)"/>
                <path id="Path_8160" d="M799.4 609.406l1.872-3.606h2.662l-.319.609h-1.948l-.411.791h1.811l-.319.609h-1.811l-.5.974h2.008l-.319.608-2.724.015z" class="cls-9" transform="translate(-777.826 -605.8)"/>
            </g>
        </g>
        <g id="Group_4247" transform="translate(18.79 49.417)">
            <g id="Group_4246">
                <path id="Path_8161" d="M176.62 607.9l.746-.076c-.076.243-.091.411-.015.517a.5.5 0 0 0 .441.167 1.132 1.132 0 0 0 .609-.152 1.015 1.015 0 0 0 .365-.35c.046-.091.061-.152.03-.213-.015-.061-.076-.106-.183-.152-.076-.031-.243-.076-.5-.152a1.117 1.117 0 0 1-.639-.35.71.71 0 0 1 .046-.73 1.878 1.878 0 0 1 .426-.517 2.184 2.184 0 0 1 .639-.365 2.584 2.584 0 0 1 .776-.122c.456 0 .745.107.867.3a.823.823 0 0 1-.046.791l-.745.031a.436.436 0 0 0 0-.4.509.509 0 0 0-.4-.122 1.143 1.143 0 0 0-.563.137.549.549 0 0 0-.228.228.181.181 0 0 0 0 .213c.046.076.228.152.548.244a1.983 1.983 0 0 1 .654.258.509.509 0 0 1 .213.365 1.056 1.056 0 0 1-.152.578 1.842 1.842 0 0 1-.472.578 1.892 1.892 0 0 1-.7.4 2.5 2.5 0 0 1-.852.137c-.456 0-.746-.107-.882-.32a.988.988 0 0 1 .017-.923z" class="cls-9" transform="translate(-176.498 -605.4)"/>
                <path id="Path_8162" d="M202.188 605.9h.73l-1.019 1.947a4.326 4.326 0 0 0-.289.609.386.386 0 0 0 .03.35.513.513 0 0 0 .411.137 1.039 1.039 0 0 0 .882-.426 5.184 5.184 0 0 0 .35-.609l1.035-1.993h.73l-.989 1.887a8.227 8.227 0 0 1-.533.913 2.164 2.164 0 0 1-.456.457 1.877 1.877 0 0 1-.578.289 2.264 2.264 0 0 1-.746.106 1.543 1.543 0 0 1-.715-.122.5.5 0 0 1-.259-.3.868.868 0 0 1 0-.4 6.048 6.048 0 0 1 .4-.913z" class="cls-9" transform="translate(-197.06 -605.824)"/>
                <path id="Path_8163" d="M225.156 605.9h1.444a5.505 5.505 0 0 1 .624.031.642.642 0 0 1 .3.152.5.5 0 0 1 .122.3.834.834 0 0 1-.107.426 1.525 1.525 0 0 1-.38.456 1.911 1.911 0 0 1-.533.319.447.447 0 0 1 .335.32.857.857 0 0 1-.107.548 2.078 2.078 0 0 1-.365.472 1.93 1.93 0 0 1-.5.365 1.5 1.5 0 0 1-.578.167c-.122.015-.426.015-.882.03H223.3zm-.319 2.023l-.5.958H225a4.219 4.219 0 0 0 .517-.015.715.715 0 0 0 .335-.137.838.838 0 0 0 .259-.3.4.4 0 0 0 .061-.274.219.219 0 0 0-.137-.167 2.417 2.417 0 0 0-.624-.046h-.578zm.745-1.43l-.426.837h.472a4.087 4.087 0 0 0 .533-.015.943.943 0 0 0 .365-.122.885.885 0 0 0 .259-.274.314.314 0 0 0 .046-.274c-.03-.076-.091-.106-.213-.122a5.036 5.036 0 0 0-.609-.015h-.426z" class="cls-9" transform="translate(-216.179 -605.824)"/>
                <path id="Path_8164" d="M250.557 607.9l.746-.076c-.076.243-.091.411-.015.517a.5.5 0 0 0 .441.167 1.132 1.132 0 0 0 .609-.152 1.014 1.014 0 0 0 .365-.35c.046-.091.061-.152.03-.213-.015-.061-.076-.106-.183-.152-.076-.031-.243-.076-.5-.152a1.117 1.117 0 0 1-.639-.35.71.71 0 0 1 .046-.73 1.876 1.876 0 0 1 .426-.517 2.184 2.184 0 0 1 .639-.365 2.584 2.584 0 0 1 .776-.122c.456 0 .746.107.867.3a.824.824 0 0 1-.046.791l-.746.031a.436.436 0 0 0 0-.4.508.508 0 0 0-.4-.122 1.143 1.143 0 0 0-.563.137.551.551 0 0 0-.228.228.181.181 0 0 0 0 .213c.046.076.228.152.548.244a1.983 1.983 0 0 1 .654.258.509.509 0 0 1 .213.365 1.057 1.057 0 0 1-.152.578 1.842 1.842 0 0 1-.472.578 1.891 1.891 0 0 1-.7.4 2.5 2.5 0 0 1-.852.137c-.456 0-.745-.107-.882-.32-.165-.213-.15-.517.018-.923z" class="cls-9" transform="translate(-239.176 -605.4)"/>
                <path id="Path_8165" d="M277.666 607.828l.593.228a3.506 3.506 0 0 1-.989.883 2.2 2.2 0 0 1-1.111.289.91.91 0 0 1-.928-.487 1.65 1.65 0 0 1 .228-1.339 3.714 3.714 0 0 1 1.187-1.4 2.572 2.572 0 0 1 1.476-.5.893.893 0 0 1 .867.4.957.957 0 0 1 .03.669l-.806.167a.481.481 0 0 0-.03-.441.475.475 0 0 0-.411-.167 1.272 1.272 0 0 0-.791.289 2.639 2.639 0 0 0-.73.928 1.445 1.445 0 0 0-.259.974c.061.2.228.289.487.289a1.124 1.124 0 0 0 .593-.183 2.42 2.42 0 0 0 .594-.599z" class="cls-9" transform="translate(-260.154 -605.485)"/>
                <path id="Path_8166" d="M297.2 609.406l1.871-3.606h1.537a2.3 2.3 0 0 1 .791.091.436.436 0 0 1 .243.35 1.051 1.051 0 0 1-.137.563 1.862 1.862 0 0 1-1.461 1 .844.844 0 0 1 .228.3 2.454 2.454 0 0 1 .106.578l.076.7h-.867l-.122-.776a3.806 3.806 0 0 0-.106-.532.272.272 0 0 0-.137-.152.91.91 0 0 0-.35-.046h-.152l-.776 1.506-.745.015zm1.81-2.069h.533a2.884 2.884 0 0 0 .67-.046.759.759 0 0 0 .289-.152.948.948 0 0 0 .213-.274.449.449 0 0 0 .061-.289.223.223 0 0 0-.2-.137 3.61 3.61 0 0 0-.517-.015h-.559z" class="cls-9" transform="translate(-278.836 -605.739)"/>
                <path id="Path_8167" d="M322.3 609.406l1.871-3.606h.73l-1.871 3.606z" class="cls-9" transform="translate(-300.117 -605.739)"/>
                <path id="Path_8168" d="M334.871 605.9h1.445a5.506 5.506 0 0 1 .624.031.642.642 0 0 1 .3.152.5.5 0 0 1 .122.3.833.833 0 0 1-.106.426 1.524 1.524 0 0 1-.38.456 1.91 1.91 0 0 1-.533.319.447.447 0 0 1 .335.32.857.857 0 0 1-.107.548 2.078 2.078 0 0 1-.365.472 1.932 1.932 0 0 1-.5.365 1.5 1.5 0 0 1-.578.167c-.122.015-.426.015-.882.03H333zm-.335 2.023l-.5.958h.67a4.218 4.218 0 0 0 .517-.015.716.716 0 0 0 .335-.137.838.838 0 0 0 .259-.3.4.4 0 0 0 .061-.274.219.219 0 0 0-.137-.167 2.417 2.417 0 0 0-.624-.046h-.578zm.745-1.43l-.426.837h.472a4.087 4.087 0 0 0 .533-.015.944.944 0 0 0 .365-.122.887.887 0 0 0 .259-.274.315.315 0 0 0 .046-.274c-.03-.076-.091-.106-.213-.122a5.037 5.037 0 0 0-.609-.015h-.426z" class="cls-9" transform="translate(-309.189 -605.824)"/>
                <path id="Path_8169" d="M358.3 609.406l1.871-3.606h2.662l-.319.609h-1.947l-.411.791h1.811l-.32.609h-1.81l-.5.974h2.008l-.319.608-2.723.015z" class="cls-9" transform="translate(-330.64 -605.739)"/>
            </g>
        </g>
        <g id="Group_4248" transform="translate(53.601 50.193)">
            <circle id="Ellipse_180" cx="1.065" cy="1.065" r="1.065" class="cls-4"/>
        </g>
        <g id="Group_4249" transform="translate(88.016 50.193)">
            <circle id="Ellipse_181" cx="1.065" cy="1.065" r="1.065" class="cls-4"/>
        </g>
    </g>
</svg>
