<svg xmlns="http://www.w3.org/2000/svg" xmlns:xlink="http://www.w3.org/1999/xlink" width="478.325" height="454.78" viewBox="0 0 478.325 454.78">
    <defs>
        <linearGradient id="linear-gradient" x1="-.414" x2="1.659" y1=".295" y2="1.951" gradientUnits="objectBoundingBox">
            <stop offset="0" stop-color="#6fe6ab"/>
            <stop offset="1" stop-color="#2ca369"/>
        </linearGradient>
        <linearGradient id="linear-gradient-4" x1=".5" x2=".5" y1="-2.536" y2="3.392" gradientUnits="objectBoundingBox">
            <stop offset="0" stop-color="#e4f2c6"/>
            <stop offset="1" stop-color="#245b72"/>
        </linearGradient>
        <linearGradient id="linear-gradient-5" x1=".5" x2=".5" y1="-1.757" y2="2.865" xlink:href="#linear-gradient-4"/>
        <linearGradient id="linear-gradient-6" x1=".5" x2=".5" y1="-3.772" y2="8.204" xlink:href="#linear-gradient-4"/>
        <linearGradient id="linear-gradient-7" x1=".5" x2=".5" y2="1" gradientUnits="objectBoundingBox">
            <stop offset="0" stop-color="#977ff8"/>
            <stop offset="1" stop-color="#3b335c"/>
        </linearGradient>
        <linearGradient id="linear-gradient-8" x1=".5" x2=".5" y2="1" gradientUnits="objectBoundingBox">
            <stop offset="0" stop-color="#073952"/>
            <stop offset="1" stop-color="#010b10"/>
        </linearGradient>
        <linearGradient id="linear-gradient-10" y2="1.553" xlink:href="#linear-gradient-7"/>
        <linearGradient id="linear-gradient-11" x2=".401" y2="1.36" xlink:href="#linear-gradient-7"/>
        <style>
            .cls-1{fill:#f9ad76}.cls-2,.cls-24{fill:#fff}.cls-3,.cls-51{fill:#0c8b4c}.cls-5{fill:#d3ffeb}.cls-6{opacity:.428}.cls-7{fill:#38c67f}.cls-10{fill:#fec4ae}.cls-11{fill:url(#linear-gradient)}.cls-12{fill:#42495b}.cls-14{fill:#dda999}.cls-15{fill:#1cd378}.cls-17{fill:#4e9eff}.cls-19{fill:#b5b5b7}.cls-24{opacity:.56}.cls-26{fill:url(#linear-gradient-8)}.cls-30{fill:#ef645e}.cls-32{fill:#f5d3a6}.cls-36{fill:#704c0f}.cls-37{fill:#f0c792}.cls-38{fill:#5e400d}.cls-39{fill:#f9ebcf}.cls-40{fill:#ffcc60}.cls-41{fill:#78b591}.cls-43{fill:#c14616}.cls-45{fill:#ffab5f}.cls-46{fill:#a5bc79}.cls-48{fill:#a03615}.cls-49{fill:#ddb690}.cls-50{opacity:.1}.cls-51{opacity:.584}
        </style>
    </defs>
    <g id="Group_14876" transform="translate(-335.75 -3228.56)">
        <g id="Group_14802" transform="translate(275 3228.56)">
            <g id="Group_14737" transform="translate(449.8 111.564)">
                <g id="Group_14735">
                    <path id="Rectangle_5251" d="M0 0H89.276V59.5H0z" class="cls-1"/>
                    <path id="Path_68606" d="M2773.226 1039.648l26.831 7.189-26.831 26.832z" class="cls-1" transform="translate(-2712.277 -997.149)"/>
                </g>
                <g id="Group_14736" transform="translate(10.89 18.482)">
                    <path id="Rectangle_5252" d="M0 0H66.465V3.509H0z" class="cls-2"/>
                    <path id="Rectangle_5253" d="M0 0H66.465V3.505H0z" class="cls-2" transform="translate(0 9.517)"/>
                    <path id="Rectangle_5254" d="M0 0H66.465V3.503H0z" class="cls-2" transform="translate(0 19.031)"/>
                </g>
            </g>
            <g id="Group_14739" transform="translate(137.162 34.456)">
                <path id="Path_68608" d="M2367.876 1307.955H2549.2c8.757 0 15.856-6.616 15.856-14.777V919.572c0-8.162-7.1-14.778-15.856-14.778h-181.324c-8.757 0-15.856 6.617-15.856 14.778v373.605c0 8.162 7.099 14.778 15.856 14.778z" class="cls-3" transform="translate(-2352.02 -904.794)"/>
                <path id="Path_68609" fill="#fcfdfd" d="M2542.29 1268.749h-166.114a7.851 7.851 0 0 1-8.113-7.56V957.708a7.852 7.852 0 0 1 8.113-7.561h166.114a7.851 7.851 0 0 1 8.112 7.561v303.481a7.85 7.85 0 0 1-8.112 7.56z" transform="translate(-2353.834 -909.921)"/>
                <path id="Path_68610" d="M2498.621 933.529h-39.733a4.529 4.529 0 0 1-4.678-4.361v-.088a4.528 4.528 0 0 1 4.678-4.361h39.733a4.528 4.528 0 0 1 4.68 4.361v.088a4.529 4.529 0 0 1-4.68 4.361z" class="cls-5" transform="translate(-2363.573 -907.047)"/>
                <path id="Path_68611" d="M2489.081 1341.736H2452.9a6.689 6.689 0 0 1-6.911-6.442v-7.957a6.689 6.689 0 0 1 6.911-6.442h36.183a6.69 6.69 0 0 1 6.912 6.442v7.957a6.69 6.69 0 0 1-6.914 6.442z" class="cls-5" transform="translate(-2362.644 -951.836)"/>
                <path id="Path_68612" d="M2448.881 928.936a6 6 0 1 1-5.981-5.574 5.788 5.788 0 0 1 5.981 5.574z" class="cls-5" transform="translate(-2361.618 -906.893)"/>
                <path id="Rectangle_5255" d="M0 0H7.657V59.067H0z" class="cls-3" transform="translate(208.22 64.53)"/>
                <path id="Rectangle_5256" d="M0 0H7.657V20.236H0z" class="cls-3" transform="translate(208.22 141.098)"/>
            </g>
            <path id="Rectangle_5494" d="M0 0H28.166V3.282H0z" class="cls-2" transform="translate(174.744 375.725)"/>
            <path id="Rectangle_5495" d="M0 0H28.166V3.282H0z" class="cls-2" transform="translate(230.53 375.725)"/>
            <path id="Rectangle_5496" d="M0 0H28.166V3.282H0z" class="cls-2" transform="translate(282.486 375.725)"/>
            <g id="Group_14773" class="cls-6" transform="translate(172.084 186.757)">
                <g id="Group_14772">
                    <path id="Rectangle_5497" d="M0 0H39.699V22.836H0z" class="cls-7" transform="translate(.108 4.517)"/>
                    <g id="Group_14770">
                        <path id="Rectangle_5498" d="M0 0H2.927V3.324H0z" class="cls-7"/>
                        <path id="Rectangle_5499" d="M0 0H2.927V3.324H0z" class="cls-7" transform="translate(5.239)"/>
                        <path id="Rectangle_5500" d="M0 0H2.927V3.324H0z" class="cls-7" transform="translate(10.479)"/>
                        <path id="Rectangle_5501" d="M0 0H2.927V3.324H0z" class="cls-7" transform="translate(15.718)"/>
                        <path id="Rectangle_5502" d="M0 0H2.927V3.324H0z" class="cls-7" transform="translate(20.957)"/>
                        <path id="Rectangle_5503" d="M0 0H2.927V3.324H0z" class="cls-7" transform="translate(26.197)"/>
                        <path id="Rectangle_5504" d="M0 0H2.927V3.324H0z" class="cls-7" transform="translate(31.436)"/>
                        <path id="Rectangle_5505" d="M0 0H2.927V3.324H0z" class="cls-7" transform="translate(36.675)"/>
                    </g>
                    <g id="Group_14771" transform="translate(0 28.618)">
                        <path id="Rectangle_5506" d="M0 0H2.927V3.324H0z" class="cls-7"/>
                        <path id="Rectangle_5507" d="M0 0H2.927V3.324H0z" class="cls-7" transform="translate(5.239)"/>
                        <path id="Rectangle_5508" d="M0 0H2.927V3.324H0z" class="cls-7" transform="translate(10.479)"/>
                        <path id="Rectangle_5509" d="M0 0H2.927V3.324H0z" class="cls-7" transform="translate(15.718)"/>
                        <path id="Rectangle_5510" d="M0 0H2.927V3.324H0z" class="cls-7" transform="translate(20.957)"/>
                        <path id="Rectangle_5511" d="M0 0H2.927V3.324H0z" class="cls-7" transform="translate(26.197)"/>
                        <path id="Rectangle_5512" d="M0 0H2.927V3.324H0z" class="cls-7" transform="translate(31.436)"/>
                        <path id="Rectangle_5513" d="M0 0H2.927V3.324H0z" class="cls-7" transform="translate(36.675)"/>
                    </g>
                </g>
                <path id="Path_68660" d="M2409.6 1089.292l8.962 4.644-8.962 4.644z" class="cls-7" transform="translate(-2393.452 -1077.953)"/>
            </g>
            <g id="Group_14870" transform="translate(171.445 241.788)">
                <g id="Group_14772-2" opacity="0.115">
                    <path id="Rectangle_5497-2" fill="#e26a6a" d="M0 0H141.388V81.333H0z"/>
                </g>
            </g>
            <g id="Group_14777" class="cls-6" transform="translate(222.554 186.757)">
                <g id="Group_14776">
                    <path id="Rectangle_5514" d="M0 0H39.699V22.836H0z" class="cls-7" transform="translate(.108 4.517)"/>
                    <g id="Group_14774">
                        <path id="Rectangle_5515" d="M0 0H2.927V3.324H0z" class="cls-7"/>
                        <path id="Rectangle_5516" d="M0 0H2.927V3.324H0z" class="cls-7" transform="translate(5.239)"/>
                        <path id="Rectangle_5517" d="M0 0H2.927V3.324H0z" class="cls-7" transform="translate(10.479)"/>
                        <path id="Rectangle_5518" d="M0 0H2.927V3.324H0z" class="cls-7" transform="translate(15.718)"/>
                        <path id="Rectangle_5519" d="M0 0H2.927V3.324H0z" class="cls-7" transform="translate(20.957)"/>
                        <path id="Rectangle_5520" d="M0 0H2.927V3.324H0z" class="cls-7" transform="translate(26.197)"/>
                        <path id="Rectangle_5521" d="M0 0H2.927V3.324H0z" class="cls-7" transform="translate(31.436)"/>
                        <path id="Rectangle_5522" d="M0 0H2.927V3.324H0z" class="cls-7" transform="translate(36.675)"/>
                    </g>
                    <g id="Group_14775" transform="translate(0 28.618)">
                        <path id="Rectangle_5523" d="M0 0H2.927V3.324H0z" class="cls-7"/>
                        <path id="Rectangle_5524" d="M0 0H2.927V3.324H0z" class="cls-7" transform="translate(5.239)"/>
                        <path id="Rectangle_5525" d="M0 0H2.927V3.324H0z" class="cls-7" transform="translate(10.479)"/>
                        <path id="Rectangle_5526" d="M0 0H2.927V3.324H0z" class="cls-7" transform="translate(15.718)"/>
                        <path id="Rectangle_5527" d="M0 0H2.927V3.324H0z" class="cls-7" transform="translate(20.957)"/>
                        <path id="Rectangle_5528" d="M0 0H2.927V3.324H0z" class="cls-7" transform="translate(26.197)"/>
                        <path id="Rectangle_5529" d="M0 0H2.927V3.324H0z" class="cls-7" transform="translate(31.436)"/>
                        <path id="Rectangle_5530" d="M0 0H2.927V3.324H0z" class="cls-7" transform="translate(36.675)"/>
                    </g>
                </g>
                <path id="Path_68661" d="M2466.507 1089.292l8.962 4.644-8.962 4.644z" class="cls-7" transform="translate(-2450.355 -1077.953)"/>
            </g>
            <g id="Group_14781" class="cls-6" transform="translate(273.025 186.757)">
                <g id="Group_14780">
                    <path id="Rectangle_5531" d="M0 0H39.699V22.836H0z" class="cls-7" transform="translate(.108 4.517)"/>
                    <g id="Group_14778">
                        <path id="Rectangle_5532" d="M0 0H2.927V3.324H0z" class="cls-7"/>
                        <path id="Rectangle_5533" d="M0 0H2.927V3.324H0z" class="cls-7" transform="translate(5.239)"/>
                        <path id="Rectangle_5534" d="M0 0H2.927V3.324H0z" class="cls-7" transform="translate(10.479)"/>
                        <path id="Rectangle_5535" d="M0 0H2.927V3.324H0z" class="cls-7" transform="translate(15.718)"/>
                        <path id="Rectangle_5536" d="M0 0H2.927V3.324H0z" class="cls-7" transform="translate(20.957)"/>
                        <path id="Rectangle_5537" d="M0 0H2.927V3.324H0z" class="cls-7" transform="translate(26.197)"/>
                        <path id="Rectangle_5538" d="M0 0H2.927V3.324H0z" class="cls-7" transform="translate(31.436)"/>
                        <path id="Rectangle_5539" d="M0 0H2.927V3.324H0z" class="cls-7" transform="translate(36.675)"/>
                    </g>
                    <g id="Group_14779" transform="translate(0 28.618)">
                        <path id="Rectangle_5540" d="M0 0H2.927V3.324H0z" class="cls-7"/>
                        <path id="Rectangle_5541" d="M0 0H2.927V3.324H0z" class="cls-7" transform="translate(5.239)"/>
                        <path id="Rectangle_5542" d="M0 0H2.927V3.324H0z" class="cls-7" transform="translate(10.479)"/>
                        <path id="Rectangle_5543" d="M0 0H2.927V3.324H0z" class="cls-7" transform="translate(15.718)"/>
                        <path id="Rectangle_5544" d="M0 0H2.927V3.324H0z" class="cls-7" transform="translate(20.957)"/>
                        <path id="Rectangle_5545" d="M0 0H2.927V3.324H0z" class="cls-7" transform="translate(26.197)"/>
                        <path id="Rectangle_5546" d="M0 0H2.927V3.324H0z" class="cls-7" transform="translate(31.436)"/>
                        <path id="Rectangle_5547" d="M0 0H2.927V3.324H0z" class="cls-7" transform="translate(36.675)"/>
                    </g>
                </g>
                <path id="Path_68662" d="M2523.41 1089.292l8.962 4.644-8.962 4.644z" class="cls-7" transform="translate(-2507.259 -1077.953)"/>
            </g>
            <g id="Group_14782" transform="translate(60.75 166.234)">
                <path id="Path_68663" d="M2286.344 1144.508a21.277 21.277 0 0 0-3.822 1.465c-.818.481-2.147 1.023-2.274 2.046a7.755 7.755 0 0 0 .083 1.735c.175 1.313.253 2.611.538 3.906.266 1.233 1.154 9.228 1.456 12.012.232 2.17 2.79 26.631 5.19 27.256 2.611.671 2.523-22.969 3.455-25.234 2.012-4.89.919-11.318.17-16.386-.258-1.758.211-3.982-.376-5.7-.472-1.4.07-1.224-1.543-1.569a6.766 6.766 0 0 0-2.877.469z" class="cls-10" transform="translate(-2267.491 -1063.616)"/>
                <path id="Path_68664" d="M2300.756 1147.745c-.762-4.522-1.527-9.047-2.2-13.587-.626-4.2-.881-14.9-5.616-16.94-6.353-2.751-11.812 8.265-13 13.162-.545 2.253-.893 11.85-1 17.365z" class="cls-11" transform="translate(-2267.346 -1060.539)"/>
                <path id="Path_68665" d="M2348.527 1372.921a1.718 1.718 0 0 0-.853-.432c-.695-.136-1.416-.185-2.116-.364a36.307 36.307 0 0 1-4.473-1.475c-5.829-2.267-11.71-5.662-18.174-5.262-.1.681-.878-2.6-.853-1.891l-.751 3.119a57.329 57.329 0 0 0-.608 9.03c3.22.4 22 .327 29.151.257-.313-.918-.545-2.266-1.323-2.982z" class="cls-12" transform="translate(-2272.061 -1088.419)"/>
                <path id="Path_68666" d="M2272.3 1374.186c-.93.415-6.3.065-6.431-1.322a16.389 16.389 0 0 1 .511-3.9c.813-4.1 5.654-4.5 8.558-6.113 1.615-.9 10.119-4.6 10.219.437.028 1.697-10.591 9.893-12.857 10.898z" class="cls-12" transform="translate(-2265.868 -1088.114)"/>
                <path id="Path_68667" fill="#145070" d="M2285.278 1202.694a25.4 25.4 0 0 1-.042 5.221 137.362 137.362 0 0 0-2.48 23.342c.446 19.322-.04 27.854-3.494 46.527-2.523 13.608-12.1 54.433-12.6 71.069 0 0 3.329 4.246 11.4-1.295 0 0 9.267-39.033 16.311-63.726 7.339-25.656 12.607-51.417 12.607-51.417l4.032 3.022s2.767 23.947 5.042 40.331c0 0-2.021 32.509-2.021 72.577 0 0 6.052 3.528 11.593.508l7.566-72.078s3.02-51.919 0-76.115q-9.579.623-19.158 1.235-7.516.484-15.033.974c-2.091.131-4.238.425-6.333.389-2.025-.037-5.422-.605-7.39-.564z" transform="translate(-2265.957 -1070.021)"/>
                <path id="Path_68668" d="M2327.423 1113.817a10.968 10.968 0 0 1-4.6-3.034l-20.929-.224c-2.274 1.938-6.447 2.869-8.09 3.565-5.632 2.383-6.826 4.294-6.826 4.294l-.639 76.7 51.5-1.4-.135-74.453c-2.253-2.698-5.874-3.665-10.281-5.448z" class="cls-11" transform="translate(-2268.182 -1059.835)"/>
                <path id="Path_68669" d="M2322.091 1094.675h-13.819c-.066.183-.206.309-.21.527-.027 1.838-.314 7.413-.314 9.872l14.272.283c.267-1.89-.096-9.547.071-10.682z" class="cls-14" transform="translate(-2270.603 -1058.039)"/>
                <path id="Path_68670" d="M2304.38 1083.938c-.021-2.37.184-4.692.315-7.13.2-3.933.035-6.906 1.509-10.528 2.278-5.588 5.745-10.027 12.361-9.122 9.9 1.352 9.537 12.329 9.883 19.547.166 3.419.563 11.233-.312 14.471-.849 3.152-8.119 2.4-11.094 2.264-5.584-.258-12.142-.559-12.6-7.8-.036-.577-.058-1.14-.062-1.702z" class="cls-10" transform="translate(-2270.222 -1053.785)"/>
                <path id="Path_68671" d="M2302.738 1111.271l2.523-5.79 18.9.5 1.263 6.556z" class="cls-15" transform="translate(-2270.036 -1059.261)"/>
                <path id="Path_68672" fill="#194866" d="M2323.194 1055.935c-6.086-2.912-13.114-3.992-18.825.258-3.472 2.588-4.609 9.1-4.609 13.211 0 7.749 2.06 15.536 4.53 19.655 2.37 3.932 9.481 2.209 10.307 1.706a16.226 16.226 0 0 0 7.259-10.6c-2.655-.721-5.117-2.8-4.141-5.849.669-2.087 5.072-2.722 5.151-.711.035.954-.021 3.63-.039 3.736h2.212c.329-2.834.4-7.666 1.26-9.171 1.032-1.827 2.817-3.047 3.9-4.87a8.626 8.626 0 0 0 1.328-6.115c-.401 1.688-6.089-.174-8.333-1.25z" transform="translate(-2269.699 -1053.37)"/>
                <path id="Path_68673" d="M2387.7 1135.271c1.885-2.389-1.847-4.381-1.847-4.381-5.033 3.432-19.908 15.63-24.351 19.054-6.594 5.113-7.343 6.572-8.117 7.3-2.807 2.56.749 8.64 4.606 9.321-.061-.235 1.592.3 4.805-2.875 1.12-1.09 18.904-20.767 24.904-28.419z" class="cls-10" transform="translate(-2275.649 -1062.134)"/>
                <path id="Path_68674" d="M2352.522 1141.753c-.674-.791-.612-1.05-1.675-.94-1.18.126-1.954 1.15-2.934 1.706-.835.485-1.745.792-2.584 1.252a9.245 9.245 0 0 0-2.011 1.44c-.63.662 4.819 11.939 5.829 13.836 1.448 2.757 4.325 8.606 8.129 8.1 2.668-.355 3.73-2.56 3.744-5.006.026-5.284-3.573-10.784-5.636-15.471a19.461 19.461 0 0 0-2.862-4.917z" class="cls-10" transform="translate(-2274.618 -1063.253)"/>
                <path id="Path_68675" d="M2353.75 1139.109c-.311-2.161-1.873-4.759-2.636-6.658-2.148-5.332-6.709-12.072-8.991-13.46-15.7-9.546-11.26 10.458-7 18.407 1.94 3.611 3.6 6.3 5.156 8.828z" class="cls-11" transform="translate(-2273.243 -1060.503)"/>
                <path id="Path_68676" d="M2396.07 1124.619c-.2 2.259-2.307 4.916-3.477 6.422-.648.84-1.389 1.87-2.56 1.814a4.458 4.458 0 0 1-2.209-1.307 13.44 13.44 0 0 1-2.061-1.9c-1.309-1.695-1.756-3.881-2.334-5.894-.476-1.657-.549-3.6-2.254-4.439a1.533 1.533 0 0 1 1.358-.733c1.694-.147 1.714 1.195 2.218 2.436.983 2.406 2.542 1.581 3.573-.133 1.474-2.45 2.685-5.068 4.151-7.532.414-.7 2.6-3.947 3.509-1.988.319.684-.606 1.679-.921 2.219-.712 1.225-1.917 2.632-2.206 4.015-.528 2.541 2.213 3.557 3.022 5.557a3.126 3.126 0 0 1 .191 1.463z" class="cls-10" transform="translate(-2278.904 -1059.856)"/>
            </g>
            <g id="Group_14783" class="cls-6" transform="translate(168.591 172.82)">
                <path id="Rectangle_5548" d="M0 0H146.027V0.82H0z" class="cls-7"/>
            </g>
            <g id="Group_14784" transform="translate(292.673 94.131)">
                <path id="Path_68677" d="M2559.2 975.973a3.9 3.9 0 1 1-3.9-3.9 3.9 3.9 0 0 1 3.9 3.9z" class="cls-2" transform="translate(-2530.072 -972.077)"/>
                <path id="Path_68678" d="M2547.171 975.973a3.9 3.9 0 1 1-3.9-3.9 3.9 3.9 0 0 1 3.9 3.9z" class="cls-2" transform="translate(-2528.713 -972.077)"/>
                <circle id="Ellipse_2853" cx="3.897" cy="3.897" r="3.897" class="cls-2"/>
            </g>
            <g id="Group_14789" transform="translate(170.915 112.316)">
                <g id="Group_14787">
                    <path id="Path_68679" d="M2431.095 1013.1a20.2 20.2 0 0 1-2.625 9.993 19.344 19.344 0 0 1-4.534 5.519h-.029a17.024 17.024 0 0 1-2.506 1.85 20.086 20.086 0 0 1-10.829 3.133 20.355 20.355 0 0 1-10.769-3.073 18.08 18.08 0 0 1-2.6-1.91 19.851 19.851 0 0 1-4.207-4.981 20.508 20.508 0 1 1 38.1-10.531z" class="cls-17" transform="translate(-2390.076 -992.579)"/>
                </g>
                <g id="Group_14788" transform="translate(56.333 3.419)">
                    <path id="Rectangle_5549" d="M0 0H82.584V2.666H0z" class="cls-17"/>
                    <path id="Rectangle_5550" d="M0 0H82.584V2.666H0z" class="cls-17" transform="translate(0 6.973)"/>
                    <path id="Rectangle_5551" d="M0 0H71.919V2.666H0z" class="cls-17" transform="translate(0 13.946)"/>
                    <path id="Rectangle_5552" d="M0 0H82.584V2.666H0z" class="cls-17" transform="translate(0 20.92)"/>
                    <path id="Rectangle_5553" d="M0 0H46.693V2.666H0z" class="cls-17" transform="translate(0 27.893)"/>
                </g>
            </g>
            <g id="Group_14792" opacity="0.39" transform="translate(375.768)">
                <path id="Rectangle_5554" d="M0 0H82.082V47.217H0z" class="cls-19" transform="translate(.224 9.339)"/>
                <g id="Group_14790">
                    <path id="Rectangle_5555" d="M0 0H6.052V6.873H0z" class="cls-19"/>
                    <path id="Rectangle_5556" d="M0 0H6.052V6.873H0z" class="cls-19" transform="translate(10.833)"/>
                    <path id="Rectangle_5557" d="M0 0H6.052V6.873H0z" class="cls-19" transform="translate(21.666)"/>
                    <path id="Rectangle_5558" d="M0 0H6.052V6.873H0z" class="cls-19" transform="translate(32.499)"/>
                    <path id="Rectangle_5559" d="M0 0H6.052V6.873H0z" class="cls-19" transform="translate(43.332)"/>
                    <path id="Rectangle_5560" d="M0 0H6.052V6.873H0z" class="cls-19" transform="translate(54.165)"/>
                    <path id="Rectangle_5561" d="M0 0H6.052V6.873H0z" class="cls-19" transform="translate(64.998)"/>
                    <path id="Rectangle_5562" d="M0 0H6.052V6.873H0z" class="cls-19" transform="translate(75.831)"/>
                </g>
                <g id="Group_14791" transform="translate(0 59.171)">
                    <path id="Rectangle_5563" d="M0 0H6.052V6.873H0z" class="cls-19"/>
                    <path id="Rectangle_5564" d="M0 0H6.052V6.873H0z" class="cls-19" transform="translate(10.833)"/>
                    <path id="Rectangle_5565" d="M0 0H6.052V6.873H0z" class="cls-19" transform="translate(21.666)"/>
                    <path id="Rectangle_5566" d="M0 0H6.052V6.873H0z" class="cls-19" transform="translate(32.499)"/>
                    <path id="Rectangle_5567" d="M0 0H6.052V6.873H0z" class="cls-19" transform="translate(43.332)"/>
                    <path id="Rectangle_5568" d="M0 0H6.052V6.873H0z" class="cls-19" transform="translate(54.165)"/>
                    <path id="Rectangle_5569" d="M0 0H6.052V6.873H0z" class="cls-19" transform="translate(64.998)"/>
                    <path id="Rectangle_5570" d="M0 0H6.052V6.873H0z" class="cls-19" transform="translate(75.831)"/>
                </g>
                <path id="Path_68688" d="M2661.542 894.2l14.365 8.294-14.365 8.294z" class="cls-2" transform="translate(-2625.618 -869.141)"/>
            </g>
            <g id="Group_14794" transform="translate(296.273 29.461)">
                <path id="Rectangle_5571" d="M0 0H103.104V57.831H0z" class="cls-15"/>
                <g id="Group_14793" transform="translate(8.914 11.788)">
                    <path id="Rectangle_5572" fill="#f6f6f6" d="M0 0H32.764V32.751H0z"/>
                    <path id="Path_68689" fill="url(#linear-gradient-4)" d="M2575.3 936.785v10.381h-24.361l9.927-9.914 7.445-7.457z" transform="translate(-2542.534 -914.414)"/>
                    <path id="Path_68690" fill="url(#linear-gradient-5)" d="M2569.707 946.539h-28.243v-16.326l5.958-5.958 12.371 12.371z" transform="translate(-2541.463 -913.788)"/>
                    <path id="Path_68691" fill="url(#linear-gradient-6)" d="M2568.5 920.99a4.3 4.3 0 1 1-4.3-4.3 4.3 4.3 0 0 1 4.3 4.3z" transform="translate(-2543.548 -912.933)"/>
                </g>
                <path id="Rectangle_5573" d="M0 0H36.458V5.06H0z" class="cls-2" transform="translate(47.59 13.132)"/>
                <path id="Rectangle_5574" d="M0 0H48.795V2.771H0z" class="cls-2" transform="translate(47.59 20.843)"/>
                <path id="Rectangle_5575" d="M0 0H48.795V2.771H0z" class="cls-2" transform="translate(47.59 25.903)"/>
                <path id="Rectangle_5576" d="M0 0H43.271V2.771H0z" class="cls-2" transform="translate(47.59 30.964)"/>
            </g>
            <g id="Group_14795" transform="translate(65.166 84.776)">
                <path id="Path_68692" d="M2313.614 973.112a11.342 11.342 0 0 1-11.092 11.583 8.549 8.549 0 0 1-1.933-.226s4.1-3.735 2.721-11.114c-1.32-7.071-8.021-9.017-8.021-9.017a10.746 10.746 0 0 1 7.233-2.809 11.343 11.343 0 0 1 11.092 11.583z" class="cls-24" transform="translate(-2273.61 -961.529)"/>
                <path id="Path_68693" d="M2310.912 996.673h10.8c-.933-3.607-2.394-9.24-6.139-10.509-2.4-.819-5.232 2.052-8.295 3.688a14.993 14.993 0 0 1 3.634 6.821z" class="cls-24" transform="translate(-2274.965 -964.298)"/>
                <path id="Path_68694" d="M2300.013 977.443a11.106 11.106 0 1 1-11.1-11.587 11.343 11.343 0 0 1 11.1 11.587z" class="cls-2" transform="translate(-2271.635 -962.018)"/>
                <path id="Path_68695" d="M2299.823 990.5c-3.2-1.092-7.167 4.374-11.421 4.718-4.249-.343-8.206-5.81-11.418-4.718-3.748 1.269-5.2 6.9-6.137 10.508h35.119c-.94-3.608-2.394-9.241-6.143-10.508z" class="cls-2" transform="translate(-2270.847 -964.788)"/>
            </g>
            <g id="Group_14765" transform="translate(302.657 166.397)">
                <path id="Path_68616" fill="url(#linear-gradient-7)" d="M2624.443 1128.109c-13.279 47.716-61 57.813-61 57.813l-1.93-3.248c27.843-22.33 42.436-60.774 42.424-66.046 0-.386 20.506 11.481 20.506 11.481z" transform="translate(-2541.199 -1060.684)"/>
                <path id="Path_68617" d="M2554.3 1200q.961-.488 1.916-.987c1.812-.947 4.444-2.416 4.74-4.7.314-2.434-2.208-4.306-4.223-5.06a14.2 14.2 0 0 0-4.353-.887c-1.561-.069-3.127.12-4.686.009a4.606 4.606 0 0 1-1.879-.7 5.77 5.77 0 0 0-1.781-.888.431.431 0 0 0-.325.059.478.478 0 0 0-.12.157 2 2 0 0 0 .073 1.526 4.459 4.459 0 0 0 2.356 2.522 6.974 6.974 0 0 0 1.72.559 8.406 8.406 0 0 0 .9.121c.13.011.771.117.858.023-3.918 4.248-6.966 7.584-10.885 11.831.662 1.268.824 3.2 1.226 3.2 1.103 0 11.301-5.185 14.463-6.785z" class="cls-10" transform="translate(-2538.61 -1068.615)"/>
                <g id="Group_14764" transform="translate(111.041 276.609)">
                    <path id="Path_68618" d="M2677.83 1376.581l-13.207-.613a1.475 1.475 0 0 1-.148-.237 2.443 2.443 0 0 1-.161-.807c-.184-2.725 1.09-5.748 2.336-8.11a2.627 2.627 0 0 1 .547-.772 2.743 2.743 0 0 1 1.686-.5h.087l1.652-.092c1.157-.065 2.465-.076 3.292.737.344.339 4.205 4.913 4.663 6.884.323 1.383.368 2.656-.747 3.51z" class="cls-12" transform="translate(-2663.861 -1365.421)"/>
                    <path id="Path_68619" d="M2679.009 1375.919l-.11 2.382c-4.441-.147-10.579-.374-14.908-.516a13.021 13.021 0 0 1-.181-2.571z" class="cls-12" transform="translate(-2663.806 -1366.528)"/>
                </g>
                <path id="Path_68620" d="M2624.606 1346.2c-.122 1.13-.227 2.262-.359 3.391a48.732 48.732 0 0 0-.631 4.876c-.062 3.405-.138 6.962-.289 10.3a23.73 23.73 0 0 0 5.927 2c.01-.227 1.265-10.03 1.36-11.222.416-2.138 1.19-5.226 2.022-8.862z" class="cls-10" transform="translate(-2548.188 -1086.639)"/>
                <path id="Path_68621" d="M2625.446 1211.39s-2.464 102.763-2.891 133.635l8.129.173c2.462-17.282 15.942-112.793 17.437-132.284z" class="cls-26" transform="translate(-2548.101 -1071.398)"/>
                <path id="Path_68622" d="M2673.7 1353.1l-7.637-.2c.041 2.4 1.9 12.261 1.9 12.261.72.441 4.546 1.677 5.849-.129.088-.116-.265-11.501-.112-11.932z" class="cls-10" transform="translate(-2553.019 -1087.397)"/>
                <path id="Path_68623" d="M2667.613 1210.225s3.082 106.331 4.708 135.433l-8.943.8c-4.179-21.312-13.983-115.718-20.013-137.716z" class="cls-26" transform="translate(-2550.453 -1071.099)"/>
                <path id="Path_68624" fill="url(#linear-gradient-10)" d="M2671.006 1104.712s-25.018-4.307-37.388-3.408-23.432 11.465-24.837 13.447 14.3 82.286 14.124 84.827c0 0 9.278 2.921 41.276-.732.468-.053-4.1-12.645-3.859-15.707s7.306-46.494 12.916-60.331z" transform="translate(-2546.533 -1058.938)"/>
                <path id="Union_17" fill="url(#linear-gradient-11)" stroke="rgba(0,0,0,0)" stroke-miterlimit="10" d="M3904.166-13574.232s8.7-21.164 7.125-40.11q-.085-.524-.135-1.087a37.863 37.863 0 0 0-3.924-13.851c-10.609-20.819-.926-37.712 2.943-34.786 0 0 18.593 20.74 18.312 47.07.139 14.641-3.713 31.284-20.369 46.746z" transform="translate(-3785.556 13710.297)"/>
                <path id="Path_68626" d="M2639.821 1079.245c.182.257 7.821 21.248 7.821 21.248s2.2 4.751-3.746 6.9c-6.645 2.4-12.224 1.148-12.43-2.054s-.619-12.888-.619-12.888z" class="cls-14" transform="translate(-2549.038 -1056.458)"/>
                <path id="Path_68627" d="M2633.83 1062.852a18.077 18.077 0 0 0-12.847-1.56c-1.718.437-3.541 1.3-4.162 2.96a6.564 6.564 0 0 0-.1 3.144l3.856 29.727a45.963 45.963 0 0 0 11.777-1.577 4.471 4.471 0 0 0 2.469-1.306 4.6 4.6 0 0 0 .732-1.888 141.113 141.113 0 0 0 2.887-19c.213-2.57.307-5.347-1.088-7.516a9.23 9.23 0 0 0-3.524-2.984z" class="cls-10" transform="translate(-2547.425 -1054.367)"/>
                <path id="Path_68628" d="M2635 1076.088c.033.014-.025-2.944-.074-3.233a11.363 11.363 0 0 0-1.275-3.6c-.957-1.708-2.213-4.143-4.058-4.983-2.8-1.277-6.044.222-8.668 1.84-4.241 2.616-9.056-1.021-8.8-5.864a8.047 8.047 0 0 1 4.844-6.693 2.316 2.316 0 0 0 1.322 3.617c1.339.205 2.519-.812 3.79-1.279a4.866 4.866 0 0 1 3.5.07c1.014.419 1.865 1.174 2.891 1.563 2.639 1 4.231-1.322 6.661-1.479a5.855 5.855 0 0 1 6.031 4.4 8.591 8.591 0 0 0 .494 1.911c.8 1.607 3.064 1.907 3.778 3.521a4.263 4.263 0 0 1-1.312 4.71 1.625 1.625 0 0 1 1.088 2.045 2.9 2.9 0 0 1-1.818 1.748 17.166 17.166 0 0 1-2.54.6 2.787 2.787 0 0 0-1.185.492c-.633.518-.539 1.552-1.224 1.8s-2.794-.914-3.445-1.186z" class="cls-12" transform="translate(-2546.92 -1053.554)"/>
                <path id="Path_68629" d="M2643.111 1073.009c1.023.018 1.744 1.05 1.975 2.047a8.144 8.144 0 0 1 .106 2.5 8.37 8.37 0 0 1-1.006 3.684 3.873 3.873 0 0 1-3.115 1.98c-2.2-.145-2.169-2.219-2.036-3.854a13.973 13.973 0 0 1 .494-3.118c.471-1.486 1.844-3.269 3.582-3.239z" class="cls-10" transform="translate(-2549.958 -1055.753)"/>
                <path id="Path_68630" d="M2673.479 1205.979l-.12-.075a13.022 13.022 0 0 0-1.545 2.283q-.8 1.136-1.608 2.264c-.906 1.261-1.825 2.513-2.742 3.764-.647.882-1.305 1.761-1.921 2.667a4.1 4.1 0 0 0-.746 1.29 4.978 4.978 0 0 0 .3 1.863c.264 1.14.583 2.269.93 3.386a36.343 36.343 0 0 0 1.245 3.476c.312.73.884 2.755 2.041 1.878a1.606 1.606 0 0 0 .38-.458 10.706 10.706 0 0 0 1.182-5.5 16.588 16.588 0 0 1 .657-5.628c.519-1.372 4.055-7.375 4.839-9.231q-1.404-1.058-2.892-1.979z" class="cls-10" transform="translate(-2552.873 -1070.778)"/>
                <path id="Path_68632" d="M2617.055 1367.946l-7.025 2.546a11.534 11.534 0 0 0-3.486 1.731 3.914 3.914 0 0 0-1.564 3.4l25.439.741c.83-3.487.073-7.611-3.009-10.109-.646 1.151-1.652 1.4-2.971 1.432a4.42 4.42 0 0 1-3.046-.962 17.107 17.107 0 0 0-4.338 1.221z" class="cls-12" transform="translate(-2546.111 -1088.906)"/>
                <path id="Path_68633" fill="#083a60" d="M2605.036 1374.645a3.266 3.266 0 0 0-.365 1.923c8.479.248 17.4.5 25.879.749a11.511 11.511 0 0 0 .3-2.267z" transform="translate(-2546.076 -1089.855)"/>
            </g>
        </g>
        <g id="heart_3_" transform="translate(463.262 3474.479)">
            <path id="Path_68704" d="M26.361 37.426c-.005.005.018 0-.069 0a1.224 1.224 0 0 0-1.222 1.63c-.153.161.506-.5-10.64 10.59a.812.812 0 0 1-1.146 0C2.143 38.561 2.8 39.218 2.646 39.056a1.229 1.229 0 0 0-1.29-1.629 8.131 8.131 0 0 1 12.5-10.265 8.131 8.131 0 0 1 12.5 10.265z" class="cls-30" transform="translate(0 -24.859)"/>
            <path id="Path_68706" fill="#e1f3ff" d="M50.016 158.523a10.683 10.683 0 0 1-1.285 1.625h-6.018a.813.813 0 0 1-.715-.427l-2.272-4.221-3.212 6.78a.813.813 0 0 1-1.42.088l-2.327-3.657-.624 1.039a.812.812 0 0 1-.7.394H26.3a10.683 10.683 0 0 1-1.285-1.625h5.978l1.063-1.772a.812.812 0 0 1 1.382-.018l2.243 3.525 3.27-6.9a.813.813 0 0 1 1.45-.037l2.8 5.205h6.819z" transform="translate(-23.655 -145.957)"/>
        </g>
        <g id="meditation_1_" transform="translate(507.223 3472.221)">
            <path id="Path_68764" d="M45.549 102.063a3.23 3.23 0 0 0-2.185.329 3.8 3.8 0 0 0-1.974 3.374l-.956 13.982a3.187 3.187 0 0 1-1.008 2.326l-9.195 8.62-3.877 1.058a3.483 3.483 0 0 0-2.5 4.044l6.163-1.233A7.055 7.055 0 0 0 33.225 133l.832-.713 7.777-4.014a7.012 7.012 0 0 0 3.122-3.23l1.321-2.789a7.016 7.016 0 0 0 .646-2.365l.524-5.75z" class="cls-32" transform="translate(-23.786 -71.935)"/>
            <path id="Path_68765" d="M175.057 130.535l-9.034-8.46a3.188 3.188 0 0 1-1.009-2.327l-.956-13.981a3.8 3.8 0 0 0-1.975-3.374 3.23 3.23 0 0 0-2.185-.329L158 114.14l.524 5.75a7.017 7.017 0 0 0 .646 2.365l1.279 2.7a7.015 7.015 0 0 0 3.279 3.309l8.3 4.024a7.054 7.054 0 0 0 4.036 2.4l5.529 1.106a3.536 3.536 0 0 0-2.486-4.091z" class="cls-32" transform="translate(-115.209 -71.935)"/>
            <path id="Union_16" fill="#9984f0" d="M3975.4-13717.431l-.99-6.3-1.559-16.013 7.653-1.914h7.649l7.653 1.914-.21 2.176-1.347 13.837-.99 6.3z" transform="translate(-3951.105 13769.813)"/>
            <path id="Path_68768" fill="#514654" d="M90.675 197.8a13.843 13.843 0 0 0-5.2-2.5L70.013 191H52.477L35.1 195.782s-5.1 2.551-5.1 4.782 2.551 2.551 6.377 4.782c.956.558 2.869.777 5.285.782l36.15 2.382c1.245.016 2.43.025 3.519.025 9.246 0 11.478-5.1 11.478-7.652 0-1.093-.996-2.183-2.134-3.083z" transform="translate(-28.019 -132.56)"/>
            <path id="Path_68769" fill="#403742" d="M98.081 211.38l5.789-1.13s-3.074-.051-3.433-.41a5.452 5.452 0 0 0-4.509-1.178c-2.716.307-9.736-1.486-10.76-.82s-7.827 1.793-10.594 1.588-16.358-2.716-16.358-2.716a3.83 3.83 0 0 0 2.329 1.7l24.06 3.729 6.815-1.833z" transform="translate(-47.238 -143.264)"/>
            <path id="Path_68770" d="M110.488 21.114c-4.527 0-8.2 4.308-8.2 9.622a13.272 13.272 0 0 0 .176 2.1c.829-4.283 4.121-7.444 8.021-7.444s7.227 2.918 8.057 7.2a13.1 13.1 0 0 0 .14-1.853c0-5.314-3.67-9.622-8.2-9.622z" class="cls-36" transform="translate(-77.262 -16.838)"/>
            <path id="Path_68771" d="M116 82.066v7.312a3.826 3.826 0 0 0 7.652 0v-7.312z" class="cls-37" transform="translate(-86.6 -58.357)"/>
            <path id="Path_68772" d="M112.577 13.772a7.223 7.223 0 0 1 9.552.019 5.294 5.294 0 0 0 .2-1.1 4.989 4.989 0 0 0-9.979 0 4.456 4.456 0 0 0 .221 1.082z" class="cls-36" transform="translate(-84.115 -7.701)"/>
            <path id="Path_68773" d="M100.659 172l-.159 6.058h17.535l-.159-6.058z" class="cls-32" transform="translate(-76.042 -119.617)"/>
            <path id="Path_68774" d="M110.862 34.527c-3.9 0-7.192 3.16-8.021 7.444.78 4.848 4.074 10.019 8.021 10.019 4.014 0 7.351-5.347 8.057-10.264-.83-4.281-4.158-7.199-8.057-7.199z" class="cls-32" transform="translate(-77.636 -25.974)"/>
            <g id="Group_14869" transform="translate(28.29 3.481)">
                <path id="Path_68775" d="M115.112 23.506c-.083.041-.164.086-.245.13a10.878 10.878 0 0 0-1.083 4.966c.052-.04.1-.08.157-.119a10.636 10.636 0 0 1 1.171-4.977z" class="cls-38" transform="translate(-113.379 -21.948)"/>
                <path id="Path_68776" d="M119.132 22.589l-.178.071a11.965 11.965 0 0 0-.11 4.313l.151-.061a11.758 11.758 0 0 1 .137-4.323z" class="cls-38" transform="translate(-116.728 -21.324)"/>
                <path id="Path_68777" d="M138.284 23.632a13.37 13.37 0 0 1 2.2 5.754c.046.045.092.087.137.133a.076.076 0 0 0 .028-.061 13.077 13.077 0 0 0-2.084-5.678c-.095-.052-.188-.1-.281-.148z" class="cls-38" transform="translate(-130.069 -22.034)"/>
                <path id="Path_68778" d="M133.636 26.374c.063.031.122.069.184.1l-.014-.072a16.333 16.333 0 0 0-2.381-5.015c-.07-.012-.141-.021-.212-.032a16.676 16.676 0 0 1 2.423 5.019z" class="cls-38" transform="translate(-125.252 -20.485)"/>
                <path id="Path_68779" d="M122.241 21.229c.046-.21.107-.436.15-.664a7.247 7.247 0 0 0-9.877 0c.047.216.114.422.168.649a7.223 7.223 0 0 1 9.552.019z" class="cls-38" transform="translate(-112.517 -18.62)"/>
            </g>
            <path id="Path_68780" d="M106.809 222.5l-28.176 4.624-4.713 1.488a1.539 1.539 0 0 0 .788 2.971l10.3-2.227s12.657.5 21.988.613l.53.006a8.036 8.036 0 0 0 1.474-4.01c0-1.992-2.191-3.465-2.191-3.465z" class="cls-32" transform="translate(-57.203 -154.014)"/>
            <path id="Path_68781" d="M76.587 228.572c8.349-.759 17.421-2.21 21.312-2.668a119.847 119.847 0 0 0 12.522-2.457 6.522 6.522 0 0 0-1.062-.95l-28.176 4.624z" class="cls-37" transform="translate(-59.753 -154.014)"/>
            <path id="Path_68782" d="M100.154 211.548l-6.271-.273-4.482-.56a1.276 1.276 0 0 0-1.06.364l-1.641 1.635a1.276 1.276 0 0 1-1.134.352L69.014 210l-5.893.655A9.044 9.044 0 0 0 62 214.782a7.857 7.857 0 0 0 1.691 4.289c7.248.015 18.793-1.9 22.858-2.376a122.237 122.237 0 0 0 13.844-2.966 1.11 1.11 0 0 0-.24-2.181z" class="cls-32" transform="translate(-49.816 -145.502)"/>
        </g>
        <g id="salad" transform="translate(456.955 3505.744)">
            <path id="Path_68783" d="M124.429 174.74a5.03 5.03 0 0 1 0-7.132 1.156 1.156 0 0 1 1.629 0l5.539 5.511a1.142 1.142 0 0 1 0 1.621 5.093 5.093 0 0 1-7.168 0z" class="cls-39" transform="translate(-113.685 -153.631)"/>
            <path id="Path_68784" d="M164.3 185.159a2.341 2.341 0 0 0 0 3.323 2.353 2.353 0 0 0 3.53-.216l-3.313-3.3a2.4 2.4 0 0 0-.217.193z" class="cls-40" transform="translate(-151.028 -169.885)"/>
            <path id="Path_68785" d="M29 215.09a2.674 2.674 0 0 0-2.774-.351 2.71 2.71 0 0 0-.349-2.788c-.7-.7-1.909-.727-3.2-.194a3.036 3.036 0 0 0-3.89.351 3.076 3.076 0 0 0-.35 3.911c-.53 1.3-.5 2.514.194 3.216a2.674 2.674 0 0 0 2.774.351 2.71 2.71 0 0 0 .349 2.788 2.674 2.674 0 0 0 2.774.351 2.71 2.71 0 0 0 .349 2.788c1.156 1.162 3.714.473 5.715-1.539s2.686-4.584 1.53-5.745a2.673 2.673 0 0 0-2.774-.351A2.711 2.711 0 0 0 29 215.09z" class="cls-41" transform="translate(-17.205 -193.986)"/>
            <path id="Path_68786" fill="#619376" d="M55.749 249.957a.657.657 0 0 1-.467-.194l-5.565-5.595a.659.659 0 1 1 .935-.93l5.566 5.595a.659.659 0 0 1-.467 1.124z" transform="translate(-46.25 -223.223)"/>
            <path id="Path_68787" d="M113.619 226.859a4.478 4.478 0 0 1-6.05 1.925 1.03 1.03 0 0 1-.44-1.382l3.18-6.187a1.017 1.017 0 0 1 1.375-.438 4.535 4.535 0 0 1 1.935 6.082z" class="cls-30" transform="translate(-99.052 -202.666)"/>
            <g id="Group_14871" transform="translate(9.228 18.855)">
                <path id="Path_68788" d="M123.28 308.153a.657.657 0 0 1-.3-.075l-.091-.047a.659.659 0 1 1 .609-1.169l.091.047a.659.659 0 0 1-.305 1.244z" class="cls-43" transform="translate(-122.531 -300.624)"/>
                <path id="Path_68789" d="M162.169 232.619a.659.659 0 0 1-.586-.961l.047-.091a.659.659 0 1 1 1.173.6l-.047.091a.659.659 0 0 1-.587.361z" class="cls-43" transform="translate(-158.331 -231.209)"/>
                <path id="Path_68790" d="M143.112 288.778a.657.657 0 0 1-.3-.074l-.091-.047a.659.659 0 0 1 .608-1.17l.091.047a.659.659 0 0 1-.3 1.245z" class="cls-43" transform="translate(-140.745 -282.829)"/>
                <path id="Path_68791" d="M157.989 262.581a.658.658 0 0 1-.3-.074l-.091-.047a.659.659 0 1 1 .608-1.17l.091.047a.659.659 0 0 1-.3 1.245z" class="cls-43" transform="translate(-154.409 -258.768)"/>
            </g>
            <ellipse id="Ellipse_2858" cx="3.066" cy="3.051" class="cls-30" rx="3.066" ry="3.051" transform="translate(26.706 16.487)"/>
            <path id="Path_68792" d="M325.8 244.82a2.76 2.76 0 0 0 .362-2.863 2.8 2.8 0 0 0 2.878-.36c.725-.721.751-1.971.2-3.3a3.134 3.134 0 0 0-.363-4.016 3.175 3.175 0 0 0-4.037-.361c-1.339-.547-2.595-.521-3.319.2a2.76 2.76 0 0 0-.362 2.864 2.8 2.8 0 0 0-2.878.36 2.761 2.761 0 0 0-.363 2.863 2.8 2.8 0 0 0-2.878.361c-1.2 1.193-.488 3.834 1.588 5.9s4.731 2.773 5.93 1.58a2.76 2.76 0 0 0 .362-2.863 2.8 2.8 0 0 0 2.88-.365z" class="cls-41" transform="translate(-289.58 -214.327)"/>
            <path id="Path_68793" fill="#5b8c6f" d="M382.784 272.956a.7.7 0 0 1-.49-1.188l5.775-5.745a.7.7 0 1 1 .981.986l-5.775 5.745a.693.693 0 0 1-.491.202z" transform="translate(-351.693 -244.142)"/>
            <ellipse id="Ellipse_2859" cx="3.067" cy="3.051" class="cls-45" rx="3.067" ry="3.051" transform="translate(5.167 23.935)"/>
            <path id="Path_68794" d="M222.912 181.259a2.851 2.851 0 0 0-2.933-.368 2.813 2.813 0 0 0-.369-2.918c-.738-.735-2.019-.761-3.383-.2a3.235 3.235 0 0 0-4.114.368 3.194 3.194 0 0 0-.37 4.093c-.56 1.357-.534 2.631.2 3.366a2.851 2.851 0 0 0 2.933.367 2.814 2.814 0 0 0 .369 2.918 2.852 2.852 0 0 0 2.933.368 2.813 2.813 0 0 0 .369 2.918c1.222 1.216 3.928.5 6.044-1.61s2.841-4.8 1.618-6.013a2.851 2.851 0 0 0-2.933-.368 2.813 2.813 0 0 0-.364-2.921z" class="cls-46" transform="translate(-194.712 -162.748)"/>
            <path id="Path_68795" d="M153.078 45.97a4.534 4.534 0 0 1-6.382 0 1.016 1.016 0 0 1 0-1.443l4.931-4.906a1.029 1.029 0 0 1 1.45 0 4.478 4.478 0 0 1 .001 6.349z" class="cls-30" transform="translate(-135.221 -36.115)"/>
            <ellipse id="Ellipse_2860" cx="2.165" cy="2.153" class="cls-45" rx="2.165" ry="2.153" transform="translate(22.993 7.771)"/>
            <path id="Path_68796" d="M333.755 1.519a.761.761 0 0 1 0 1.08l-1.3 1.3a.771.771 0 0 1-1.086 0l-1.3-1.3a.761.761 0 0 1 0-1.08l1.3-1.3a.771.771 0 0 1 1.086 0z" class="cls-43" transform="translate(-303.706 .001)"/>
            <path id="Path_68797" d="M64.8 124.777a.615.615 0 0 1 0 .873l-1.053 1.05a.623.623 0 0 1-.877 0l-1.053-1.047a.615.615 0 0 1 0-.873l1.053-1.047a.622.622 0 0 1 .877 0z" class="cls-46" transform="translate(-57.374 -113.474)"/>
            <path id="Path_68798" d="M400.825 149a.615.615 0 0 1 0 .873l-1.053 1.047a.623.623 0 0 1-.877 0l-1.053-1.047a.615.615 0 0 1 0-.873l1.053-1.047a.622.622 0 0 1 .877 0z" class="cls-43" transform="translate(-365.995 -135.723)"/>
            <path id="Path_68799" fill="#899b62" d="M251.621 218.065a.657.657 0 0 1-.465-.192l-5.886-5.856a.659.659 0 1 1 .93-.935l5.886 5.856a.659.659 0 0 1-.465 1.127z" transform="translate(-225.855 -193.693)"/>
            <path id="Path_68800" d="M24.573 309.367a.955.955 0 0 1 0 1.355l-1.634 1.626a.966.966 0 0 1-1.362 0l-1.634-1.625a.955.955 0 0 1 0-1.355l1.634-1.626a.966.966 0 0 1 1.362 0z" class="cls-30" transform="translate(-18.823 -282.387)"/>
            <path id="Path_68801" d="M140.505 267.079a4.534 4.534 0 0 1-6.382 0 1.017 1.017 0 0 1 0-1.443l4.931-4.906a1.029 1.029 0 0 1 1.45 0 4.478 4.478 0 0 1 .001 6.349z" class="cls-43" transform="translate(-123.674 -239.193)"/>
            <g id="Group_14872" transform="translate(22.378 21.885)">
                <ellipse id="Ellipse_2861" cx="2.633" cy="2.619" class="cls-45" rx="2.633" ry="2.619"/>
                <ellipse id="Ellipse_2862" cx="2.164" cy="2.153" class="cls-45" rx="2.164" ry="2.153" transform="translate(11.649 3.893)"/>
            </g>
            <path id="Path_68802" d="M320.315 297.416a1.143 1.143 0 0 1 0 1.622l-1.956 1.946a1.157 1.157 0 0 1-1.63 0l-1.956-1.946a1.143 1.143 0 0 1 0-1.622l1.956-1.946a1.157 1.157 0 0 1 1.63 0z" class="cls-30" transform="translate(-289.557 -271.066)"/>
            <g id="Group_14873" transform="translate(12.263 4.323)">
                <path id="Path_68803" d="M160.475 114.116a.657.657 0 0 1-.465-.192l-.073-.072a.659.659 0 0 1 .93-.935l.072.072a.659.659 0 0 1-.465 1.127z" class="cls-43" transform="translate(-159.743 -107.855)"/>
                <path id="Path_68804" d="M220.431 54.394a.659.659 0 0 1-.465-1.126l.073-.072a.659.659 0 1 1 .93.934l-.073.072a.657.657 0 0 1-.465.192z" class="cls-43" transform="translate(-214.876 -53.003)"/>
                <path id="Path_68805" d="M185.375 101.73a.658.658 0 0 1-.465-.192l-.072-.072a.659.659 0 0 1 .93-.935l.073.072a.659.659 0 0 1-.465 1.127z" class="cls-43" transform="translate(-182.613 -96.479)"/>
                <path id="Path_68806" d="M207.607 81.379a.657.657 0 0 1-.465-.192l-.073-.072a.659.659 0 0 1 .931-.935l.072.072a.659.659 0 0 1-.465 1.126z" class="cls-43" transform="translate(-203.032 -77.787)"/>
            </g>
            <g id="Group_14874" transform="translate(11.238 22.354)">
                <path id="Path_68807" d="M147.9 335.225a.657.657 0 0 1-.465-.192l-.073-.072a.659.659 0 0 1 .93-.935l.073.072a.659.659 0 0 1-.465 1.127z" class="cls-48" transform="translate(-147.172 -328.963)"/>
                <path id="Path_68808" d="M207.858 275.5a.659.659 0 0 1-.465-1.126l.072-.072a.659.659 0 1 1 .93.934l-.073.072a.657.657 0 0 1-.464.192z" class="cls-48" transform="translate(-202.304 -274.111)"/>
                <path id="Path_68809" d="M172.8 322.839a.657.657 0 0 1-.465-.192l-.073-.072a.659.659 0 1 1 .93-.934l.072.072a.659.659 0 0 1-.465 1.126z" class="cls-48" transform="translate(-170.041 -317.588)"/>
                <path id="Path_68810" d="M195.037 302.485a.657.657 0 0 1-.465-.192l-.073-.072a.659.659 0 0 1 .93-.935l.072.072a.659.659 0 0 1-.465 1.127z" class="cls-48" transform="translate(-190.461 -298.894)"/>
            </g>
            <path id="Path_68811" d="M220.218 272.627a5.03 5.03 0 0 1 0-7.132 1.156 1.156 0 0 1 1.629 0l5.539 5.511a1.142 1.142 0 0 1 0 1.621 5.093 5.093 0 0 1-7.168 0z" class="cls-2" transform="translate(-201.662 -243.535)"/>
            <path id="Path_68812" d="M260.086 283.047a2.341 2.341 0 0 0 0 3.323 2.37 2.37 0 0 0 3.34 0 2.4 2.4 0 0 0 .19-.216l-3.313-3.3a2.373 2.373 0 0 0-.217.193z" class="cls-40" transform="translate(-239.005 -259.79)"/>
            <path id="Path_68813" d="M21.045 356.92a11.838 11.838 0 0 1-7.71-2.849 11.7 11.7 0 0 1-3.949-7.1 1.016 1.016 0 0 1 .236-.818 1.028 1.028 0 0 1 .778-.355h37.7a1.027 1.027 0 0 1 .778.355 1.017 1.017 0 0 1 .236.818 11.7 11.7 0 0 1-3.949 7.1 11.838 11.838 0 0 1-7.71 2.849z" class="cls-39" transform="translate(-9.374 -317.598)"/>
            <g id="Group_14875" transform="translate(.216 30.399)">
                <path id="Path_68814" d="M21.848 372.763h-9.821a11.609 11.609 0 0 0 .41 1.316h9.411a.658.658 0 1 0 0-1.316z" class="cls-49" transform="translate(-12.027 -372.763)"/>
                <path id="Path_68815" d="M33.543 410.3h-6.329a11.728 11.728 0 0 0 .888 1.316h5.441a.658.658 0 1 0 0-1.316z" class="cls-49" transform="translate(-25.975 -407.239)"/>
            </g>
            <path id="Path_68816" d="M13.068 346.972a1.016 1.016 0 0 1 .236-.818 1.027 1.027 0 0 1 .778-.355H10.4a1.027 1.027 0 0 0-.778.355 1.016 1.016 0 0 0-.236.818 11.7 11.7 0 0 0 3.949 7.1 11.838 11.838 0 0 0 7.71 2.849h3.681a11.838 11.838 0 0 1-7.71-2.849 11.7 11.7 0 0 1-3.948-7.1z" class="cls-50" transform="translate(-9.375 -317.598)"/>
            <path id="Path_68817" d="M138.3 482.689a.871.871 0 0 1-.871.871H116.8a.871.871 0 0 1-.871-.871v-.789a.871.871 0 0 1 .871-.871h20.632a.871.871 0 0 1 .871.871z" class="cls-46" transform="translate(-107.236 -441.805)"/>
            <path id="Path_68818" d="M119.595 482.689v-.789a.871.871 0 0 1 .871-.871H116.8a.871.871 0 0 0-.871.871v.784a.871.871 0 0 0 .871.871h3.668a.871.871 0 0 1-.873-.866z" class="cls-50" transform="translate(-107.237 -441.805)"/>
        </g>
        <path id="Rectangle_5655" d="M0 0H37.833V4.778H0z" class="cls-51" transform="translate(446.076 3566.104)"/>
        <path id="Rectangle_5661" d="M0 0H37.833V4.778H0z" class="cls-51" transform="translate(525.076 3566.104)"/>
        <path id="Rectangle_5662" d="M0 0H31.3V4.777H0z" class="cls-51" transform="translate(525.076 3575.265)"/>
        <path id="Rectangle_5658" d="M0 0H55.566V4.777H0z" class="cls-51" transform="translate(446.076 3584.766)"/>
        <path id="Rectangle_5664" d="M0 0H55.566V4.777H0z" class="cls-51" transform="translate(525.076 3584.766)"/>
        <path id="Rectangle_5660" d="M0 0H60.227V4.777H0z" class="cls-51" transform="translate(446.076 3593.927)"/>
        <path id="Rectangle_5666" d="M0 0H60.227V4.777H0z" class="cls-51" transform="translate(525.076 3593.927)"/>
        <path id="Path_73339" d="M0 0h31.3v4.777H0z" class="cls-51" transform="translate(446.076 3575.265)"/>
    </g>
</svg>
