<svg xmlns="http://www.w3.org/2000/svg" width="149" height="149" viewBox="0 0 149 149">
    <defs>
        <style>
            .cls-5{fill:#fff}
        </style>
    </defs>
    <g id="Group_22799" transform="translate(-871 -1829)">
        <g id="Group_22764">
            <path id="Path_68893" fill="#1cd378" d="M222.643 52.273l-.892-2.282a20.57 20.57 0 0 0 5.666-5.457l2.252.986a2.1 2.1 0 0 0 2.769-1.083l1.631-3.728a2.1 2.1 0 0 0-1.083-2.769l-2.252-.986a20.561 20.561 0 0 0 .164-7.864l2.282-.892a2.1 2.1 0 0 0 1.192-2.724l-1.482-3.789a2.1 2.1 0 0 0-2.724-1.192l-2.282.892a20.57 20.57 0 0 0-5.457-5.666l.986-2.252a2.1 2.1 0 0 0-1.083-2.769l-3.73-1.629a2.1 2.1 0 0 0-2.769 1.083l-.986 2.252a20.562 20.562 0 0 0-7.864-.164l-.892-2.282a2.1 2.1 0 0 0-2.724-1.192l-3.789 1.482a2.1 2.1 0 0 0-1.192 2.724l.892 2.282a20.571 20.571 0 0 0-5.666 5.457l-2.252-.986a2.1 2.1 0 0 0-2.769 1.083l-1.631 3.728a2.1 2.1 0 0 0 1.083 2.769l2.252.986a20.561 20.561 0 0 0-.164 7.864l-2.282.892a2.1 2.1 0 0 0-1.192 2.724l1.482 3.789a2.1 2.1 0 0 0 2.724 1.192l2.282-.892a20.57 20.57 0 0 0 5.457 5.666l-.986 2.252a2.1 2.1 0 0 0 1.083 2.769l3.728 1.631a2.1 2.1 0 0 0 2.769-1.083l.986-2.252a20.562 20.562 0 0 0 7.864.164l.892 2.282a2.1 2.1 0 0 0 2.724 1.192L221.451 55a2.1 2.1 0 0 0 1.192-2.727z" transform="translate(727.646 1838.378)"/>
            <circle id="Ellipse_2868" cx="74.5" cy="74.5" r="74.5" fill="#7a839e" opacity="0.08" transform="translate(871 1829)"/>
            <path id="Path_68892" fill="#27b06c" d="M230.289 61.512l-1.081-2.764a24.924 24.924 0 0 0 6.865-6.611l2.727 1.193a2.547 2.547 0 0 0 3.355-1.312l1.976-4.517a2.547 2.547 0 0 0-1.312-3.355l-2.729-1.194a24.913 24.913 0 0 0 .2-9.529l2.764-1.081a2.548 2.548 0 0 0 1.444-3.3l-1.8-4.591a2.547 2.547 0 0 0-3.3-1.444l-2.764 1.081a24.924 24.924 0 0 0-6.611-6.865l1.194-2.729a2.547 2.547 0 0 0-1.312-3.355l-4.517-1.976a2.547 2.547 0 0 0-3.355 1.312l-1.194 2.729a24.913 24.913 0 0 0-9.529-.2l-1.081-2.764a2.547 2.547 0 0 0-3.3-1.444l-4.591 1.8a2.547 2.547 0 0 0-1.444 3.3l1.081 2.764a24.924 24.924 0 0 0-6.865 6.611l-2.729-1.194a2.547 2.547 0 0 0-3.355 1.312l-1.97 4.511a2.547 2.547 0 0 0 1.312 3.355l2.729 1.194a24.913 24.913 0 0 0-.2 9.529l-2.764 1.081a2.547 2.547 0 0 0-1.444 3.3l1.8 4.591a2.547 2.547 0 0 0 3.3 1.444l2.764-1.081a24.924 24.924 0 0 0 6.611 6.865l-1.194 2.729a2.547 2.547 0 0 0 1.312 3.355l4.517 1.976a2.547 2.547 0 0 0 3.355-1.312l1.194-2.729a24.913 24.913 0 0 0 9.529.2l1.081 2.764a2.547 2.547 0 0 0 3.3 1.444l4.591-1.8a2.547 2.547 0 0 0 1.44-3.293z" transform="translate(710.486 1886.219)"/>
            <path id="Path_68894" fill="#38c67f" d="M222.643 52.273l-.892-2.282a20.57 20.57 0 0 0 5.666-5.457l2.252.986a2.1 2.1 0 0 0 2.769-1.083l1.631-3.728a2.1 2.1 0 0 0-1.083-2.769l-2.252-.986a20.561 20.561 0 0 0 .164-7.864l2.282-.892a2.1 2.1 0 0 0 1.192-2.724l-1.482-3.789a2.1 2.1 0 0 0-2.724-1.192l-2.282.892a20.57 20.57 0 0 0-5.457-5.666l.986-2.252a2.1 2.1 0 0 0-1.083-2.769l-3.73-1.629a2.1 2.1 0 0 0-2.769 1.083l-.986 2.252a20.562 20.562 0 0 0-7.864-.164l-.892-2.282a2.1 2.1 0 0 0-2.724-1.192l-3.789 1.482a2.1 2.1 0 0 0-1.192 2.724l.892 2.282a20.571 20.571 0 0 0-5.666 5.457l-2.252-.986a2.1 2.1 0 0 0-2.769 1.083l-1.631 3.728a2.1 2.1 0 0 0 1.083 2.769l2.252.986a20.561 20.561 0 0 0-.164 7.864l-2.282.892a2.1 2.1 0 0 0-1.192 2.724l1.482 3.789a2.1 2.1 0 0 0 2.724 1.192l2.282-.892a20.57 20.57 0 0 0 5.457 5.666l-.986 2.252a2.1 2.1 0 0 0 1.083 2.769l3.728 1.631a2.1 2.1 0 0 0 2.769-1.083l.986-2.252a20.562 20.562 0 0 0 7.864.164l.892 2.282a2.1 2.1 0 0 0 2.724 1.192L221.451 55a2.1 2.1 0 0 0 1.192-2.727z" transform="translate(768.646 1867.378)"/>
            <path id="Union_4" d="M10.107 22.232V14.15H2.023a2.021 2.021 0 1 1 0-4.042h8.085V2.022a2.021 2.021 0 1 1 4.042 0v8.085h8.082a2.021 2.021 0 1 1 0 4.042h-8.083v8.083a2.021 2.021 0 1 1-4.042 0z" class="cls-5" transform="translate(914.054 1912.054)"/>
            <g id="share" transform="translate(968.552 1889.272)">
                <g id="Group_14891" transform="translate(6.185 4.887)">
                    <path id="Path_68874" d="M162.768 120.918l-.65-1.091 7.269-4.367.65 1.091z" class="cls-5" transform="translate(-162.118 -115.459)"/>
                    <path id="Path_68875" d="M173.8 294.946l-7-3.579.573-1.133 7 3.58z" class="cls-5" transform="translate(-166.593 -282.836)"/>
                </g>
                <g id="Group_14892">
                    <path id="Path_68876" d="M319.809 0a3.809 3.809 0 1 0 3.809 3.809A3.82 3.82 0 0 0 319.809 0z" class="cls-5" transform="translate(-303.302)"/>
                    <path id="Path_68877" d="M319.809 332a3.809 3.809 0 1 0 3.809 3.809 3.82 3.82 0 0 0-3.809-3.809z" class="cls-5" transform="translate(-303.302 -317.948)"/>
                    <path id="Path_68878" d="M19.809 181a3.809 3.809 0 1 0 3.809 3.809A3.82 3.82 0 0 0 19.809 181z" class="cls-5" transform="translate(-16 -173.339)"/>
                </g>
            </g>
        </g>
        <g id="shopping-cart" transform="translate(923.641 1860.938)">
            <path id="Path_76497" d="M9.156 16.651h15.1a.833.833 0 0 0 .8-.6l3.33-11.656a.832.832 0 0 0-.8-1.061H7.236L6.641.652A.833.833 0 0 0 5.828 0h-5a.833.833 0 0 0 0 1.665H5.16l3.006 13.527a2.5 2.5 0 0 0 .992 4.789h15.1a.833.833 0 0 0 0-1.665h-15.1a.832.832 0 0 1 0-1.665zM26.482 5l-2.855 9.991H9.826L7.606 5zm0 0" class="cls-5"/>
            <path id="Path_76498" d="M150 362.5a2.5 2.5 0 1 0 2.5-2.5 2.5 2.5 0 0 0-2.5 2.5zm2.5-.833a.833.833 0 1 1-.833.833.834.834 0 0 1 .833-.835zm0 0" class="cls-5" transform="translate(-141.674 -340.019)"/>
            <path id="Path_76499" d="M362 362.5a2.5 2.5 0 1 0 2.5-2.5 2.5 2.5 0 0 0-2.5 2.5zm2.5-.833a.833.833 0 1 1-.833.833.834.834 0 0 1 .833-.835zm0 0" class="cls-5" transform="translate(-341.908 -340.019)"/>
        </g>
    </g>
</svg>
