<svg xmlns="http://www.w3.org/2000/svg" width="149" height="149" viewBox="0 0 149 149">
    <defs>
        <style>
            .cls-4{fill:#1cd378}
        </style>
    </defs>
    <g id="Group_22763" transform="translate(-1478 -1829)">
        <circle id="Ellipse_2869" cx="74.5" cy="74.5" r="74.5" fill="#7a839e" opacity="0.08" transform="translate(1478 1829)"/>
        <g id="like_2_" transform="translate(1483 1856.5)">
            <path id="Path_68884" fill="#f8c296" d="M220.448 131.83a5.2 5.2 0 0 0-5.186-5.186 5.186 5.186 0 0 0 0-10.371H194c3.163-9.49 3.111-12.687 3.111-18.5a7.753 7.753 0 0 0-5.186-7.311 7.186 7.186 0 0 0-2.59-.462h-1.556a2.681 2.681 0 0 0-2.489 1.971l-1.452 5.652c-2.178 8.452-9.179 18.651-17.838 18.651v36.3l11.564 3.837a25.849 25.849 0 0 0 8.193 1.348h24.32a5.186 5.186 0 1 0 0-10.371h5.186a5.186 5.186 0 0 0 0-10.371 5.2 5.2 0 0 0 5.185-5.187z" transform="translate(-111.665 -74.443)"/>
            <g id="Group_14894" transform="translate(31)">
                <path id="Path_68886" fill="#27b06c" d="M49.149 263.855H33.593A2.591 2.591 0 0 1 31 261.263v-46.67A2.591 2.591 0 0 1 33.593 212h15.556a7.787 7.787 0 0 1 7.778 7.778v36.3a7.787 7.787 0 0 1-7.778 7.777z" transform="translate(-31 -175.356)"/>
                <path id="Path_68887" d="M291.186 2.593v5.185a2.593 2.593 0 1 1-5.186 0V2.593a2.593 2.593 0 1 1 5.186 0z" class="cls-4" transform="translate(-241.923)"/>
                <path id="Path_68888" d="M194.963 47.629l-3.663-3.666a2.592 2.592 0 0 1 3.666-3.666l3.666 3.666a2.592 2.592 0 1 1-3.666 3.666z" class="cls-4" transform="translate(-162.961 -32.703)"/>
            </g>
            <g id="Group_14895" transform="translate(77.67)">
                <path id="Path_68889" d="M361.012 47.629a2.592 2.592 0 0 1 0-3.666l3.666-3.666a2.592 2.592 0 0 1 3.666 3.666l-3.666 3.666a2.592 2.592 0 0 1-3.666 0z" class="cls-4" transform="translate(-350.011 -32.703)"/>
            </g>
        </g>
    </g>
</svg>
