<svg xmlns="http://www.w3.org/2000/svg" width="28.99" height="28.99" viewBox="0 0 28.99 28.99">
  <defs>
    <style>
      .cls-1 {
        fill: #5da8dc;
      }

      .cls-2 {
        fill: #fff;
      }
    </style>
  </defs>
  <g id="Group_16823" data-name="Group 16823" transform="translate(-1181.605 -1648)">
    <circle id="Ellipse_3" data-name="Ellipse 3" class="cls-1" cx="14.495" cy="14.495" r="14.495" transform="translate(1181.605 1648)"/>
    <g id="twitter" transform="translate(1188.71 1655.674)">
      <path id="Path_9" data-name="Path 9" class="cls-2" d="M10.255,0V0h.72l.263.061a2.516,2.516,0,0,1,.477.156,3.2,3.2,0,0,1,.415.225A3.906,3.906,0,0,1,12.494.7a2.355,2.355,0,0,1,.291.28.361.361,0,0,0,.4.077,4.767,4.767,0,0,0,.581-.2q.311-.129.616-.29t.371-.2l.069-.048,0,0,.014-.008L14.849.3,14.863.29l.014-.008,0,0,0,0,0,0,0,0,.014,0,.014,0,0,.024,0,.024L14.9.33,14.9.354,14.891.37l-.007.016L14.877.41a.634.634,0,0,0-.014.064A2.923,2.923,0,0,1,14.732.8a4.166,4.166,0,0,1-.311.571,2.713,2.713,0,0,1-.335.438q-.149.15-.2.209a.624.624,0,0,1-.118.113L13.7,2.18l-.014.008-.014.008,0,0,0,0,0,0,0,0-.014.008-.014.008,0,0,0,0,0,0,0,0,0,0,0,0,0,0,0,0h.069l.387-.1a6.183,6.183,0,0,0,.74-.233l.374-.145.042-.016.021-.008.014-.008.014-.008.014-.008.014-.008.028,0,.028,0v.032l-.007,0-.007,0,0,0,0,0,0,0,0,0,0,0,0,0,0,0,0,0,0,0,0,0-.007.016-.007.016,0,0-.176.273a2.231,2.231,0,0,1-.187.273q-.014,0-.039.048a4.411,4.411,0,0,1-.293.359,7.473,7.473,0,0,1-.529.558.809.809,0,0,0-.263.6q0,.357-.032.808t-.1.973q-.076.523-.235,1.182A11.966,11.966,0,0,1,13.036,8.2a10.774,10.774,0,0,1-.477,1.126q-.249.5-.457.845t-.422.652q-.214.306-.542.689t-.36.418q-.032.035-.271.264t-.512.46a5.92,5.92,0,0,1-.5.381q-.228.153-.551.349a6.154,6.154,0,0,1-.695.367q-.374.169-.789.314a6.38,6.38,0,0,1-.8.225q-.387.08-.879.137l-.491.056v.008h-.9v-.008l-.118-.008q-.118-.008-.194-.016T3.5,14.374a7.249,7.249,0,0,1-.782-.161q-.284-.08-.844-.306a7.61,7.61,0,0,1-.959-.455q-.4-.228-.5-.29t-.224-.148l-.125-.088,0,0,0,0,0,0,0,0L.042,12.9l-.014-.008,0,0,0,0,0,0,0,0,0,0,0,0H0v-.032l.014,0,.014,0,.062.008q.062.008.339.024a5.371,5.371,0,0,0,.588,0,5.35,5.35,0,0,0,.637-.072,6.315,6.315,0,0,0,.768-.193,5.159,5.159,0,0,0,.814-.325q.37-.19.526-.283a5.057,5.057,0,0,0,.473-.341l.318-.249,0,0,0,0,0,0,0,0,0,0,0,0,0,0,0,0,.014,0,.014,0,0-.016,0-.016,0,0,0,0-.111-.008L4.3,11.309a1.822,1.822,0,0,1-.325-.072,2.839,2.839,0,0,1-.477-.193,3.537,3.537,0,0,1-.5-.306,2.508,2.508,0,0,1-.35-.294q-.107-.116-.277-.328a3.243,3.243,0,0,1-.293-.439,4.2,4.2,0,0,1-.238-.52l-.115-.293L1.716,8.84l-.007-.024,0-.016,0-.016.021,0,.021,0,.152.024a2.913,2.913,0,0,0,.477.016,3.188,3.188,0,0,0,.45-.032q.125-.024.152-.032L3,8.76l.035-.008.035-.008,0,0,0,0,0,0,0,0-.028-.008-.028-.008L3,8.7,2.975,8.7l-.028-.008-.1-.032q-.069-.024-.374-.177a2.751,2.751,0,0,1-.484-.3,3.484,3.484,0,0,1-.343-.317,4.366,4.366,0,0,1-.356-.447,3.328,3.328,0,0,1-.346-.635A4.116,4.116,0,0,1,.62,5.421L.6,5.084l.014,0,.014,0L.637,5.1l.014.008.014.008.014.008.215.113a2.441,2.441,0,0,0,.533.193q.318.08.381.088l.062.008h.125l0,0,0,0,0,0,0,0,0,0,0,0,0,0,0,0-.014-.008-.014-.008,0,0,0,0,0,0,0,0L1.91,5.454,1.9,5.446l0,0-.119-.1a1.964,1.964,0,0,1-.238-.262q-.125-.161-.249-.338a2.665,2.665,0,0,1-.221-.378,4.958,4.958,0,0,1-.2-.512A4.108,4.108,0,0,1,.637,2.606,4.531,4.531,0,0,1,.65,2.083a3.914,3.914,0,0,1,.083-.491,4.246,4.246,0,0,1,.18-.579L1.031.708,1.038.684,1.045.66l0,0,0,0,0,0,0,0,0,0,0,0,0,0,0,0,0,0,0,0,0,0,0,0,.007.016L1.1.708l0,0,0,0,.187.241q.187.241.443.539a2.8,2.8,0,0,0,.284.309.217.217,0,0,1,.069.074,3.023,3.023,0,0,0,.277.285q.235.225.616.523a9.789,9.789,0,0,0,.844.587,7.73,7.73,0,0,0,1,.523q.533.233.747.306t.733.185q.519.113.782.145t.36.037l.1,0,0-.024,0-.024-.028-.2A4.387,4.387,0,0,1,7.48,3.66a4.277,4.277,0,0,1,.048-.668,4.472,4.472,0,0,1,.145-.619,3.6,3.6,0,0,1,.19-.5q.094-.188.246-.43A3.336,3.336,0,0,1,8.5.941,2.962,2.962,0,0,1,9.058.483,3.381,3.381,0,0,1,9.632.177,2.382,2.382,0,0,1,10.075.04,1.348,1.348,0,0,0,10.255,0Z" transform="translate(0 0)"/>
    </g>
  </g>
</svg>
